M48
;DRILL file {KiCad 4.0.7} date 05/31/18 21:42:17
;FORMAT={-:-/ absolute / inch / decimal}
FMAT,2
INCH,TZ
T1C0.016
T2C0.039
%
G90
G05
M72
T1
X3.1246Y-4.0726
X3.1786Y-3.7516
X3.2056Y-3.987
X3.2746Y-4.3996
X3.2984Y-4.276
X3.3012Y-3.7128
X3.3766Y-3.7486
X3.4276Y-4.197
X3.441Y-3.5176
X3.4786Y-4.2616
X3.543Y-3.546
X3.549Y-4.2586
X3.5688Y-4.484
X3.598Y-4.6015
X3.6288Y-3.5526
X3.774Y-4.2385
X3.7875Y-4.2745
X3.9865Y-4.343
X3.9875Y-4.422
X4.1026Y-3.5566
X4.137Y-3.593
X4.1425Y-3.641
X4.2225Y-4.4235
X4.23Y-4.254
X4.233Y-3.5086
X4.284Y-4.257
X4.284Y-4.4145
X4.332Y-4.5895
X4.3606Y-3.4816
X4.376Y-4.512
X4.5225Y-3.757
X4.531Y-3.7065
X4.6015Y-4.288
X4.6045Y-4.398
X4.6786Y-3.7366
X4.7608Y-4.0766
T2
X3.8806Y-4.5596
X3.8806Y-4.6596
X3.9806Y-4.5596
X3.9806Y-4.6596
T0
M30
