G04 #@! TF.FileFunction,Legend,Bot*
%FSLAX46Y46*%
G04 Gerber Fmt 4.6, Leading zero omitted, Abs format (unit mm)*
G04 Created by KiCad (PCBNEW 4.0.7) date 06/13/18 14:50:44*
%MOMM*%
%LPD*%
G01*
G04 APERTURE LIST*
%ADD10C,0.100000*%
%ADD11C,0.125000*%
%ADD12C,0.250000*%
%ADD13C,0.187500*%
%ADD14C,0.300000*%
%ADD15C,0.152400*%
%ADD16C,0.010000*%
%ADD17C,2.100000*%
%ADD18O,2.100000X2.100000*%
%ADD19R,2.400000X2.000000*%
%ADD20R,1.162000X1.543000*%
G04 APERTURE END LIST*
D10*
D11*
X89484780Y-122165890D02*
X89484780Y-121665890D01*
X89318114Y-122023033D01*
X89151447Y-121665890D01*
X89151447Y-122165890D01*
X88841923Y-122165890D02*
X88889542Y-122142081D01*
X88913351Y-122118271D01*
X88937161Y-122070652D01*
X88937161Y-121927795D01*
X88913351Y-121880176D01*
X88889542Y-121856367D01*
X88841923Y-121832557D01*
X88770494Y-121832557D01*
X88722875Y-121856367D01*
X88699066Y-121880176D01*
X88675256Y-121927795D01*
X88675256Y-122070652D01*
X88699066Y-122118271D01*
X88722875Y-122142081D01*
X88770494Y-122165890D01*
X88841923Y-122165890D01*
X88389542Y-122165890D02*
X88437161Y-122142081D01*
X88460970Y-122118271D01*
X88484780Y-122070652D01*
X88484780Y-121927795D01*
X88460970Y-121880176D01*
X88437161Y-121856367D01*
X88389542Y-121832557D01*
X88318113Y-121832557D01*
X88270494Y-121856367D01*
X88246685Y-121880176D01*
X88222875Y-121927795D01*
X88222875Y-122070652D01*
X88246685Y-122118271D01*
X88270494Y-122142081D01*
X88318113Y-122165890D01*
X88389542Y-122165890D01*
X88008589Y-121832557D02*
X88008589Y-122165890D01*
X88008589Y-121880176D02*
X87984780Y-121856367D01*
X87937161Y-121832557D01*
X87865732Y-121832557D01*
X87818113Y-121856367D01*
X87794304Y-121903986D01*
X87794304Y-122165890D01*
X87341923Y-122142081D02*
X87389542Y-122165890D01*
X87484780Y-122165890D01*
X87532399Y-122142081D01*
X87556208Y-122118271D01*
X87580018Y-122070652D01*
X87580018Y-121927795D01*
X87556208Y-121880176D01*
X87532399Y-121856367D01*
X87484780Y-121832557D01*
X87389542Y-121832557D01*
X87341923Y-121856367D01*
X86913352Y-122165890D02*
X86913352Y-121903986D01*
X86937161Y-121856367D01*
X86984780Y-121832557D01*
X87080018Y-121832557D01*
X87127637Y-121856367D01*
X86913352Y-122142081D02*
X86960971Y-122165890D01*
X87080018Y-122165890D01*
X87127637Y-122142081D01*
X87151447Y-122094462D01*
X87151447Y-122046843D01*
X87127637Y-121999224D01*
X87080018Y-121975414D01*
X86960971Y-121975414D01*
X86913352Y-121951605D01*
X86675256Y-122165890D02*
X86675256Y-121665890D01*
X86627637Y-121975414D02*
X86484780Y-122165890D01*
X86484780Y-121832557D02*
X86675256Y-122023033D01*
X86080018Y-122142081D02*
X86127637Y-122165890D01*
X86222875Y-122165890D01*
X86270494Y-122142081D01*
X86294304Y-122094462D01*
X86294304Y-121903986D01*
X86270494Y-121856367D01*
X86222875Y-121832557D01*
X86127637Y-121832557D01*
X86080018Y-121856367D01*
X86056209Y-121903986D01*
X86056209Y-121951605D01*
X86294304Y-121999224D01*
X88591923Y-123040890D02*
X88758590Y-122802795D01*
X88877637Y-123040890D02*
X88877637Y-122540890D01*
X88687161Y-122540890D01*
X88639542Y-122564700D01*
X88615733Y-122588510D01*
X88591923Y-122636129D01*
X88591923Y-122707557D01*
X88615733Y-122755176D01*
X88639542Y-122778986D01*
X88687161Y-122802795D01*
X88877637Y-122802795D01*
X88187161Y-123017081D02*
X88234780Y-123040890D01*
X88330018Y-123040890D01*
X88377637Y-123017081D01*
X88401447Y-122969462D01*
X88401447Y-122778986D01*
X88377637Y-122731367D01*
X88330018Y-122707557D01*
X88234780Y-122707557D01*
X88187161Y-122731367D01*
X88163352Y-122778986D01*
X88163352Y-122826605D01*
X88401447Y-122874224D01*
X87996685Y-122707557D02*
X87877638Y-123040890D01*
X87758590Y-122707557D01*
X87568114Y-122993271D02*
X87544305Y-123017081D01*
X87568114Y-123040890D01*
X87591924Y-123017081D01*
X87568114Y-122993271D01*
X87568114Y-123040890D01*
X86663353Y-122993271D02*
X86687163Y-123017081D01*
X86758591Y-123040890D01*
X86806210Y-123040890D01*
X86877639Y-123017081D01*
X86925258Y-122969462D01*
X86949067Y-122921843D01*
X86972877Y-122826605D01*
X86972877Y-122755176D01*
X86949067Y-122659938D01*
X86925258Y-122612319D01*
X86877639Y-122564700D01*
X86806210Y-122540890D01*
X86758591Y-122540890D01*
X86687163Y-122564700D01*
X86663353Y-122588510D01*
D12*
X114807097Y-122012983D02*
X114854716Y-122060602D01*
X114997573Y-122108221D01*
X115092811Y-122108221D01*
X115235669Y-122060602D01*
X115330907Y-121965364D01*
X115378526Y-121870126D01*
X115426145Y-121679650D01*
X115426145Y-121536792D01*
X115378526Y-121346316D01*
X115330907Y-121251078D01*
X115235669Y-121155840D01*
X115092811Y-121108221D01*
X114997573Y-121108221D01*
X114854716Y-121155840D01*
X114807097Y-121203459D01*
X114378526Y-122108221D02*
X114378526Y-121108221D01*
X113949954Y-122108221D02*
X113949954Y-121584411D01*
X113997573Y-121489173D01*
X114092811Y-121441554D01*
X114235669Y-121441554D01*
X114330907Y-121489173D01*
X114378526Y-121536792D01*
X113330907Y-122108221D02*
X113426145Y-122060602D01*
X113473764Y-122012983D01*
X113521383Y-121917745D01*
X113521383Y-121632030D01*
X113473764Y-121536792D01*
X113426145Y-121489173D01*
X113330907Y-121441554D01*
X113188049Y-121441554D01*
X113092811Y-121489173D01*
X113045192Y-121536792D01*
X112997573Y-121632030D01*
X112997573Y-121917745D01*
X113045192Y-122012983D01*
X113092811Y-122060602D01*
X113188049Y-122108221D01*
X113330907Y-122108221D01*
X112569002Y-122108221D02*
X112569002Y-121108221D01*
X112473764Y-121727269D02*
X112188049Y-122108221D01*
X112188049Y-121441554D02*
X112569002Y-121822507D01*
X111759478Y-122108221D02*
X111759478Y-121441554D01*
X111759478Y-121108221D02*
X111807097Y-121155840D01*
X111759478Y-121203459D01*
X111711859Y-121155840D01*
X111759478Y-121108221D01*
X111759478Y-121203459D01*
X111426145Y-121441554D02*
X111045193Y-121441554D01*
X111283288Y-121108221D02*
X111283288Y-121965364D01*
X111235669Y-122060602D01*
X111140431Y-122108221D01*
X111045193Y-122108221D01*
X110807097Y-121441554D02*
X110569002Y-122108221D01*
X110330906Y-121441554D02*
X110569002Y-122108221D01*
X110664240Y-122346316D01*
X110711859Y-122393935D01*
X110807097Y-122441554D01*
X109949954Y-122012983D02*
X109902335Y-122060602D01*
X109949954Y-122108221D01*
X109997573Y-122060602D01*
X109949954Y-122012983D01*
X109949954Y-122108221D01*
X109949954Y-121727269D02*
X109997573Y-121155840D01*
X109949954Y-121108221D01*
X109902335Y-121155840D01*
X109949954Y-121727269D01*
X109949954Y-121108221D01*
D13*
X111464772Y-108572836D02*
X111464772Y-107822836D01*
X111286200Y-107822836D01*
X111179057Y-107858550D01*
X111107629Y-107929979D01*
X111071914Y-108001407D01*
X111036200Y-108144264D01*
X111036200Y-108251407D01*
X111071914Y-108394264D01*
X111107629Y-108465693D01*
X111179057Y-108537121D01*
X111286200Y-108572836D01*
X111464772Y-108572836D01*
X110429057Y-108537121D02*
X110500486Y-108572836D01*
X110643343Y-108572836D01*
X110714772Y-108537121D01*
X110750486Y-108465693D01*
X110750486Y-108179979D01*
X110714772Y-108108550D01*
X110643343Y-108072836D01*
X110500486Y-108072836D01*
X110429057Y-108108550D01*
X110393343Y-108179979D01*
X110393343Y-108251407D01*
X110750486Y-108322836D01*
X110107629Y-108537121D02*
X110036200Y-108572836D01*
X109893343Y-108572836D01*
X109821915Y-108537121D01*
X109786200Y-108465693D01*
X109786200Y-108429979D01*
X109821915Y-108358550D01*
X109893343Y-108322836D01*
X110000486Y-108322836D01*
X110071915Y-108287121D01*
X110107629Y-108215693D01*
X110107629Y-108179979D01*
X110071915Y-108108550D01*
X110000486Y-108072836D01*
X109893343Y-108072836D01*
X109821915Y-108108550D01*
X109464772Y-108572836D02*
X109464772Y-108072836D01*
X109464772Y-107822836D02*
X109500486Y-107858550D01*
X109464772Y-107894264D01*
X109429057Y-107858550D01*
X109464772Y-107822836D01*
X109464772Y-107894264D01*
X108786200Y-108072836D02*
X108786200Y-108679979D01*
X108821914Y-108751407D01*
X108857629Y-108787121D01*
X108929057Y-108822836D01*
X109036200Y-108822836D01*
X109107629Y-108787121D01*
X108786200Y-108537121D02*
X108857629Y-108572836D01*
X109000486Y-108572836D01*
X109071914Y-108537121D01*
X109107629Y-108501407D01*
X109143343Y-108429979D01*
X109143343Y-108215693D01*
X109107629Y-108144264D01*
X109071914Y-108108550D01*
X109000486Y-108072836D01*
X108857629Y-108072836D01*
X108786200Y-108108550D01*
X108429058Y-108072836D02*
X108429058Y-108572836D01*
X108429058Y-108144264D02*
X108393343Y-108108550D01*
X108321915Y-108072836D01*
X108214772Y-108072836D01*
X108143343Y-108108550D01*
X108107629Y-108179979D01*
X108107629Y-108572836D01*
X106929058Y-108179979D02*
X106821915Y-108215693D01*
X106786200Y-108251407D01*
X106750486Y-108322836D01*
X106750486Y-108429979D01*
X106786200Y-108501407D01*
X106821915Y-108537121D01*
X106893343Y-108572836D01*
X107179058Y-108572836D01*
X107179058Y-107822836D01*
X106929058Y-107822836D01*
X106857629Y-107858550D01*
X106821915Y-107894264D01*
X106786200Y-107965693D01*
X106786200Y-108037121D01*
X106821915Y-108108550D01*
X106857629Y-108144264D01*
X106929058Y-108179979D01*
X107179058Y-108179979D01*
X106500486Y-108072836D02*
X106321915Y-108572836D01*
X106143343Y-108072836D02*
X106321915Y-108572836D01*
X106393343Y-108751407D01*
X106429058Y-108787121D01*
X106500486Y-108822836D01*
X105857629Y-108501407D02*
X105821914Y-108537121D01*
X105857629Y-108572836D01*
X105893343Y-108537121D01*
X105857629Y-108501407D01*
X105857629Y-108572836D01*
X105857629Y-108108550D02*
X105821914Y-108144264D01*
X105857629Y-108179979D01*
X105893343Y-108144264D01*
X105857629Y-108108550D01*
X105857629Y-108179979D01*
X110750485Y-109885336D02*
X110750485Y-109135336D01*
X110750485Y-109849621D02*
X110821914Y-109885336D01*
X110964771Y-109885336D01*
X111036199Y-109849621D01*
X111071914Y-109813907D01*
X111107628Y-109742479D01*
X111107628Y-109528193D01*
X111071914Y-109456764D01*
X111036199Y-109421050D01*
X110964771Y-109385336D01*
X110821914Y-109385336D01*
X110750485Y-109421050D01*
X110071914Y-109385336D02*
X110071914Y-109885336D01*
X110250485Y-109099621D02*
X110429057Y-109635336D01*
X109964771Y-109635336D01*
X109679057Y-109885336D02*
X109679057Y-109385336D01*
X109679057Y-109528193D02*
X109643342Y-109456764D01*
X109607628Y-109421050D01*
X109536199Y-109385336D01*
X109464771Y-109385336D01*
X109214771Y-109885336D02*
X109214771Y-109135336D01*
X109143342Y-109599621D02*
X108929056Y-109885336D01*
X108929056Y-109385336D02*
X109214771Y-109671050D01*
X108679056Y-109385336D02*
X108536199Y-109885336D01*
X108393342Y-109528193D01*
X108250485Y-109885336D01*
X108107628Y-109385336D01*
X107893342Y-109385336D02*
X107714771Y-109885336D01*
X107536199Y-109385336D02*
X107714771Y-109885336D01*
X107786199Y-110063907D01*
X107821914Y-110099621D01*
X107893342Y-110135336D01*
X107250485Y-109385336D02*
X107250485Y-109885336D01*
X107250485Y-109456764D02*
X107214770Y-109421050D01*
X107143342Y-109385336D01*
X107036199Y-109385336D01*
X106964770Y-109421050D01*
X106929056Y-109492479D01*
X106929056Y-109885336D01*
X106250485Y-109385336D02*
X106250485Y-109992479D01*
X106286199Y-110063907D01*
X106321914Y-110099621D01*
X106393342Y-110135336D01*
X106500485Y-110135336D01*
X106571914Y-110099621D01*
X106250485Y-109849621D02*
X106321914Y-109885336D01*
X106464771Y-109885336D01*
X106536199Y-109849621D01*
X106571914Y-109813907D01*
X106607628Y-109742479D01*
X106607628Y-109528193D01*
X106571914Y-109456764D01*
X106536199Y-109421050D01*
X106464771Y-109385336D01*
X106321914Y-109385336D01*
X106250485Y-109421050D01*
D11*
X93789142Y-110071381D02*
X93717713Y-110095190D01*
X93598666Y-110095190D01*
X93551047Y-110071381D01*
X93527237Y-110047571D01*
X93503428Y-109999952D01*
X93503428Y-109952333D01*
X93527237Y-109904714D01*
X93551047Y-109880905D01*
X93598666Y-109857095D01*
X93693904Y-109833286D01*
X93741523Y-109809476D01*
X93765332Y-109785667D01*
X93789142Y-109738048D01*
X93789142Y-109690429D01*
X93765332Y-109642810D01*
X93741523Y-109619000D01*
X93693904Y-109595190D01*
X93574856Y-109595190D01*
X93503428Y-109619000D01*
X93289142Y-109761857D02*
X93289142Y-110261857D01*
X93289142Y-109785667D02*
X93241523Y-109761857D01*
X93146285Y-109761857D01*
X93098666Y-109785667D01*
X93074857Y-109809476D01*
X93051047Y-109857095D01*
X93051047Y-109999952D01*
X93074857Y-110047571D01*
X93098666Y-110071381D01*
X93146285Y-110095190D01*
X93241523Y-110095190D01*
X93289142Y-110071381D01*
X92646285Y-110071381D02*
X92693904Y-110095190D01*
X92789142Y-110095190D01*
X92836761Y-110071381D01*
X92860571Y-110023762D01*
X92860571Y-109833286D01*
X92836761Y-109785667D01*
X92789142Y-109761857D01*
X92693904Y-109761857D01*
X92646285Y-109785667D01*
X92622476Y-109833286D01*
X92622476Y-109880905D01*
X92860571Y-109928524D01*
X92193905Y-110071381D02*
X92241524Y-110095190D01*
X92336762Y-110095190D01*
X92384381Y-110071381D01*
X92408190Y-110047571D01*
X92432000Y-109999952D01*
X92432000Y-109857095D01*
X92408190Y-109809476D01*
X92384381Y-109785667D01*
X92336762Y-109761857D01*
X92241524Y-109761857D01*
X92193905Y-109785667D01*
X91979619Y-110095190D02*
X91979619Y-109761857D01*
X91979619Y-109595190D02*
X92003429Y-109619000D01*
X91979619Y-109642810D01*
X91955810Y-109619000D01*
X91979619Y-109595190D01*
X91979619Y-109642810D01*
X91527239Y-110095190D02*
X91527239Y-109833286D01*
X91551048Y-109785667D01*
X91598667Y-109761857D01*
X91693905Y-109761857D01*
X91741524Y-109785667D01*
X91527239Y-110071381D02*
X91574858Y-110095190D01*
X91693905Y-110095190D01*
X91741524Y-110071381D01*
X91765334Y-110023762D01*
X91765334Y-109976143D01*
X91741524Y-109928524D01*
X91693905Y-109904714D01*
X91574858Y-109904714D01*
X91527239Y-109880905D01*
X91217715Y-110095190D02*
X91265334Y-110071381D01*
X91289143Y-110023762D01*
X91289143Y-109595190D01*
X90717715Y-109595190D02*
X90432001Y-109595190D01*
X90574858Y-110095190D02*
X90574858Y-109595190D01*
X90265334Y-110095190D02*
X90265334Y-109595190D01*
X90051049Y-110095190D02*
X90051049Y-109833286D01*
X90074858Y-109785667D01*
X90122477Y-109761857D01*
X90193906Y-109761857D01*
X90241525Y-109785667D01*
X90265334Y-109809476D01*
X89598668Y-110095190D02*
X89598668Y-109833286D01*
X89622477Y-109785667D01*
X89670096Y-109761857D01*
X89765334Y-109761857D01*
X89812953Y-109785667D01*
X89598668Y-110071381D02*
X89646287Y-110095190D01*
X89765334Y-110095190D01*
X89812953Y-110071381D01*
X89836763Y-110023762D01*
X89836763Y-109976143D01*
X89812953Y-109928524D01*
X89765334Y-109904714D01*
X89646287Y-109904714D01*
X89598668Y-109880905D01*
X89360572Y-109761857D02*
X89360572Y-110095190D01*
X89360572Y-109809476D02*
X89336763Y-109785667D01*
X89289144Y-109761857D01*
X89217715Y-109761857D01*
X89170096Y-109785667D01*
X89146287Y-109833286D01*
X89146287Y-110095190D01*
X88908191Y-110095190D02*
X88908191Y-109595190D01*
X88860572Y-109904714D02*
X88717715Y-110095190D01*
X88717715Y-109761857D02*
X88908191Y-109952333D01*
X88527239Y-110071381D02*
X88479620Y-110095190D01*
X88384382Y-110095190D01*
X88336763Y-110071381D01*
X88312953Y-110023762D01*
X88312953Y-109999952D01*
X88336763Y-109952333D01*
X88384382Y-109928524D01*
X88455810Y-109928524D01*
X88503429Y-109904714D01*
X88527239Y-109857095D01*
X88527239Y-109833286D01*
X88503429Y-109785667D01*
X88455810Y-109761857D01*
X88384382Y-109761857D01*
X88336763Y-109785667D01*
X88098667Y-110047571D02*
X88074858Y-110071381D01*
X88098667Y-110095190D01*
X88122477Y-110071381D01*
X88098667Y-110047571D01*
X88098667Y-110095190D01*
X88098667Y-109785667D02*
X88074858Y-109809476D01*
X88098667Y-109833286D01*
X88122477Y-109809476D01*
X88098667Y-109785667D01*
X88098667Y-109833286D01*
X92432000Y-110827333D02*
X92193905Y-110827333D01*
X92479619Y-110970190D02*
X92312952Y-110470190D01*
X92146286Y-110970190D01*
X91979619Y-110970190D02*
X91979619Y-110470190D01*
X91693905Y-110970190D01*
X91693905Y-110470190D01*
X91455809Y-110970190D02*
X91455809Y-110470190D01*
X91336762Y-110470190D01*
X91265333Y-110494000D01*
X91217714Y-110541619D01*
X91193905Y-110589238D01*
X91170095Y-110684476D01*
X91170095Y-110755905D01*
X91193905Y-110851143D01*
X91217714Y-110898762D01*
X91265333Y-110946381D01*
X91336762Y-110970190D01*
X91455809Y-110970190D01*
X90955809Y-110922571D02*
X90932000Y-110946381D01*
X90955809Y-110970190D01*
X90979619Y-110946381D01*
X90955809Y-110922571D01*
X90955809Y-110970190D01*
X90955809Y-110779714D02*
X90979619Y-110494000D01*
X90955809Y-110470190D01*
X90932000Y-110494000D01*
X90955809Y-110779714D01*
X90955809Y-110470190D01*
X90765333Y-110470190D02*
X90432000Y-110970190D01*
X90432000Y-110470190D02*
X90765333Y-110970190D01*
X90146286Y-110470190D02*
X90051048Y-110470190D01*
X90003429Y-110494000D01*
X89955810Y-110541619D01*
X89932001Y-110636857D01*
X89932001Y-110803524D01*
X89955810Y-110898762D01*
X90003429Y-110946381D01*
X90051048Y-110970190D01*
X90146286Y-110970190D01*
X90193905Y-110946381D01*
X90241524Y-110898762D01*
X90265334Y-110803524D01*
X90265334Y-110636857D01*
X90241524Y-110541619D01*
X90193905Y-110494000D01*
X90146286Y-110470190D01*
X89432000Y-110970190D02*
X89598667Y-110732095D01*
X89717714Y-110970190D02*
X89717714Y-110470190D01*
X89527238Y-110470190D01*
X89479619Y-110494000D01*
X89455810Y-110517810D01*
X89432000Y-110565429D01*
X89432000Y-110636857D01*
X89455810Y-110684476D01*
X89479619Y-110708286D01*
X89527238Y-110732095D01*
X89717714Y-110732095D01*
X91920095Y-111821381D02*
X91848666Y-111845190D01*
X91729619Y-111845190D01*
X91682000Y-111821381D01*
X91658190Y-111797571D01*
X91634381Y-111749952D01*
X91634381Y-111702333D01*
X91658190Y-111654714D01*
X91682000Y-111630905D01*
X91729619Y-111607095D01*
X91824857Y-111583286D01*
X91872476Y-111559476D01*
X91896285Y-111535667D01*
X91920095Y-111488048D01*
X91920095Y-111440429D01*
X91896285Y-111392810D01*
X91872476Y-111369000D01*
X91824857Y-111345190D01*
X91705809Y-111345190D01*
X91634381Y-111369000D01*
X91420095Y-111511857D02*
X91420095Y-112011857D01*
X91420095Y-111535667D02*
X91372476Y-111511857D01*
X91277238Y-111511857D01*
X91229619Y-111535667D01*
X91205810Y-111559476D01*
X91182000Y-111607095D01*
X91182000Y-111749952D01*
X91205810Y-111797571D01*
X91229619Y-111821381D01*
X91277238Y-111845190D01*
X91372476Y-111845190D01*
X91420095Y-111821381D01*
X90753429Y-111845190D02*
X90753429Y-111583286D01*
X90777238Y-111535667D01*
X90824857Y-111511857D01*
X90920095Y-111511857D01*
X90967714Y-111535667D01*
X90753429Y-111821381D02*
X90801048Y-111845190D01*
X90920095Y-111845190D01*
X90967714Y-111821381D01*
X90991524Y-111773762D01*
X90991524Y-111726143D01*
X90967714Y-111678524D01*
X90920095Y-111654714D01*
X90801048Y-111654714D01*
X90753429Y-111630905D01*
X90515333Y-111845190D02*
X90515333Y-111511857D01*
X90515333Y-111607095D02*
X90491524Y-111559476D01*
X90467714Y-111535667D01*
X90420095Y-111511857D01*
X90372476Y-111511857D01*
X90253428Y-111345190D02*
X89920095Y-111845190D01*
X89920095Y-111345190D02*
X90253428Y-111845190D01*
D14*
X105642857Y-92678571D02*
X104571428Y-92678571D01*
X105214285Y-92035714D02*
X105642857Y-93964286D01*
X104714285Y-93321429D02*
X105785714Y-93321429D01*
X105142857Y-93964286D02*
X104714285Y-92035714D01*
X104071428Y-93678571D02*
X104071428Y-92178571D01*
X104071428Y-92750000D02*
X103928571Y-92678571D01*
X103642857Y-92678571D01*
X103500000Y-92750000D01*
X103428571Y-92821429D01*
X103357142Y-92964286D01*
X103357142Y-93392857D01*
X103428571Y-93535714D01*
X103500000Y-93607143D01*
X103642857Y-93678571D01*
X103928571Y-93678571D01*
X104071428Y-93607143D01*
X102071428Y-93678571D02*
X102071428Y-92892857D01*
X102142857Y-92750000D01*
X102285714Y-92678571D01*
X102571428Y-92678571D01*
X102714285Y-92750000D01*
X102071428Y-93607143D02*
X102214285Y-93678571D01*
X102571428Y-93678571D01*
X102714285Y-93607143D01*
X102785714Y-93464286D01*
X102785714Y-93321429D01*
X102714285Y-93178571D01*
X102571428Y-93107143D01*
X102214285Y-93107143D01*
X102071428Y-93035714D01*
X100714285Y-93678571D02*
X100714285Y-92178571D01*
X100714285Y-93607143D02*
X100857142Y-93678571D01*
X101142856Y-93678571D01*
X101285714Y-93607143D01*
X101357142Y-93535714D01*
X101428571Y-93392857D01*
X101428571Y-92964286D01*
X101357142Y-92821429D01*
X101285714Y-92750000D01*
X101142856Y-92678571D01*
X100857142Y-92678571D01*
X100714285Y-92750000D01*
X99357142Y-92678571D02*
X99357142Y-93892857D01*
X99428571Y-94035714D01*
X99499999Y-94107143D01*
X99642856Y-94178571D01*
X99857142Y-94178571D01*
X99999999Y-94107143D01*
X99357142Y-93607143D02*
X99499999Y-93678571D01*
X99785713Y-93678571D01*
X99928571Y-93607143D01*
X99999999Y-93535714D01*
X100071428Y-93392857D01*
X100071428Y-92964286D01*
X99999999Y-92821429D01*
X99928571Y-92750000D01*
X99785713Y-92678571D01*
X99499999Y-92678571D01*
X99357142Y-92750000D01*
X98071428Y-93607143D02*
X98214285Y-93678571D01*
X98499999Y-93678571D01*
X98642856Y-93607143D01*
X98714285Y-93464286D01*
X98714285Y-92892857D01*
X98642856Y-92750000D01*
X98499999Y-92678571D01*
X98214285Y-92678571D01*
X98071428Y-92750000D01*
X97999999Y-92892857D01*
X97999999Y-93035714D01*
X98714285Y-93178571D01*
X97142856Y-93678571D02*
X97285714Y-93607143D01*
X97357142Y-93464286D01*
X97357142Y-92178571D01*
X96571428Y-93678571D02*
X96571428Y-92678571D01*
X96571428Y-92178571D02*
X96642857Y-92250000D01*
X96571428Y-92321429D01*
X96500000Y-92250000D01*
X96571428Y-92178571D01*
X96571428Y-92321429D01*
X96071428Y-92678571D02*
X95499999Y-92678571D01*
X95857142Y-93678571D02*
X95857142Y-92392857D01*
X95785714Y-92250000D01*
X95642856Y-92178571D01*
X95499999Y-92178571D01*
X94428571Y-93607143D02*
X94571428Y-93678571D01*
X94857142Y-93678571D01*
X94999999Y-93607143D01*
X95071428Y-93464286D01*
X95071428Y-92892857D01*
X94999999Y-92750000D01*
X94857142Y-92678571D01*
X94571428Y-92678571D01*
X94428571Y-92750000D01*
X94357142Y-92892857D01*
X94357142Y-93035714D01*
X95071428Y-93178571D01*
D15*
X91050000Y-103750000D02*
X91050000Y-97152030D01*
X91050000Y-97152030D02*
X91952030Y-96250000D01*
X91952030Y-96250000D02*
X108950000Y-96250000D01*
X108950000Y-96250000D02*
X108950000Y-103750000D01*
X108950000Y-103750000D02*
X91050000Y-103750000D01*
D10*
X91106000Y-95825000D02*
G75*
G03X91106000Y-95825000I-381000J0D01*
G01*
X103390000Y-114743333D02*
X103290000Y-114776667D01*
X103123333Y-114776667D01*
X103056666Y-114743333D01*
X103023333Y-114710000D01*
X102990000Y-114643333D01*
X102990000Y-114576667D01*
X103023333Y-114510000D01*
X103056666Y-114476667D01*
X103123333Y-114443333D01*
X103256666Y-114410000D01*
X103323333Y-114376667D01*
X103356666Y-114343333D01*
X103390000Y-114276667D01*
X103390000Y-114210000D01*
X103356666Y-114143333D01*
X103323333Y-114110000D01*
X103256666Y-114076667D01*
X103090000Y-114076667D01*
X102990000Y-114110000D01*
X102689999Y-114776667D02*
X102689999Y-114076667D01*
X102523333Y-114076667D01*
X102423333Y-114110000D01*
X102356666Y-114176667D01*
X102323333Y-114243333D01*
X102289999Y-114376667D01*
X102289999Y-114476667D01*
X102323333Y-114610000D01*
X102356666Y-114676667D01*
X102423333Y-114743333D01*
X102523333Y-114776667D01*
X102689999Y-114776667D01*
X102023333Y-114576667D02*
X101689999Y-114576667D01*
X102089999Y-114776667D02*
X101856666Y-114076667D01*
X101623333Y-114776667D01*
X103373334Y-119823333D02*
X103273334Y-119856667D01*
X103106667Y-119856667D01*
X103040000Y-119823333D01*
X103006667Y-119790000D01*
X102973334Y-119723333D01*
X102973334Y-119656667D01*
X103006667Y-119590000D01*
X103040000Y-119556667D01*
X103106667Y-119523333D01*
X103240000Y-119490000D01*
X103306667Y-119456667D01*
X103340000Y-119423333D01*
X103373334Y-119356667D01*
X103373334Y-119290000D01*
X103340000Y-119223333D01*
X103306667Y-119190000D01*
X103240000Y-119156667D01*
X103073334Y-119156667D01*
X102973334Y-119190000D01*
X102273333Y-119790000D02*
X102306667Y-119823333D01*
X102406667Y-119856667D01*
X102473333Y-119856667D01*
X102573333Y-119823333D01*
X102640000Y-119756667D01*
X102673333Y-119690000D01*
X102706667Y-119556667D01*
X102706667Y-119456667D01*
X102673333Y-119323333D01*
X102640000Y-119256667D01*
X102573333Y-119190000D01*
X102473333Y-119156667D01*
X102406667Y-119156667D01*
X102306667Y-119190000D01*
X102273333Y-119223333D01*
X101640000Y-119856667D02*
X101973333Y-119856667D01*
X101973333Y-119156667D01*
X97993333Y-119190000D02*
X98059999Y-119156667D01*
X98159999Y-119156667D01*
X98259999Y-119190000D01*
X98326666Y-119256667D01*
X98359999Y-119323333D01*
X98393333Y-119456667D01*
X98393333Y-119556667D01*
X98359999Y-119690000D01*
X98326666Y-119756667D01*
X98259999Y-119823333D01*
X98159999Y-119856667D01*
X98093333Y-119856667D01*
X97993333Y-119823333D01*
X97959999Y-119790000D01*
X97959999Y-119556667D01*
X98093333Y-119556667D01*
X97659999Y-119856667D02*
X97659999Y-119156667D01*
X97259999Y-119856667D01*
X97259999Y-119156667D01*
X96926666Y-119856667D02*
X96926666Y-119156667D01*
X96760000Y-119156667D01*
X96660000Y-119190000D01*
X96593333Y-119256667D01*
X96560000Y-119323333D01*
X96526666Y-119456667D01*
X96526666Y-119556667D01*
X96560000Y-119690000D01*
X96593333Y-119756667D01*
X96660000Y-119823333D01*
X96760000Y-119856667D01*
X96926666Y-119856667D01*
X98393333Y-114076667D02*
X98160000Y-114776667D01*
X97926667Y-114076667D01*
X97293333Y-114710000D02*
X97326667Y-114743333D01*
X97426667Y-114776667D01*
X97493333Y-114776667D01*
X97593333Y-114743333D01*
X97660000Y-114676667D01*
X97693333Y-114610000D01*
X97726667Y-114476667D01*
X97726667Y-114376667D01*
X97693333Y-114243333D01*
X97660000Y-114176667D01*
X97593333Y-114110000D01*
X97493333Y-114076667D01*
X97426667Y-114076667D01*
X97326667Y-114110000D01*
X97293333Y-114143333D01*
X96593333Y-114710000D02*
X96626667Y-114743333D01*
X96726667Y-114776667D01*
X96793333Y-114776667D01*
X96893333Y-114743333D01*
X96960000Y-114676667D01*
X96993333Y-114610000D01*
X97026667Y-114476667D01*
X97026667Y-114376667D01*
X96993333Y-114243333D01*
X96960000Y-114176667D01*
X96893333Y-114110000D01*
X96793333Y-114076667D01*
X96726667Y-114076667D01*
X96626667Y-114110000D01*
X96593333Y-114143333D01*
%LPC*%
D16*
G36*
X91040338Y-106516312D02*
X91156059Y-106702492D01*
X91219938Y-106920135D01*
X91227639Y-107141294D01*
X91174831Y-107338025D01*
X91169433Y-107348852D01*
X91127794Y-107444266D01*
X91082369Y-107569816D01*
X91040332Y-107701968D01*
X91008856Y-107817185D01*
X90995116Y-107891932D01*
X90999111Y-107907667D01*
X91027823Y-107873687D01*
X91044917Y-107833583D01*
X91073251Y-107756380D01*
X91121276Y-107629879D01*
X91169908Y-107503880D01*
X91258119Y-107190680D01*
X91270724Y-106902657D01*
X91231005Y-106709262D01*
X91201111Y-106589902D01*
X91211335Y-106515460D01*
X91228868Y-106488856D01*
X91233117Y-106476149D01*
X90953167Y-106416125D01*
X91040338Y-106516312D01*
X91040338Y-106516312D01*
G37*
X91040338Y-106516312D02*
X91156059Y-106702492D01*
X91219938Y-106920135D01*
X91227639Y-107141294D01*
X91174831Y-107338025D01*
X91169433Y-107348852D01*
X91127794Y-107444266D01*
X91082369Y-107569816D01*
X91040332Y-107701968D01*
X91008856Y-107817185D01*
X90995116Y-107891932D01*
X90999111Y-107907667D01*
X91027823Y-107873687D01*
X91044917Y-107833583D01*
X91073251Y-107756380D01*
X91121276Y-107629879D01*
X91169908Y-107503880D01*
X91258119Y-107190680D01*
X91270724Y-106902657D01*
X91231005Y-106709262D01*
X91201111Y-106589902D01*
X91211335Y-106515460D01*
X91228868Y-106488856D01*
X91233117Y-106476149D01*
X90953167Y-106416125D01*
X91040338Y-106516312D01*
G36*
X86417371Y-99971984D02*
X86193706Y-100010984D01*
X85966103Y-100080137D01*
X85721151Y-100184100D01*
X85445443Y-100327534D01*
X85125569Y-100515095D01*
X84872375Y-100672500D01*
X84573221Y-100856650D01*
X84331573Y-100994225D01*
X84137884Y-101090340D01*
X83982604Y-101150112D01*
X83978750Y-101151302D01*
X83912730Y-101197405D01*
X83918311Y-101260058D01*
X83989859Y-101321127D01*
X84037984Y-101341859D01*
X84154986Y-101367585D01*
X84314596Y-101384462D01*
X84427976Y-101388333D01*
X84684651Y-101388333D01*
X84485159Y-101590871D01*
X84354468Y-101735551D01*
X84293921Y-101833092D01*
X84303458Y-101883681D01*
X84383019Y-101887506D01*
X84391500Y-101885972D01*
X84478868Y-101876256D01*
X84487352Y-101892181D01*
X84416953Y-101928635D01*
X84391500Y-101938667D01*
X84312600Y-101992138D01*
X84285667Y-102048912D01*
X84294383Y-102081611D01*
X84330993Y-102099538D01*
X84411192Y-102104350D01*
X84550675Y-102097704D01*
X84666667Y-102089115D01*
X84834147Y-102078305D01*
X84964116Y-102074275D01*
X85037798Y-102077394D01*
X85047667Y-102081674D01*
X85010253Y-102115368D01*
X84909647Y-102167505D01*
X84763301Y-102230742D01*
X84588669Y-102297737D01*
X84403202Y-102361148D01*
X84328000Y-102384430D01*
X84167432Y-102439431D01*
X84051982Y-102492904D01*
X83999414Y-102536466D01*
X83998280Y-102540050D01*
X84026944Y-102595858D01*
X84119964Y-102667623D01*
X84260848Y-102746157D01*
X84433104Y-102822276D01*
X84620240Y-102886792D01*
X84621434Y-102887143D01*
X84816423Y-102925655D01*
X85062009Y-102947470D01*
X85325657Y-102951948D01*
X85574833Y-102938451D01*
X85763489Y-102909571D01*
X85878200Y-102887891D01*
X85957271Y-102891895D01*
X86005195Y-102932461D01*
X86026462Y-103020467D01*
X86025566Y-103166793D01*
X86006997Y-103382317D01*
X85997206Y-103475622D01*
X85986493Y-103626131D01*
X85999226Y-103730977D01*
X86043019Y-103827673D01*
X86080809Y-103887511D01*
X86175957Y-104094405D01*
X86233293Y-104353733D01*
X86268262Y-104568684D01*
X86309766Y-104775241D01*
X86353640Y-104957160D01*
X86395722Y-105098198D01*
X86431846Y-105182110D01*
X86449813Y-105198333D01*
X86480404Y-105233702D01*
X86487000Y-105279986D01*
X86514733Y-105356413D01*
X86585488Y-105460947D01*
X86637966Y-105521708D01*
X86788932Y-105681779D01*
X86690883Y-105852806D01*
X86648853Y-105934344D01*
X86620795Y-106017665D01*
X86603958Y-106122134D01*
X86595587Y-106267114D01*
X86592929Y-106471967D01*
X86592833Y-106542417D01*
X86590641Y-106777137D01*
X86581737Y-106935273D01*
X86562627Y-107024848D01*
X86529820Y-107053882D01*
X86479824Y-107030398D01*
X86409713Y-106963021D01*
X86340872Y-106850047D01*
X86317825Y-106693138D01*
X86317667Y-106674976D01*
X86294370Y-106500428D01*
X86216027Y-106326056D01*
X86191599Y-106286121D01*
X86112950Y-106170937D01*
X86048108Y-106111609D01*
X85969897Y-106089904D01*
X85895266Y-106087333D01*
X85779973Y-106086604D01*
X85703844Y-106084791D01*
X85694308Y-106084158D01*
X85654494Y-106113771D01*
X85647352Y-106129779D01*
X85664658Y-106157999D01*
X85750286Y-106159217D01*
X85815784Y-106150877D01*
X85940805Y-106139747D01*
X86020324Y-106160506D01*
X86089710Y-106221673D01*
X86200121Y-106399562D01*
X86263522Y-106626260D01*
X86275333Y-106781967D01*
X86288103Y-106910799D01*
X86334751Y-106988282D01*
X86370583Y-107014825D01*
X86440183Y-107066030D01*
X86555727Y-107159644D01*
X86700127Y-107281548D01*
X86831162Y-107395425D01*
X87196491Y-107717167D01*
X86974106Y-107742762D01*
X86825412Y-107770903D01*
X86697386Y-107813683D01*
X86652274Y-107838012D01*
X86596582Y-107888050D01*
X86609779Y-107905993D01*
X86681714Y-107890095D01*
X86763312Y-107857109D01*
X86866751Y-107827724D01*
X86952593Y-107855479D01*
X86955229Y-107857109D01*
X87040865Y-107886099D01*
X87165898Y-107902751D01*
X87300330Y-107906385D01*
X87414164Y-107896325D01*
X87477403Y-107871894D01*
X87479599Y-107868949D01*
X87463946Y-107828161D01*
X87403855Y-107794866D01*
X87330225Y-107751598D01*
X87214595Y-107664539D01*
X87076027Y-107548547D01*
X86996388Y-107477291D01*
X86843524Y-107330123D01*
X86738269Y-107203301D01*
X86671749Y-107074760D01*
X86635087Y-106922438D01*
X86619409Y-106724271D01*
X86616080Y-106531833D01*
X86633247Y-106224332D01*
X86689051Y-105988912D01*
X86776048Y-105831818D01*
X86823782Y-105780773D01*
X86875855Y-105759617D01*
X86958488Y-105765118D01*
X87092493Y-105792834D01*
X87333667Y-105846806D01*
X87333667Y-106006647D01*
X87371008Y-106255595D01*
X87481823Y-106464873D01*
X87516403Y-106505668D01*
X87616493Y-106588636D01*
X87751736Y-106669782D01*
X87890115Y-106732596D01*
X87999616Y-106760564D01*
X88011000Y-106760754D01*
X88016472Y-106747417D01*
X87955973Y-106716199D01*
X87913928Y-106699769D01*
X87672693Y-106574957D01*
X87501531Y-106404534D01*
X87402332Y-106191027D01*
X87376000Y-105980643D01*
X87382681Y-105881710D01*
X87420057Y-105841287D01*
X87514123Y-105833345D01*
X87523144Y-105833333D01*
X87661898Y-105856444D01*
X87800020Y-105912603D01*
X87808894Y-105917842D01*
X87922466Y-105973848D01*
X88020779Y-106001287D01*
X88032167Y-106001860D01*
X88087200Y-105994900D01*
X88063990Y-105968097D01*
X88054520Y-105961962D01*
X88018850Y-105927061D01*
X88058778Y-105899268D01*
X88075687Y-105893036D01*
X88402364Y-105772119D01*
X88668742Y-105662139D01*
X88866541Y-105566665D01*
X88953666Y-105514586D01*
X89084313Y-105444324D01*
X89167063Y-105436097D01*
X89198674Y-105480008D01*
X89175904Y-105566160D01*
X89095509Y-105684654D01*
X89031981Y-105753647D01*
X88939181Y-105852301D01*
X88899296Y-105906999D01*
X88913779Y-105912156D01*
X88984087Y-105862186D01*
X89009037Y-105841698D01*
X89148451Y-105691042D01*
X89218229Y-105535936D01*
X89219236Y-105417903D01*
X89213331Y-105320599D01*
X89262175Y-105252312D01*
X89305351Y-105221307D01*
X89397004Y-105173814D01*
X89472786Y-105179601D01*
X89522859Y-105203164D01*
X89647025Y-105313729D01*
X89734094Y-105478124D01*
X89778886Y-105671755D01*
X89776220Y-105870031D01*
X89720916Y-106048360D01*
X89706363Y-106074175D01*
X89520728Y-106305960D01*
X89273706Y-106507305D01*
X88987029Y-106663891D01*
X88682430Y-106761399D01*
X88655294Y-106766711D01*
X88455500Y-106803702D01*
X88650508Y-106790069D01*
X88868969Y-106746151D01*
X89101392Y-106651730D01*
X89328599Y-106519795D01*
X89531416Y-106363334D01*
X89690665Y-106195337D01*
X89787172Y-106028792D01*
X89791089Y-106017504D01*
X89819401Y-105856224D01*
X89818208Y-105666866D01*
X89789177Y-105494650D01*
X89769809Y-105439937D01*
X89755856Y-105398221D01*
X89774990Y-105386697D01*
X89843431Y-105405734D01*
X89946508Y-105443945D01*
X90202327Y-105567153D01*
X90477947Y-105743885D01*
X90748562Y-105955704D01*
X90989365Y-106184171D01*
X91081309Y-106287403D01*
X91234821Y-106471053D01*
X91241305Y-106451661D01*
X91219592Y-106397505D01*
X91155767Y-106315446D01*
X91041869Y-106194540D01*
X90942414Y-106095072D01*
X90629626Y-105814630D01*
X90318108Y-105589913D01*
X90021441Y-105430287D01*
X89920827Y-105390536D01*
X89769296Y-105321005D01*
X89623573Y-105230140D01*
X89604818Y-105215758D01*
X89462640Y-105102312D01*
X89572450Y-104906906D01*
X89639545Y-104764617D01*
X89673185Y-104620241D01*
X89682706Y-104433421D01*
X89682713Y-104430194D01*
X89689315Y-104258871D01*
X89712236Y-104146406D01*
X89757160Y-104067660D01*
X89767370Y-104055846D01*
X89820141Y-103949327D01*
X89847623Y-103795739D01*
X89848768Y-103673073D01*
X89792323Y-103673073D01*
X89780141Y-103842907D01*
X89724134Y-103979250D01*
X89706200Y-104001244D01*
X89571386Y-104094714D01*
X89416499Y-104124807D01*
X89270589Y-104086660D01*
X89254440Y-104076859D01*
X89172639Y-104033511D01*
X89125547Y-104027360D01*
X89125226Y-104027662D01*
X89137611Y-104060532D01*
X89207170Y-104102961D01*
X89308848Y-104144340D01*
X89417590Y-104174064D01*
X89490565Y-104182333D01*
X89619667Y-104182333D01*
X89619667Y-104444134D01*
X89588941Y-104723413D01*
X89492757Y-104954645D01*
X89325103Y-105150068D01*
X89238903Y-105219326D01*
X89056188Y-105343280D01*
X88869559Y-105445837D01*
X88663367Y-105532596D01*
X88421963Y-105609156D01*
X88129698Y-105681116D01*
X87770922Y-105754075D01*
X87714667Y-105764655D01*
X87592628Y-105776048D01*
X87437993Y-105775440D01*
X87277285Y-105764897D01*
X87137026Y-105746487D01*
X87043739Y-105722278D01*
X87024961Y-105710894D01*
X86943368Y-105669134D01*
X86905166Y-105664000D01*
X86834417Y-105631531D01*
X86741004Y-105549844D01*
X86645495Y-105442523D01*
X86568453Y-105333148D01*
X86530445Y-105245301D01*
X86529333Y-105233047D01*
X86511638Y-105168482D01*
X86490527Y-105156000D01*
X86463826Y-105117630D01*
X86427733Y-105015968D01*
X86387077Y-104871185D01*
X86346687Y-104703453D01*
X86311392Y-104532945D01*
X86286020Y-104379831D01*
X86275401Y-104264284D01*
X86275333Y-104257047D01*
X86281693Y-104159217D01*
X86312247Y-104124154D01*
X86377395Y-104128918D01*
X86488897Y-104127618D01*
X86555084Y-104106105D01*
X86665984Y-104086385D01*
X86728189Y-104100843D01*
X86808146Y-104123925D01*
X86818166Y-104110357D01*
X86760435Y-104067836D01*
X86710980Y-104040280D01*
X86596294Y-103980190D01*
X86742730Y-103886257D01*
X86816508Y-103834567D01*
X86834018Y-103812296D01*
X86820215Y-103814698D01*
X86772185Y-103810676D01*
X86742717Y-103748607D01*
X86740302Y-103734808D01*
X86696887Y-103734808D01*
X86689540Y-103829710D01*
X86665014Y-103882965D01*
X86655286Y-103886000D01*
X86609784Y-103921043D01*
X86571667Y-103991833D01*
X86515917Y-104075566D01*
X86428660Y-104092780D01*
X86308300Y-104053007D01*
X86216608Y-103986588D01*
X86127991Y-103884528D01*
X86060606Y-103773459D01*
X86032607Y-103680014D01*
X86036309Y-103654034D01*
X86084539Y-103611462D01*
X86164667Y-103591104D01*
X86240363Y-103596308D01*
X86275295Y-103630423D01*
X86275333Y-103632000D01*
X86309622Y-103669557D01*
X86338833Y-103674333D01*
X86395162Y-103650994D01*
X86402333Y-103631092D01*
X86436713Y-103583964D01*
X86511198Y-103538249D01*
X86597799Y-103510266D01*
X86647148Y-103533567D01*
X86658717Y-103549740D01*
X86686723Y-103630679D01*
X86696887Y-103734808D01*
X86740302Y-103734808D01*
X86728525Y-103667539D01*
X86709055Y-103555222D01*
X86688523Y-103483954D01*
X86683367Y-103475589D01*
X86633462Y-103471066D01*
X86524028Y-103480674D01*
X86378634Y-103502335D01*
X86376867Y-103502642D01*
X86218257Y-103526766D01*
X86123024Y-103530440D01*
X86072302Y-103513318D01*
X86057707Y-103496806D01*
X86030035Y-103442232D01*
X86038578Y-103398061D01*
X86095540Y-103346322D01*
X86211833Y-103269863D01*
X86318345Y-103197645D01*
X86387485Y-103141375D01*
X86402333Y-103121012D01*
X86440169Y-103099505D01*
X86464869Y-103093598D01*
X86375818Y-103093598D01*
X86259715Y-103193465D01*
X86157137Y-103268440D01*
X86091025Y-103290269D01*
X86071885Y-103257024D01*
X86080304Y-103226371D01*
X86103432Y-103136293D01*
X86106000Y-103106703D01*
X86143157Y-103071329D01*
X86240909Y-103073797D01*
X86375818Y-103093598D01*
X86464869Y-103093598D01*
X86536547Y-103076457D01*
X86605224Y-103065660D01*
X86868791Y-103000768D01*
X87137305Y-102882366D01*
X87392626Y-102723365D01*
X87616611Y-102536674D01*
X87791117Y-102335204D01*
X87891466Y-102150333D01*
X87962432Y-101959833D01*
X87965550Y-102111523D01*
X87958662Y-102241001D01*
X87937634Y-102406272D01*
X87920287Y-102504115D01*
X87897743Y-102637447D01*
X87889302Y-102734031D01*
X87894125Y-102767236D01*
X87961807Y-102779242D01*
X88072561Y-102739740D01*
X88209453Y-102656950D01*
X88345910Y-102547838D01*
X88447443Y-102458107D01*
X88515119Y-102413691D01*
X88559612Y-102422640D01*
X88591598Y-102492998D01*
X88621753Y-102632815D01*
X88647250Y-102774984D01*
X88675932Y-102919760D01*
X88701780Y-103021997D01*
X88719886Y-103062801D01*
X88721867Y-103062244D01*
X88723131Y-103014641D01*
X88709763Y-102903967D01*
X88684416Y-102750037D01*
X88669193Y-102668764D01*
X88635484Y-102488233D01*
X88619245Y-102363292D01*
X88621098Y-102266556D01*
X88641665Y-102170641D01*
X88681566Y-102048163D01*
X88683396Y-102042837D01*
X88730339Y-101908906D01*
X88756437Y-101848598D01*
X88767987Y-101855335D01*
X88771285Y-101922543D01*
X88771582Y-101950739D01*
X88776884Y-102052439D01*
X88798527Y-102086619D01*
X88848863Y-102070333D01*
X88855619Y-102066763D01*
X88921759Y-102010690D01*
X89014315Y-101907075D01*
X89108762Y-101784412D01*
X89206211Y-101659487D01*
X89271995Y-101599573D01*
X89299877Y-101604888D01*
X89314253Y-101664504D01*
X89340945Y-101792211D01*
X89376915Y-101972838D01*
X89419127Y-102191215D01*
X89451435Y-102362000D01*
X89496553Y-102600057D01*
X89537839Y-102813137D01*
X89572170Y-102985484D01*
X89596422Y-103101339D01*
X89605717Y-103140348D01*
X89610756Y-103194875D01*
X89565465Y-103202567D01*
X89516890Y-103192050D01*
X89370493Y-103193973D01*
X89222036Y-103255740D01*
X89104744Y-103360231D01*
X89068103Y-103423303D01*
X89002332Y-103517968D01*
X88922582Y-103554918D01*
X88851994Y-103533465D01*
X88813704Y-103452921D01*
X88811991Y-103430917D01*
X88803350Y-103365195D01*
X88787139Y-103368144D01*
X88786691Y-103369233D01*
X88778955Y-103451503D01*
X88789324Y-103521943D01*
X88827892Y-103593755D01*
X88910987Y-103615648D01*
X88941528Y-103615377D01*
X89039530Y-103594707D01*
X89069237Y-103539110D01*
X89095545Y-103460367D01*
X89159751Y-103362621D01*
X89169681Y-103350727D01*
X89302376Y-103252516D01*
X89452811Y-103228312D01*
X89598737Y-103277764D01*
X89688657Y-103358950D01*
X89761542Y-103501253D01*
X89792323Y-103673073D01*
X89848768Y-103673073D01*
X89849191Y-103627871D01*
X89824219Y-103478513D01*
X89780085Y-103388764D01*
X89756758Y-103361286D01*
X89737123Y-103331713D01*
X89718550Y-103289625D01*
X89698407Y-103224602D01*
X89674065Y-103126224D01*
X89642891Y-102984071D01*
X89602254Y-102787724D01*
X89549525Y-102526762D01*
X89499448Y-102277333D01*
X89457057Y-102069262D01*
X89415371Y-101870029D01*
X89380387Y-101708047D01*
X89364845Y-101639440D01*
X89342398Y-101387987D01*
X89358573Y-101271929D01*
X89372432Y-101065461D01*
X89306069Y-101065461D01*
X89300044Y-101199714D01*
X89265372Y-101340555D01*
X89220496Y-101460721D01*
X89157564Y-101590580D01*
X89084865Y-101718394D01*
X89010688Y-101832425D01*
X88943323Y-101920936D01*
X88891059Y-101972189D01*
X88862184Y-101974445D01*
X88864989Y-101915969D01*
X88868202Y-101902953D01*
X88872460Y-101832004D01*
X88853704Y-101811667D01*
X88828166Y-101774485D01*
X88815603Y-101683256D01*
X88815333Y-101665998D01*
X88804116Y-101560554D01*
X88776735Y-101497041D01*
X88773000Y-101494167D01*
X88743260Y-101510982D01*
X88730720Y-101594155D01*
X88730667Y-101601569D01*
X88704887Y-101812057D01*
X88634501Y-102030946D01*
X88529937Y-102242448D01*
X88401625Y-102430774D01*
X88259993Y-102580134D01*
X88115472Y-102674738D01*
X88004875Y-102700388D01*
X87962130Y-102687884D01*
X87954339Y-102635389D01*
X87972115Y-102541917D01*
X87992983Y-102397878D01*
X88003381Y-102211210D01*
X88003430Y-102012336D01*
X87993254Y-101831678D01*
X87972974Y-101699659D01*
X87968667Y-101684667D01*
X87947218Y-101628532D01*
X87936230Y-101641045D01*
X87931229Y-101729701D01*
X87930763Y-101748167D01*
X87887773Y-102016747D01*
X87780512Y-102277122D01*
X87622948Y-102496202D01*
X87608833Y-102510708D01*
X87434682Y-102655064D01*
X87223588Y-102783214D01*
X86991493Y-102890317D01*
X86754337Y-102971531D01*
X86528064Y-103022015D01*
X86328614Y-103036929D01*
X86171929Y-103011431D01*
X86098750Y-102969272D01*
X86030773Y-102888801D01*
X86039854Y-102841205D01*
X86111184Y-102827667D01*
X86172868Y-102835884D01*
X86162714Y-102875059D01*
X86142934Y-102901373D01*
X86139294Y-102916567D01*
X86185179Y-102886242D01*
X86267231Y-102821575D01*
X86285228Y-102806500D01*
X86233000Y-102806500D01*
X86211833Y-102827667D01*
X86190667Y-102806500D01*
X86211833Y-102785333D01*
X86233000Y-102806500D01*
X86285228Y-102806500D01*
X86372091Y-102733743D01*
X86486404Y-102633922D01*
X86596810Y-102533290D01*
X86686359Y-102446667D01*
X86799448Y-102311973D01*
X86904251Y-102155134D01*
X86930172Y-102108000D01*
X86981207Y-101988426D01*
X87031313Y-101839060D01*
X87074614Y-101682843D01*
X87105233Y-101542714D01*
X87117295Y-101441613D01*
X87110294Y-101404849D01*
X87093168Y-101432500D01*
X87067035Y-101523443D01*
X87039161Y-101650212D01*
X86934178Y-101996570D01*
X86767761Y-102291986D01*
X86544517Y-102530001D01*
X86296500Y-102690952D01*
X86001653Y-102802270D01*
X85660499Y-102874717D01*
X85301371Y-102905973D01*
X84952602Y-102893719D01*
X84642528Y-102835637D01*
X84618209Y-102828308D01*
X84449664Y-102768414D01*
X84295089Y-102700805D01*
X84168690Y-102633570D01*
X84084674Y-102574796D01*
X84057246Y-102532569D01*
X84074000Y-102518500D01*
X84146817Y-102497189D01*
X84271275Y-102460835D01*
X84391500Y-102425751D01*
X84594587Y-102355634D01*
X84814801Y-102262127D01*
X85026257Y-102157808D01*
X85203071Y-102055258D01*
X85217831Y-102044500D01*
X85132333Y-102044500D01*
X85111167Y-102065667D01*
X85090000Y-102044500D01*
X85111167Y-102023333D01*
X85132333Y-102044500D01*
X85217831Y-102044500D01*
X85301667Y-101983396D01*
X85364644Y-101925943D01*
X85364004Y-101914680D01*
X85316772Y-101935346D01*
X85236466Y-101959003D01*
X85098974Y-101985551D01*
X84927540Y-102012013D01*
X84745407Y-102035417D01*
X84575817Y-102052788D01*
X84442013Y-102061153D01*
X84367238Y-102057536D01*
X84365642Y-102057047D01*
X84372358Y-102029891D01*
X84439653Y-101975117D01*
X84553100Y-101904386D01*
X84557825Y-101901710D01*
X84690578Y-101820994D01*
X84764456Y-101764001D01*
X84775433Y-101736136D01*
X84719483Y-101742803D01*
X84661955Y-101761950D01*
X84506226Y-101816366D01*
X84413689Y-101837817D01*
X84384002Y-101821131D01*
X84416821Y-101761138D01*
X84511803Y-101652666D01*
X84645500Y-101514057D01*
X84826984Y-101337420D01*
X85032947Y-101149848D01*
X85231034Y-100980351D01*
X85321208Y-100908196D01*
X85516706Y-100756131D01*
X85648614Y-100651248D01*
X85721058Y-100589903D01*
X85738161Y-100568452D01*
X85704049Y-100583251D01*
X85661500Y-100607551D01*
X85533701Y-100691767D01*
X85365372Y-100815000D01*
X85179123Y-100959854D01*
X84997560Y-101108934D01*
X84899500Y-101193864D01*
X84799507Y-101276487D01*
X84714021Y-101321521D01*
X84609983Y-101340080D01*
X84455000Y-101343278D01*
X84288379Y-101333908D01*
X84137358Y-101310730D01*
X84052833Y-101285662D01*
X83971885Y-101245521D01*
X83962186Y-101220581D01*
X84010500Y-101197198D01*
X84186854Y-101125630D01*
X84359689Y-101043197D01*
X84549594Y-100938930D01*
X84777160Y-100801864D01*
X84914709Y-100715573D01*
X85288361Y-100486018D01*
X85608649Y-100306401D01*
X85887221Y-100172418D01*
X86135722Y-100079766D01*
X86365800Y-100024141D01*
X86589100Y-100001241D01*
X86817271Y-100006760D01*
X86830204Y-100007804D01*
X87212513Y-100062294D01*
X87523886Y-100156741D01*
X87737516Y-100270375D01*
X87840751Y-100335867D01*
X87911123Y-100357028D01*
X87984558Y-100338883D01*
X88041493Y-100312911D01*
X88056038Y-100308833D01*
X87926333Y-100308833D01*
X87905167Y-100330000D01*
X87884000Y-100308833D01*
X87905167Y-100287667D01*
X87926333Y-100308833D01*
X88056038Y-100308833D01*
X88256669Y-100252584D01*
X88501891Y-100252724D01*
X88749445Y-100311896D01*
X88849066Y-100354809D01*
X89037412Y-100470856D01*
X89164294Y-100610562D01*
X89248543Y-100798170D01*
X89278177Y-100907273D01*
X89306069Y-101065461D01*
X89372432Y-101065461D01*
X89375539Y-101019175D01*
X89321640Y-100767250D01*
X89204578Y-100541758D01*
X89104528Y-100427270D01*
X88911146Y-100298380D01*
X88668537Y-100214599D01*
X88402312Y-100181443D01*
X88138079Y-100204422D01*
X88104508Y-100211992D01*
X88001693Y-100231678D01*
X87912613Y-100229145D01*
X87808968Y-100199084D01*
X87662456Y-100136191D01*
X87636425Y-100124240D01*
X87482879Y-100059296D01*
X87341094Y-100016225D01*
X87181609Y-99988632D01*
X86974962Y-99970121D01*
X86906522Y-99965807D01*
X86650506Y-99958478D01*
X86417371Y-99971984D01*
X86417371Y-99971984D01*
G37*
X86417371Y-99971984D02*
X86193706Y-100010984D01*
X85966103Y-100080137D01*
X85721151Y-100184100D01*
X85445443Y-100327534D01*
X85125569Y-100515095D01*
X84872375Y-100672500D01*
X84573221Y-100856650D01*
X84331573Y-100994225D01*
X84137884Y-101090340D01*
X83982604Y-101150112D01*
X83978750Y-101151302D01*
X83912730Y-101197405D01*
X83918311Y-101260058D01*
X83989859Y-101321127D01*
X84037984Y-101341859D01*
X84154986Y-101367585D01*
X84314596Y-101384462D01*
X84427976Y-101388333D01*
X84684651Y-101388333D01*
X84485159Y-101590871D01*
X84354468Y-101735551D01*
X84293921Y-101833092D01*
X84303458Y-101883681D01*
X84383019Y-101887506D01*
X84391500Y-101885972D01*
X84478868Y-101876256D01*
X84487352Y-101892181D01*
X84416953Y-101928635D01*
X84391500Y-101938667D01*
X84312600Y-101992138D01*
X84285667Y-102048912D01*
X84294383Y-102081611D01*
X84330993Y-102099538D01*
X84411192Y-102104350D01*
X84550675Y-102097704D01*
X84666667Y-102089115D01*
X84834147Y-102078305D01*
X84964116Y-102074275D01*
X85037798Y-102077394D01*
X85047667Y-102081674D01*
X85010253Y-102115368D01*
X84909647Y-102167505D01*
X84763301Y-102230742D01*
X84588669Y-102297737D01*
X84403202Y-102361148D01*
X84328000Y-102384430D01*
X84167432Y-102439431D01*
X84051982Y-102492904D01*
X83999414Y-102536466D01*
X83998280Y-102540050D01*
X84026944Y-102595858D01*
X84119964Y-102667623D01*
X84260848Y-102746157D01*
X84433104Y-102822276D01*
X84620240Y-102886792D01*
X84621434Y-102887143D01*
X84816423Y-102925655D01*
X85062009Y-102947470D01*
X85325657Y-102951948D01*
X85574833Y-102938451D01*
X85763489Y-102909571D01*
X85878200Y-102887891D01*
X85957271Y-102891895D01*
X86005195Y-102932461D01*
X86026462Y-103020467D01*
X86025566Y-103166793D01*
X86006997Y-103382317D01*
X85997206Y-103475622D01*
X85986493Y-103626131D01*
X85999226Y-103730977D01*
X86043019Y-103827673D01*
X86080809Y-103887511D01*
X86175957Y-104094405D01*
X86233293Y-104353733D01*
X86268262Y-104568684D01*
X86309766Y-104775241D01*
X86353640Y-104957160D01*
X86395722Y-105098198D01*
X86431846Y-105182110D01*
X86449813Y-105198333D01*
X86480404Y-105233702D01*
X86487000Y-105279986D01*
X86514733Y-105356413D01*
X86585488Y-105460947D01*
X86637966Y-105521708D01*
X86788932Y-105681779D01*
X86690883Y-105852806D01*
X86648853Y-105934344D01*
X86620795Y-106017665D01*
X86603958Y-106122134D01*
X86595587Y-106267114D01*
X86592929Y-106471967D01*
X86592833Y-106542417D01*
X86590641Y-106777137D01*
X86581737Y-106935273D01*
X86562627Y-107024848D01*
X86529820Y-107053882D01*
X86479824Y-107030398D01*
X86409713Y-106963021D01*
X86340872Y-106850047D01*
X86317825Y-106693138D01*
X86317667Y-106674976D01*
X86294370Y-106500428D01*
X86216027Y-106326056D01*
X86191599Y-106286121D01*
X86112950Y-106170937D01*
X86048108Y-106111609D01*
X85969897Y-106089904D01*
X85895266Y-106087333D01*
X85779973Y-106086604D01*
X85703844Y-106084791D01*
X85694308Y-106084158D01*
X85654494Y-106113771D01*
X85647352Y-106129779D01*
X85664658Y-106157999D01*
X85750286Y-106159217D01*
X85815784Y-106150877D01*
X85940805Y-106139747D01*
X86020324Y-106160506D01*
X86089710Y-106221673D01*
X86200121Y-106399562D01*
X86263522Y-106626260D01*
X86275333Y-106781967D01*
X86288103Y-106910799D01*
X86334751Y-106988282D01*
X86370583Y-107014825D01*
X86440183Y-107066030D01*
X86555727Y-107159644D01*
X86700127Y-107281548D01*
X86831162Y-107395425D01*
X87196491Y-107717167D01*
X86974106Y-107742762D01*
X86825412Y-107770903D01*
X86697386Y-107813683D01*
X86652274Y-107838012D01*
X86596582Y-107888050D01*
X86609779Y-107905993D01*
X86681714Y-107890095D01*
X86763312Y-107857109D01*
X86866751Y-107827724D01*
X86952593Y-107855479D01*
X86955229Y-107857109D01*
X87040865Y-107886099D01*
X87165898Y-107902751D01*
X87300330Y-107906385D01*
X87414164Y-107896325D01*
X87477403Y-107871894D01*
X87479599Y-107868949D01*
X87463946Y-107828161D01*
X87403855Y-107794866D01*
X87330225Y-107751598D01*
X87214595Y-107664539D01*
X87076027Y-107548547D01*
X86996388Y-107477291D01*
X86843524Y-107330123D01*
X86738269Y-107203301D01*
X86671749Y-107074760D01*
X86635087Y-106922438D01*
X86619409Y-106724271D01*
X86616080Y-106531833D01*
X86633247Y-106224332D01*
X86689051Y-105988912D01*
X86776048Y-105831818D01*
X86823782Y-105780773D01*
X86875855Y-105759617D01*
X86958488Y-105765118D01*
X87092493Y-105792834D01*
X87333667Y-105846806D01*
X87333667Y-106006647D01*
X87371008Y-106255595D01*
X87481823Y-106464873D01*
X87516403Y-106505668D01*
X87616493Y-106588636D01*
X87751736Y-106669782D01*
X87890115Y-106732596D01*
X87999616Y-106760564D01*
X88011000Y-106760754D01*
X88016472Y-106747417D01*
X87955973Y-106716199D01*
X87913928Y-106699769D01*
X87672693Y-106574957D01*
X87501531Y-106404534D01*
X87402332Y-106191027D01*
X87376000Y-105980643D01*
X87382681Y-105881710D01*
X87420057Y-105841287D01*
X87514123Y-105833345D01*
X87523144Y-105833333D01*
X87661898Y-105856444D01*
X87800020Y-105912603D01*
X87808894Y-105917842D01*
X87922466Y-105973848D01*
X88020779Y-106001287D01*
X88032167Y-106001860D01*
X88087200Y-105994900D01*
X88063990Y-105968097D01*
X88054520Y-105961962D01*
X88018850Y-105927061D01*
X88058778Y-105899268D01*
X88075687Y-105893036D01*
X88402364Y-105772119D01*
X88668742Y-105662139D01*
X88866541Y-105566665D01*
X88953666Y-105514586D01*
X89084313Y-105444324D01*
X89167063Y-105436097D01*
X89198674Y-105480008D01*
X89175904Y-105566160D01*
X89095509Y-105684654D01*
X89031981Y-105753647D01*
X88939181Y-105852301D01*
X88899296Y-105906999D01*
X88913779Y-105912156D01*
X88984087Y-105862186D01*
X89009037Y-105841698D01*
X89148451Y-105691042D01*
X89218229Y-105535936D01*
X89219236Y-105417903D01*
X89213331Y-105320599D01*
X89262175Y-105252312D01*
X89305351Y-105221307D01*
X89397004Y-105173814D01*
X89472786Y-105179601D01*
X89522859Y-105203164D01*
X89647025Y-105313729D01*
X89734094Y-105478124D01*
X89778886Y-105671755D01*
X89776220Y-105870031D01*
X89720916Y-106048360D01*
X89706363Y-106074175D01*
X89520728Y-106305960D01*
X89273706Y-106507305D01*
X88987029Y-106663891D01*
X88682430Y-106761399D01*
X88655294Y-106766711D01*
X88455500Y-106803702D01*
X88650508Y-106790069D01*
X88868969Y-106746151D01*
X89101392Y-106651730D01*
X89328599Y-106519795D01*
X89531416Y-106363334D01*
X89690665Y-106195337D01*
X89787172Y-106028792D01*
X89791089Y-106017504D01*
X89819401Y-105856224D01*
X89818208Y-105666866D01*
X89789177Y-105494650D01*
X89769809Y-105439937D01*
X89755856Y-105398221D01*
X89774990Y-105386697D01*
X89843431Y-105405734D01*
X89946508Y-105443945D01*
X90202327Y-105567153D01*
X90477947Y-105743885D01*
X90748562Y-105955704D01*
X90989365Y-106184171D01*
X91081309Y-106287403D01*
X91234821Y-106471053D01*
X91241305Y-106451661D01*
X91219592Y-106397505D01*
X91155767Y-106315446D01*
X91041869Y-106194540D01*
X90942414Y-106095072D01*
X90629626Y-105814630D01*
X90318108Y-105589913D01*
X90021441Y-105430287D01*
X89920827Y-105390536D01*
X89769296Y-105321005D01*
X89623573Y-105230140D01*
X89604818Y-105215758D01*
X89462640Y-105102312D01*
X89572450Y-104906906D01*
X89639545Y-104764617D01*
X89673185Y-104620241D01*
X89682706Y-104433421D01*
X89682713Y-104430194D01*
X89689315Y-104258871D01*
X89712236Y-104146406D01*
X89757160Y-104067660D01*
X89767370Y-104055846D01*
X89820141Y-103949327D01*
X89847623Y-103795739D01*
X89848768Y-103673073D01*
X89792323Y-103673073D01*
X89780141Y-103842907D01*
X89724134Y-103979250D01*
X89706200Y-104001244D01*
X89571386Y-104094714D01*
X89416499Y-104124807D01*
X89270589Y-104086660D01*
X89254440Y-104076859D01*
X89172639Y-104033511D01*
X89125547Y-104027360D01*
X89125226Y-104027662D01*
X89137611Y-104060532D01*
X89207170Y-104102961D01*
X89308848Y-104144340D01*
X89417590Y-104174064D01*
X89490565Y-104182333D01*
X89619667Y-104182333D01*
X89619667Y-104444134D01*
X89588941Y-104723413D01*
X89492757Y-104954645D01*
X89325103Y-105150068D01*
X89238903Y-105219326D01*
X89056188Y-105343280D01*
X88869559Y-105445837D01*
X88663367Y-105532596D01*
X88421963Y-105609156D01*
X88129698Y-105681116D01*
X87770922Y-105754075D01*
X87714667Y-105764655D01*
X87592628Y-105776048D01*
X87437993Y-105775440D01*
X87277285Y-105764897D01*
X87137026Y-105746487D01*
X87043739Y-105722278D01*
X87024961Y-105710894D01*
X86943368Y-105669134D01*
X86905166Y-105664000D01*
X86834417Y-105631531D01*
X86741004Y-105549844D01*
X86645495Y-105442523D01*
X86568453Y-105333148D01*
X86530445Y-105245301D01*
X86529333Y-105233047D01*
X86511638Y-105168482D01*
X86490527Y-105156000D01*
X86463826Y-105117630D01*
X86427733Y-105015968D01*
X86387077Y-104871185D01*
X86346687Y-104703453D01*
X86311392Y-104532945D01*
X86286020Y-104379831D01*
X86275401Y-104264284D01*
X86275333Y-104257047D01*
X86281693Y-104159217D01*
X86312247Y-104124154D01*
X86377395Y-104128918D01*
X86488897Y-104127618D01*
X86555084Y-104106105D01*
X86665984Y-104086385D01*
X86728189Y-104100843D01*
X86808146Y-104123925D01*
X86818166Y-104110357D01*
X86760435Y-104067836D01*
X86710980Y-104040280D01*
X86596294Y-103980190D01*
X86742730Y-103886257D01*
X86816508Y-103834567D01*
X86834018Y-103812296D01*
X86820215Y-103814698D01*
X86772185Y-103810676D01*
X86742717Y-103748607D01*
X86740302Y-103734808D01*
X86696887Y-103734808D01*
X86689540Y-103829710D01*
X86665014Y-103882965D01*
X86655286Y-103886000D01*
X86609784Y-103921043D01*
X86571667Y-103991833D01*
X86515917Y-104075566D01*
X86428660Y-104092780D01*
X86308300Y-104053007D01*
X86216608Y-103986588D01*
X86127991Y-103884528D01*
X86060606Y-103773459D01*
X86032607Y-103680014D01*
X86036309Y-103654034D01*
X86084539Y-103611462D01*
X86164667Y-103591104D01*
X86240363Y-103596308D01*
X86275295Y-103630423D01*
X86275333Y-103632000D01*
X86309622Y-103669557D01*
X86338833Y-103674333D01*
X86395162Y-103650994D01*
X86402333Y-103631092D01*
X86436713Y-103583964D01*
X86511198Y-103538249D01*
X86597799Y-103510266D01*
X86647148Y-103533567D01*
X86658717Y-103549740D01*
X86686723Y-103630679D01*
X86696887Y-103734808D01*
X86740302Y-103734808D01*
X86728525Y-103667539D01*
X86709055Y-103555222D01*
X86688523Y-103483954D01*
X86683367Y-103475589D01*
X86633462Y-103471066D01*
X86524028Y-103480674D01*
X86378634Y-103502335D01*
X86376867Y-103502642D01*
X86218257Y-103526766D01*
X86123024Y-103530440D01*
X86072302Y-103513318D01*
X86057707Y-103496806D01*
X86030035Y-103442232D01*
X86038578Y-103398061D01*
X86095540Y-103346322D01*
X86211833Y-103269863D01*
X86318345Y-103197645D01*
X86387485Y-103141375D01*
X86402333Y-103121012D01*
X86440169Y-103099505D01*
X86464869Y-103093598D01*
X86375818Y-103093598D01*
X86259715Y-103193465D01*
X86157137Y-103268440D01*
X86091025Y-103290269D01*
X86071885Y-103257024D01*
X86080304Y-103226371D01*
X86103432Y-103136293D01*
X86106000Y-103106703D01*
X86143157Y-103071329D01*
X86240909Y-103073797D01*
X86375818Y-103093598D01*
X86464869Y-103093598D01*
X86536547Y-103076457D01*
X86605224Y-103065660D01*
X86868791Y-103000768D01*
X87137305Y-102882366D01*
X87392626Y-102723365D01*
X87616611Y-102536674D01*
X87791117Y-102335204D01*
X87891466Y-102150333D01*
X87962432Y-101959833D01*
X87965550Y-102111523D01*
X87958662Y-102241001D01*
X87937634Y-102406272D01*
X87920287Y-102504115D01*
X87897743Y-102637447D01*
X87889302Y-102734031D01*
X87894125Y-102767236D01*
X87961807Y-102779242D01*
X88072561Y-102739740D01*
X88209453Y-102656950D01*
X88345910Y-102547838D01*
X88447443Y-102458107D01*
X88515119Y-102413691D01*
X88559612Y-102422640D01*
X88591598Y-102492998D01*
X88621753Y-102632815D01*
X88647250Y-102774984D01*
X88675932Y-102919760D01*
X88701780Y-103021997D01*
X88719886Y-103062801D01*
X88721867Y-103062244D01*
X88723131Y-103014641D01*
X88709763Y-102903967D01*
X88684416Y-102750037D01*
X88669193Y-102668764D01*
X88635484Y-102488233D01*
X88619245Y-102363292D01*
X88621098Y-102266556D01*
X88641665Y-102170641D01*
X88681566Y-102048163D01*
X88683396Y-102042837D01*
X88730339Y-101908906D01*
X88756437Y-101848598D01*
X88767987Y-101855335D01*
X88771285Y-101922543D01*
X88771582Y-101950739D01*
X88776884Y-102052439D01*
X88798527Y-102086619D01*
X88848863Y-102070333D01*
X88855619Y-102066763D01*
X88921759Y-102010690D01*
X89014315Y-101907075D01*
X89108762Y-101784412D01*
X89206211Y-101659487D01*
X89271995Y-101599573D01*
X89299877Y-101604888D01*
X89314253Y-101664504D01*
X89340945Y-101792211D01*
X89376915Y-101972838D01*
X89419127Y-102191215D01*
X89451435Y-102362000D01*
X89496553Y-102600057D01*
X89537839Y-102813137D01*
X89572170Y-102985484D01*
X89596422Y-103101339D01*
X89605717Y-103140348D01*
X89610756Y-103194875D01*
X89565465Y-103202567D01*
X89516890Y-103192050D01*
X89370493Y-103193973D01*
X89222036Y-103255740D01*
X89104744Y-103360231D01*
X89068103Y-103423303D01*
X89002332Y-103517968D01*
X88922582Y-103554918D01*
X88851994Y-103533465D01*
X88813704Y-103452921D01*
X88811991Y-103430917D01*
X88803350Y-103365195D01*
X88787139Y-103368144D01*
X88786691Y-103369233D01*
X88778955Y-103451503D01*
X88789324Y-103521943D01*
X88827892Y-103593755D01*
X88910987Y-103615648D01*
X88941528Y-103615377D01*
X89039530Y-103594707D01*
X89069237Y-103539110D01*
X89095545Y-103460367D01*
X89159751Y-103362621D01*
X89169681Y-103350727D01*
X89302376Y-103252516D01*
X89452811Y-103228312D01*
X89598737Y-103277764D01*
X89688657Y-103358950D01*
X89761542Y-103501253D01*
X89792323Y-103673073D01*
X89848768Y-103673073D01*
X89849191Y-103627871D01*
X89824219Y-103478513D01*
X89780085Y-103388764D01*
X89756758Y-103361286D01*
X89737123Y-103331713D01*
X89718550Y-103289625D01*
X89698407Y-103224602D01*
X89674065Y-103126224D01*
X89642891Y-102984071D01*
X89602254Y-102787724D01*
X89549525Y-102526762D01*
X89499448Y-102277333D01*
X89457057Y-102069262D01*
X89415371Y-101870029D01*
X89380387Y-101708047D01*
X89364845Y-101639440D01*
X89342398Y-101387987D01*
X89358573Y-101271929D01*
X89372432Y-101065461D01*
X89306069Y-101065461D01*
X89300044Y-101199714D01*
X89265372Y-101340555D01*
X89220496Y-101460721D01*
X89157564Y-101590580D01*
X89084865Y-101718394D01*
X89010688Y-101832425D01*
X88943323Y-101920936D01*
X88891059Y-101972189D01*
X88862184Y-101974445D01*
X88864989Y-101915969D01*
X88868202Y-101902953D01*
X88872460Y-101832004D01*
X88853704Y-101811667D01*
X88828166Y-101774485D01*
X88815603Y-101683256D01*
X88815333Y-101665998D01*
X88804116Y-101560554D01*
X88776735Y-101497041D01*
X88773000Y-101494167D01*
X88743260Y-101510982D01*
X88730720Y-101594155D01*
X88730667Y-101601569D01*
X88704887Y-101812057D01*
X88634501Y-102030946D01*
X88529937Y-102242448D01*
X88401625Y-102430774D01*
X88259993Y-102580134D01*
X88115472Y-102674738D01*
X88004875Y-102700388D01*
X87962130Y-102687884D01*
X87954339Y-102635389D01*
X87972115Y-102541917D01*
X87992983Y-102397878D01*
X88003381Y-102211210D01*
X88003430Y-102012336D01*
X87993254Y-101831678D01*
X87972974Y-101699659D01*
X87968667Y-101684667D01*
X87947218Y-101628532D01*
X87936230Y-101641045D01*
X87931229Y-101729701D01*
X87930763Y-101748167D01*
X87887773Y-102016747D01*
X87780512Y-102277122D01*
X87622948Y-102496202D01*
X87608833Y-102510708D01*
X87434682Y-102655064D01*
X87223588Y-102783214D01*
X86991493Y-102890317D01*
X86754337Y-102971531D01*
X86528064Y-103022015D01*
X86328614Y-103036929D01*
X86171929Y-103011431D01*
X86098750Y-102969272D01*
X86030773Y-102888801D01*
X86039854Y-102841205D01*
X86111184Y-102827667D01*
X86172868Y-102835884D01*
X86162714Y-102875059D01*
X86142934Y-102901373D01*
X86139294Y-102916567D01*
X86185179Y-102886242D01*
X86267231Y-102821575D01*
X86285228Y-102806500D01*
X86233000Y-102806500D01*
X86211833Y-102827667D01*
X86190667Y-102806500D01*
X86211833Y-102785333D01*
X86233000Y-102806500D01*
X86285228Y-102806500D01*
X86372091Y-102733743D01*
X86486404Y-102633922D01*
X86596810Y-102533290D01*
X86686359Y-102446667D01*
X86799448Y-102311973D01*
X86904251Y-102155134D01*
X86930172Y-102108000D01*
X86981207Y-101988426D01*
X87031313Y-101839060D01*
X87074614Y-101682843D01*
X87105233Y-101542714D01*
X87117295Y-101441613D01*
X87110294Y-101404849D01*
X87093168Y-101432500D01*
X87067035Y-101523443D01*
X87039161Y-101650212D01*
X86934178Y-101996570D01*
X86767761Y-102291986D01*
X86544517Y-102530001D01*
X86296500Y-102690952D01*
X86001653Y-102802270D01*
X85660499Y-102874717D01*
X85301371Y-102905973D01*
X84952602Y-102893719D01*
X84642528Y-102835637D01*
X84618209Y-102828308D01*
X84449664Y-102768414D01*
X84295089Y-102700805D01*
X84168690Y-102633570D01*
X84084674Y-102574796D01*
X84057246Y-102532569D01*
X84074000Y-102518500D01*
X84146817Y-102497189D01*
X84271275Y-102460835D01*
X84391500Y-102425751D01*
X84594587Y-102355634D01*
X84814801Y-102262127D01*
X85026257Y-102157808D01*
X85203071Y-102055258D01*
X85217831Y-102044500D01*
X85132333Y-102044500D01*
X85111167Y-102065667D01*
X85090000Y-102044500D01*
X85111167Y-102023333D01*
X85132333Y-102044500D01*
X85217831Y-102044500D01*
X85301667Y-101983396D01*
X85364644Y-101925943D01*
X85364004Y-101914680D01*
X85316772Y-101935346D01*
X85236466Y-101959003D01*
X85098974Y-101985551D01*
X84927540Y-102012013D01*
X84745407Y-102035417D01*
X84575817Y-102052788D01*
X84442013Y-102061153D01*
X84367238Y-102057536D01*
X84365642Y-102057047D01*
X84372358Y-102029891D01*
X84439653Y-101975117D01*
X84553100Y-101904386D01*
X84557825Y-101901710D01*
X84690578Y-101820994D01*
X84764456Y-101764001D01*
X84775433Y-101736136D01*
X84719483Y-101742803D01*
X84661955Y-101761950D01*
X84506226Y-101816366D01*
X84413689Y-101837817D01*
X84384002Y-101821131D01*
X84416821Y-101761138D01*
X84511803Y-101652666D01*
X84645500Y-101514057D01*
X84826984Y-101337420D01*
X85032947Y-101149848D01*
X85231034Y-100980351D01*
X85321208Y-100908196D01*
X85516706Y-100756131D01*
X85648614Y-100651248D01*
X85721058Y-100589903D01*
X85738161Y-100568452D01*
X85704049Y-100583251D01*
X85661500Y-100607551D01*
X85533701Y-100691767D01*
X85365372Y-100815000D01*
X85179123Y-100959854D01*
X84997560Y-101108934D01*
X84899500Y-101193864D01*
X84799507Y-101276487D01*
X84714021Y-101321521D01*
X84609983Y-101340080D01*
X84455000Y-101343278D01*
X84288379Y-101333908D01*
X84137358Y-101310730D01*
X84052833Y-101285662D01*
X83971885Y-101245521D01*
X83962186Y-101220581D01*
X84010500Y-101197198D01*
X84186854Y-101125630D01*
X84359689Y-101043197D01*
X84549594Y-100938930D01*
X84777160Y-100801864D01*
X84914709Y-100715573D01*
X85288361Y-100486018D01*
X85608649Y-100306401D01*
X85887221Y-100172418D01*
X86135722Y-100079766D01*
X86365800Y-100024141D01*
X86589100Y-100001241D01*
X86817271Y-100006760D01*
X86830204Y-100007804D01*
X87212513Y-100062294D01*
X87523886Y-100156741D01*
X87737516Y-100270375D01*
X87840751Y-100335867D01*
X87911123Y-100357028D01*
X87984558Y-100338883D01*
X88041493Y-100312911D01*
X88056038Y-100308833D01*
X87926333Y-100308833D01*
X87905167Y-100330000D01*
X87884000Y-100308833D01*
X87905167Y-100287667D01*
X87926333Y-100308833D01*
X88056038Y-100308833D01*
X88256669Y-100252584D01*
X88501891Y-100252724D01*
X88749445Y-100311896D01*
X88849066Y-100354809D01*
X89037412Y-100470856D01*
X89164294Y-100610562D01*
X89248543Y-100798170D01*
X89278177Y-100907273D01*
X89306069Y-101065461D01*
X89372432Y-101065461D01*
X89375539Y-101019175D01*
X89321640Y-100767250D01*
X89204578Y-100541758D01*
X89104528Y-100427270D01*
X88911146Y-100298380D01*
X88668537Y-100214599D01*
X88402312Y-100181443D01*
X88138079Y-100204422D01*
X88104508Y-100211992D01*
X88001693Y-100231678D01*
X87912613Y-100229145D01*
X87808968Y-100199084D01*
X87662456Y-100136191D01*
X87636425Y-100124240D01*
X87482879Y-100059296D01*
X87341094Y-100016225D01*
X87181609Y-99988632D01*
X86974962Y-99970121D01*
X86906522Y-99965807D01*
X86650506Y-99958478D01*
X86417371Y-99971984D01*
G36*
X91233117Y-106476149D02*
X91240383Y-106477707D01*
X91234821Y-106471053D01*
X91233117Y-106476149D01*
X91233117Y-106476149D01*
G37*
X91233117Y-106476149D02*
X91240383Y-106477707D01*
X91234821Y-106471053D01*
X91233117Y-106476149D01*
G36*
X90344138Y-106554484D02*
X90275928Y-106603697D01*
X90162091Y-106702455D01*
X90015075Y-106838693D01*
X89847327Y-107000348D01*
X89671295Y-107175355D01*
X89499427Y-107351650D01*
X89344170Y-107517167D01*
X89296337Y-107570009D01*
X89185055Y-107687208D01*
X89079153Y-107787122D01*
X89023060Y-107832372D01*
X88959729Y-107882524D01*
X88948078Y-107905379D01*
X88948666Y-107905446D01*
X88994159Y-107883155D01*
X89086628Y-107822643D01*
X89202666Y-107739487D01*
X89392815Y-107596405D01*
X89541809Y-107478756D01*
X89677930Y-107363533D01*
X89810167Y-107245291D01*
X89979500Y-107091386D01*
X89820750Y-107205347D01*
X89727941Y-107265454D01*
X89670771Y-107289922D01*
X89662000Y-107284997D01*
X89690825Y-107234901D01*
X89767702Y-107142698D01*
X89878230Y-107023450D01*
X90008012Y-106892222D01*
X90142647Y-106764075D01*
X90254667Y-106665007D01*
X90337692Y-106590081D01*
X90369045Y-106550691D01*
X90344138Y-106554484D01*
X90344138Y-106554484D01*
G37*
X90344138Y-106554484D02*
X90275928Y-106603697D01*
X90162091Y-106702455D01*
X90015075Y-106838693D01*
X89847327Y-107000348D01*
X89671295Y-107175355D01*
X89499427Y-107351650D01*
X89344170Y-107517167D01*
X89296337Y-107570009D01*
X89185055Y-107687208D01*
X89079153Y-107787122D01*
X89023060Y-107832372D01*
X88959729Y-107882524D01*
X88948078Y-107905379D01*
X88948666Y-107905446D01*
X88994159Y-107883155D01*
X89086628Y-107822643D01*
X89202666Y-107739487D01*
X89392815Y-107596405D01*
X89541809Y-107478756D01*
X89677930Y-107363533D01*
X89810167Y-107245291D01*
X89979500Y-107091386D01*
X89820750Y-107205347D01*
X89727941Y-107265454D01*
X89670771Y-107289922D01*
X89662000Y-107284997D01*
X89690825Y-107234901D01*
X89767702Y-107142698D01*
X89878230Y-107023450D01*
X90008012Y-106892222D01*
X90142647Y-106764075D01*
X90254667Y-106665007D01*
X90337692Y-106590081D01*
X90369045Y-106550691D01*
X90344138Y-106554484D01*
G36*
X87545333Y-107886500D02*
X87566500Y-107907667D01*
X87587667Y-107886500D01*
X87566500Y-107865333D01*
X87545333Y-107886500D01*
X87545333Y-107886500D01*
G37*
X87545333Y-107886500D02*
X87566500Y-107907667D01*
X87587667Y-107886500D01*
X87566500Y-107865333D01*
X87545333Y-107886500D01*
G36*
X85229680Y-105955367D02*
X85112915Y-106053860D01*
X85051978Y-106193784D01*
X85047667Y-106244936D01*
X85028612Y-106368996D01*
X84979729Y-106523855D01*
X84938160Y-106620218D01*
X84872346Y-106775660D01*
X84823031Y-106930033D01*
X84807442Y-107005438D01*
X84801444Y-107075936D01*
X84810631Y-107137032D01*
X84844223Y-107203157D01*
X84911443Y-107288744D01*
X85021512Y-107408223D01*
X85149782Y-107541167D01*
X85287613Y-107680049D01*
X85401456Y-107788979D01*
X85480271Y-107857816D01*
X85513017Y-107876422D01*
X85513333Y-107875056D01*
X85485276Y-107830479D01*
X85409045Y-107739796D01*
X85296552Y-107616552D01*
X85170810Y-107485583D01*
X85023908Y-107334362D01*
X84927627Y-107228076D01*
X84872653Y-107151858D01*
X84849674Y-107090840D01*
X84849377Y-107030153D01*
X84856844Y-106984330D01*
X84889332Y-106865417D01*
X84939884Y-106734164D01*
X84996962Y-106615204D01*
X85049029Y-106533172D01*
X85078687Y-106510667D01*
X85122923Y-106539819D01*
X85193859Y-106611531D01*
X85207402Y-106627083D01*
X85261004Y-106688065D01*
X85275644Y-106695900D01*
X85250291Y-106643457D01*
X85195426Y-106544190D01*
X85114590Y-106355179D01*
X85106728Y-106202657D01*
X85172291Y-106079430D01*
X85227498Y-106030401D01*
X85327550Y-105973208D01*
X85419308Y-105973131D01*
X85460332Y-105985908D01*
X85548398Y-106041655D01*
X85564703Y-106098597D01*
X85575127Y-106177476D01*
X85615553Y-106286498D01*
X85671751Y-106397248D01*
X85729489Y-106481312D01*
X85771077Y-106510667D01*
X85778589Y-106481269D01*
X85741795Y-106408325D01*
X85726060Y-106385155D01*
X85658546Y-106258341D01*
X85619899Y-106126891D01*
X85619578Y-106124451D01*
X85581060Y-105997221D01*
X85496181Y-105933407D01*
X85381459Y-105918648D01*
X85229680Y-105955367D01*
X85229680Y-105955367D01*
G37*
X85229680Y-105955367D02*
X85112915Y-106053860D01*
X85051978Y-106193784D01*
X85047667Y-106244936D01*
X85028612Y-106368996D01*
X84979729Y-106523855D01*
X84938160Y-106620218D01*
X84872346Y-106775660D01*
X84823031Y-106930033D01*
X84807442Y-107005438D01*
X84801444Y-107075936D01*
X84810631Y-107137032D01*
X84844223Y-107203157D01*
X84911443Y-107288744D01*
X85021512Y-107408223D01*
X85149782Y-107541167D01*
X85287613Y-107680049D01*
X85401456Y-107788979D01*
X85480271Y-107857816D01*
X85513017Y-107876422D01*
X85513333Y-107875056D01*
X85485276Y-107830479D01*
X85409045Y-107739796D01*
X85296552Y-107616552D01*
X85170810Y-107485583D01*
X85023908Y-107334362D01*
X84927627Y-107228076D01*
X84872653Y-107151858D01*
X84849674Y-107090840D01*
X84849377Y-107030153D01*
X84856844Y-106984330D01*
X84889332Y-106865417D01*
X84939884Y-106734164D01*
X84996962Y-106615204D01*
X85049029Y-106533172D01*
X85078687Y-106510667D01*
X85122923Y-106539819D01*
X85193859Y-106611531D01*
X85207402Y-106627083D01*
X85261004Y-106688065D01*
X85275644Y-106695900D01*
X85250291Y-106643457D01*
X85195426Y-106544190D01*
X85114590Y-106355179D01*
X85106728Y-106202657D01*
X85172291Y-106079430D01*
X85227498Y-106030401D01*
X85327550Y-105973208D01*
X85419308Y-105973131D01*
X85460332Y-105985908D01*
X85548398Y-106041655D01*
X85564703Y-106098597D01*
X85575127Y-106177476D01*
X85615553Y-106286498D01*
X85671751Y-106397248D01*
X85729489Y-106481312D01*
X85771077Y-106510667D01*
X85778589Y-106481269D01*
X85741795Y-106408325D01*
X85726060Y-106385155D01*
X85658546Y-106258341D01*
X85619899Y-106126891D01*
X85619578Y-106124451D01*
X85581060Y-105997221D01*
X85496181Y-105933407D01*
X85381459Y-105918648D01*
X85229680Y-105955367D01*
G36*
X90000667Y-107082167D02*
X90021833Y-107103333D01*
X90043000Y-107082167D01*
X90021833Y-107061000D01*
X90000667Y-107082167D01*
X90000667Y-107082167D01*
G37*
X90000667Y-107082167D02*
X90021833Y-107103333D01*
X90043000Y-107082167D01*
X90021833Y-107061000D01*
X90000667Y-107082167D01*
G36*
X88148583Y-106777818D02*
X88135408Y-106790089D01*
X88193944Y-106796769D01*
X88222667Y-106797178D01*
X88299685Y-106792765D01*
X88308761Y-106781776D01*
X88296750Y-106777818D01*
X88189383Y-106771235D01*
X88148583Y-106777818D01*
X88148583Y-106777818D01*
G37*
X88148583Y-106777818D02*
X88135408Y-106790089D01*
X88193944Y-106796769D01*
X88222667Y-106797178D01*
X88299685Y-106792765D01*
X88308761Y-106781776D01*
X88296750Y-106777818D01*
X88189383Y-106771235D01*
X88148583Y-106777818D01*
G36*
X88109082Y-106587396D02*
X88104035Y-106653558D01*
X88112424Y-106668535D01*
X88131665Y-106655909D01*
X88134658Y-106612972D01*
X88124319Y-106567801D01*
X88109082Y-106587396D01*
X88109082Y-106587396D01*
G37*
X88109082Y-106587396D02*
X88104035Y-106653558D01*
X88112424Y-106668535D01*
X88131665Y-106655909D01*
X88134658Y-106612972D01*
X88124319Y-106567801D01*
X88109082Y-106587396D01*
G36*
X90545296Y-106449613D02*
X90508667Y-106468333D01*
X90475418Y-106500079D01*
X90506197Y-106504087D01*
X90585034Y-106480358D01*
X90614500Y-106468333D01*
X90662212Y-106439461D01*
X90635667Y-106429623D01*
X90545296Y-106449613D01*
X90545296Y-106449613D01*
G37*
X90545296Y-106449613D02*
X90508667Y-106468333D01*
X90475418Y-106500079D01*
X90506197Y-106504087D01*
X90585034Y-106480358D01*
X90614500Y-106468333D01*
X90662212Y-106439461D01*
X90635667Y-106429623D01*
X90545296Y-106449613D01*
G36*
X88066748Y-106418062D02*
X88061702Y-106484224D01*
X88070090Y-106499201D01*
X88089331Y-106486576D01*
X88092325Y-106443639D01*
X88081986Y-106398468D01*
X88066748Y-106418062D01*
X88066748Y-106418062D01*
G37*
X88066748Y-106418062D02*
X88061702Y-106484224D01*
X88070090Y-106499201D01*
X88089331Y-106486576D01*
X88092325Y-106443639D01*
X88081986Y-106398468D01*
X88066748Y-106418062D01*
G36*
X90751278Y-106398232D02*
X90749871Y-106412129D01*
X90816142Y-106417805D01*
X90826167Y-106417747D01*
X90891824Y-106411643D01*
X90885556Y-106398758D01*
X90878278Y-106396663D01*
X90786063Y-106390466D01*
X90751278Y-106398232D01*
X90751278Y-106398232D01*
G37*
X90751278Y-106398232D02*
X90749871Y-106412129D01*
X90816142Y-106417805D01*
X90826167Y-106417747D01*
X90891824Y-106411643D01*
X90885556Y-106398758D01*
X90878278Y-106396663D01*
X90786063Y-106390466D01*
X90751278Y-106398232D01*
G36*
X88109778Y-106186111D02*
X88104711Y-106236351D01*
X88109778Y-106242555D01*
X88134945Y-106236744D01*
X88138000Y-106214333D01*
X88122511Y-106179488D01*
X88109778Y-106186111D01*
X88109778Y-106186111D01*
G37*
X88109778Y-106186111D02*
X88104711Y-106236351D01*
X88109778Y-106242555D01*
X88134945Y-106236744D01*
X88138000Y-106214333D01*
X88122511Y-106179488D01*
X88109778Y-106186111D01*
G36*
X88742631Y-105936322D02*
X88651063Y-105957110D01*
X88509622Y-105981524D01*
X88382798Y-105999713D01*
X88249094Y-106017936D01*
X88195030Y-106028538D01*
X88216140Y-106033625D01*
X88307333Y-106035298D01*
X88462395Y-106028197D01*
X88608745Y-106009285D01*
X88637565Y-106003241D01*
X88741363Y-105972016D01*
X88804752Y-105940859D01*
X88806898Y-105938815D01*
X88797096Y-105925132D01*
X88742631Y-105936322D01*
X88742631Y-105936322D01*
G37*
X88742631Y-105936322D02*
X88651063Y-105957110D01*
X88509622Y-105981524D01*
X88382798Y-105999713D01*
X88249094Y-106017936D01*
X88195030Y-106028538D01*
X88216140Y-106033625D01*
X88307333Y-106035298D01*
X88462395Y-106028197D01*
X88608745Y-106009285D01*
X88637565Y-106003241D01*
X88741363Y-105972016D01*
X88804752Y-105940859D01*
X88806898Y-105938815D01*
X88797096Y-105925132D01*
X88742631Y-105936322D01*
G36*
X87417769Y-104758574D02*
X87357326Y-104797513D01*
X87250503Y-104842599D01*
X87113639Y-104857864D01*
X86985231Y-104842508D01*
X86913508Y-104806750D01*
X86872617Y-104776728D01*
X86875689Y-104814282D01*
X86876601Y-104817333D01*
X86931768Y-104868460D01*
X87040319Y-104892709D01*
X87175333Y-104890022D01*
X87309889Y-104860342D01*
X87397167Y-104818443D01*
X87468553Y-104764174D01*
X87487539Y-104735624D01*
X87481833Y-104734292D01*
X87417769Y-104758574D01*
X87417769Y-104758574D01*
G37*
X87417769Y-104758574D02*
X87357326Y-104797513D01*
X87250503Y-104842599D01*
X87113639Y-104857864D01*
X86985231Y-104842508D01*
X86913508Y-104806750D01*
X86872617Y-104776728D01*
X86875689Y-104814282D01*
X86876601Y-104817333D01*
X86931768Y-104868460D01*
X87040319Y-104892709D01*
X87175333Y-104890022D01*
X87309889Y-104860342D01*
X87397167Y-104818443D01*
X87468553Y-104764174D01*
X87487539Y-104735624D01*
X87481833Y-104734292D01*
X87417769Y-104758574D01*
G36*
X87330907Y-104579680D02*
X87231371Y-104591444D01*
X87117265Y-104609072D01*
X87011482Y-104629368D01*
X86936913Y-104649138D01*
X86931500Y-104651182D01*
X86887376Y-104675583D01*
X86919511Y-104681585D01*
X87021562Y-104669380D01*
X87161869Y-104644183D01*
X87285843Y-104617368D01*
X87375961Y-104593396D01*
X87394702Y-104586525D01*
X87392981Y-104576975D01*
X87330907Y-104579680D01*
X87330907Y-104579680D01*
G37*
X87330907Y-104579680D02*
X87231371Y-104591444D01*
X87117265Y-104609072D01*
X87011482Y-104629368D01*
X86936913Y-104649138D01*
X86931500Y-104651182D01*
X86887376Y-104675583D01*
X86919511Y-104681585D01*
X87021562Y-104669380D01*
X87161869Y-104644183D01*
X87285843Y-104617368D01*
X87375961Y-104593396D01*
X87394702Y-104586525D01*
X87392981Y-104576975D01*
X87330907Y-104579680D01*
G36*
X87198301Y-104406772D02*
X87061166Y-104424739D01*
X86932092Y-104453858D01*
X86840781Y-104489681D01*
X86820901Y-104505576D01*
X86787559Y-104563990D01*
X86789382Y-104583492D01*
X86823418Y-104569597D01*
X86848331Y-104538355D01*
X86918593Y-104495154D01*
X87064216Y-104471075D01*
X87150881Y-104466302D01*
X87280467Y-104456707D01*
X87361954Y-104440288D01*
X87377950Y-104422102D01*
X87313796Y-104404409D01*
X87198301Y-104406772D01*
X87198301Y-104406772D01*
G37*
X87198301Y-104406772D02*
X87061166Y-104424739D01*
X86932092Y-104453858D01*
X86840781Y-104489681D01*
X86820901Y-104505576D01*
X86787559Y-104563990D01*
X86789382Y-104583492D01*
X86823418Y-104569597D01*
X86848331Y-104538355D01*
X86918593Y-104495154D01*
X87064216Y-104471075D01*
X87150881Y-104466302D01*
X87280467Y-104456707D01*
X87361954Y-104440288D01*
X87377950Y-104422102D01*
X87313796Y-104404409D01*
X87198301Y-104406772D01*
G36*
X88142796Y-103220096D02*
X88029248Y-103244568D01*
X87887402Y-103278535D01*
X87736503Y-103316990D01*
X87595795Y-103354925D01*
X87484524Y-103387335D01*
X87421936Y-103409211D01*
X87418613Y-103415701D01*
X87502225Y-103407708D01*
X87616020Y-103382001D01*
X87619696Y-103380955D01*
X87715061Y-103361012D01*
X87753132Y-103378256D01*
X87757000Y-103402122D01*
X87783089Y-103454810D01*
X87839244Y-103455511D01*
X87892302Y-103408543D01*
X87903567Y-103383041D01*
X87959414Y-103322814D01*
X88060389Y-103277673D01*
X88166973Y-103260835D01*
X88227015Y-103274854D01*
X88249965Y-103327878D01*
X88263478Y-103434183D01*
X88265000Y-103488256D01*
X88229148Y-103670998D01*
X88131297Y-103808994D01*
X87986010Y-103893652D01*
X87807846Y-103916382D01*
X87616604Y-103870808D01*
X87505031Y-103800711D01*
X87404035Y-103698824D01*
X87331869Y-103588899D01*
X87306785Y-103494685D01*
X87311088Y-103473250D01*
X87305680Y-103425499D01*
X87290005Y-103420333D01*
X87247924Y-103448274D01*
X87253806Y-103520147D01*
X87297804Y-103618026D01*
X87370068Y-103723989D01*
X87460751Y-103820109D01*
X87542047Y-103879066D01*
X87715459Y-103953671D01*
X87870995Y-103961158D01*
X88040926Y-103902628D01*
X88053333Y-103896517D01*
X88204047Y-103781763D01*
X88298310Y-103627437D01*
X88325814Y-103455424D01*
X88307417Y-103357085D01*
X88263389Y-103260648D01*
X88217110Y-103211700D01*
X88208800Y-103210124D01*
X88142796Y-103220096D01*
X88142796Y-103220096D01*
G37*
X88142796Y-103220096D02*
X88029248Y-103244568D01*
X87887402Y-103278535D01*
X87736503Y-103316990D01*
X87595795Y-103354925D01*
X87484524Y-103387335D01*
X87421936Y-103409211D01*
X87418613Y-103415701D01*
X87502225Y-103407708D01*
X87616020Y-103382001D01*
X87619696Y-103380955D01*
X87715061Y-103361012D01*
X87753132Y-103378256D01*
X87757000Y-103402122D01*
X87783089Y-103454810D01*
X87839244Y-103455511D01*
X87892302Y-103408543D01*
X87903567Y-103383041D01*
X87959414Y-103322814D01*
X88060389Y-103277673D01*
X88166973Y-103260835D01*
X88227015Y-103274854D01*
X88249965Y-103327878D01*
X88263478Y-103434183D01*
X88265000Y-103488256D01*
X88229148Y-103670998D01*
X88131297Y-103808994D01*
X87986010Y-103893652D01*
X87807846Y-103916382D01*
X87616604Y-103870808D01*
X87505031Y-103800711D01*
X87404035Y-103698824D01*
X87331869Y-103588899D01*
X87306785Y-103494685D01*
X87311088Y-103473250D01*
X87305680Y-103425499D01*
X87290005Y-103420333D01*
X87247924Y-103448274D01*
X87253806Y-103520147D01*
X87297804Y-103618026D01*
X87370068Y-103723989D01*
X87460751Y-103820109D01*
X87542047Y-103879066D01*
X87715459Y-103953671D01*
X87870995Y-103961158D01*
X88040926Y-103902628D01*
X88053333Y-103896517D01*
X88204047Y-103781763D01*
X88298310Y-103627437D01*
X88325814Y-103455424D01*
X88307417Y-103357085D01*
X88263389Y-103260648D01*
X88217110Y-103211700D01*
X88208800Y-103210124D01*
X88142796Y-103220096D01*
G36*
X89379426Y-103441902D02*
X89308734Y-103544001D01*
X89258435Y-103658279D01*
X89247825Y-103747396D01*
X89264596Y-103769717D01*
X89286595Y-103710771D01*
X89292401Y-103684917D01*
X89328361Y-103577737D01*
X89373395Y-103554492D01*
X89426912Y-103615349D01*
X89440999Y-103642583D01*
X89475556Y-103698963D01*
X89489318Y-103677022D01*
X89489802Y-103668933D01*
X89462053Y-103586569D01*
X89425344Y-103544161D01*
X89381899Y-103495818D01*
X89405529Y-103452980D01*
X89435927Y-103428286D01*
X89478006Y-103387849D01*
X89450722Y-103387124D01*
X89379426Y-103441902D01*
X89379426Y-103441902D01*
G37*
X89379426Y-103441902D02*
X89308734Y-103544001D01*
X89258435Y-103658279D01*
X89247825Y-103747396D01*
X89264596Y-103769717D01*
X89286595Y-103710771D01*
X89292401Y-103684917D01*
X89328361Y-103577737D01*
X89373395Y-103554492D01*
X89426912Y-103615349D01*
X89440999Y-103642583D01*
X89475556Y-103698963D01*
X89489318Y-103677022D01*
X89489802Y-103668933D01*
X89462053Y-103586569D01*
X89425344Y-103544161D01*
X89381899Y-103495818D01*
X89405529Y-103452980D01*
X89435927Y-103428286D01*
X89478006Y-103387849D01*
X89450722Y-103387124D01*
X89379426Y-103441902D01*
G36*
X86961795Y-103273536D02*
X87004023Y-103320970D01*
X87041501Y-103335667D01*
X87052563Y-103311347D01*
X87028419Y-103276436D01*
X86976759Y-103233640D01*
X86959011Y-103231286D01*
X86961795Y-103273536D01*
X86961795Y-103273536D01*
G37*
X86961795Y-103273536D02*
X87004023Y-103320970D01*
X87041501Y-103335667D01*
X87052563Y-103311347D01*
X87028419Y-103276436D01*
X86976759Y-103233640D01*
X86959011Y-103231286D01*
X86961795Y-103273536D01*
G36*
X88744964Y-103155750D02*
X88739372Y-103242421D01*
X88744964Y-103261583D01*
X88760415Y-103266901D01*
X88766316Y-103208667D01*
X88759663Y-103148569D01*
X88744964Y-103155750D01*
X88744964Y-103155750D01*
G37*
X88744964Y-103155750D02*
X88739372Y-103242421D01*
X88744964Y-103261583D01*
X88760415Y-103266901D01*
X88766316Y-103208667D01*
X88759663Y-103148569D01*
X88744964Y-103155750D01*
G36*
X87843690Y-102975936D02*
X87725250Y-103024845D01*
X87570207Y-103093155D01*
X87424007Y-103153183D01*
X87344250Y-103182837D01*
X87251973Y-103222366D01*
X87207411Y-103257780D01*
X87206667Y-103261358D01*
X87214868Y-103283894D01*
X87248528Y-103284178D01*
X87321235Y-103257693D01*
X87446576Y-103199921D01*
X87565659Y-103142005D01*
X87713292Y-103072779D01*
X87835098Y-103021529D01*
X87908418Y-102997663D01*
X87914909Y-102997000D01*
X87964688Y-102970939D01*
X87968667Y-102955200D01*
X87934082Y-102949625D01*
X87843690Y-102975936D01*
X87843690Y-102975936D01*
G37*
X87843690Y-102975936D02*
X87725250Y-103024845D01*
X87570207Y-103093155D01*
X87424007Y-103153183D01*
X87344250Y-103182837D01*
X87251973Y-103222366D01*
X87207411Y-103257780D01*
X87206667Y-103261358D01*
X87214868Y-103283894D01*
X87248528Y-103284178D01*
X87321235Y-103257693D01*
X87446576Y-103199921D01*
X87565659Y-103142005D01*
X87713292Y-103072779D01*
X87835098Y-103021529D01*
X87908418Y-102997663D01*
X87914909Y-102997000D01*
X87964688Y-102970939D01*
X87968667Y-102955200D01*
X87934082Y-102949625D01*
X87843690Y-102975936D01*
G36*
X85428667Y-101875167D02*
X85449833Y-101896333D01*
X85471000Y-101875167D01*
X85449833Y-101854000D01*
X85428667Y-101875167D01*
X85428667Y-101875167D01*
G37*
X85428667Y-101875167D02*
X85449833Y-101896333D01*
X85471000Y-101875167D01*
X85449833Y-101854000D01*
X85428667Y-101875167D01*
D17*
X101270000Y-115730000D03*
D18*
X101270000Y-118270000D03*
X98730000Y-115730000D03*
X98730000Y-118270000D03*
D10*
G36*
X118360280Y-108754796D02*
X119845204Y-110239720D01*
X118148148Y-111936776D01*
X116663224Y-110451852D01*
X118360280Y-108754796D01*
X118360280Y-108754796D01*
G37*
G36*
X115531852Y-111583224D02*
X117016776Y-113068148D01*
X115319720Y-114765204D01*
X113834796Y-113280280D01*
X115531852Y-111583224D01*
X115531852Y-111583224D01*
G37*
G36*
X112502895Y-114568359D02*
X113221137Y-116541713D01*
X110965875Y-117362561D01*
X110247633Y-115389207D01*
X112502895Y-114568359D01*
X112502895Y-114568359D01*
G37*
G36*
X108744125Y-115936439D02*
X109462367Y-117909793D01*
X107207105Y-118730641D01*
X106488863Y-116757287D01*
X108744125Y-115936439D01*
X108744125Y-115936439D01*
G37*
G36*
X120182572Y-100952011D02*
X122262135Y-101244274D01*
X121928120Y-103620917D01*
X119848557Y-103328654D01*
X120182572Y-100952011D01*
X120182572Y-100952011D01*
G37*
G36*
X119625880Y-104913083D02*
X121705443Y-105205346D01*
X121371428Y-107581989D01*
X119291865Y-107289726D01*
X119625880Y-104913083D01*
X119625880Y-104913083D01*
G37*
G36*
X116823596Y-93679513D02*
X118677786Y-92693623D01*
X119804518Y-94812697D01*
X117950328Y-95798587D01*
X116823596Y-93679513D01*
X116823596Y-93679513D01*
G37*
G36*
X118701482Y-97211303D02*
X120555672Y-96225413D01*
X121682404Y-98344487D01*
X119828214Y-99330377D01*
X118701482Y-97211303D01*
X118701482Y-97211303D01*
G37*
G36*
X110568458Y-89194665D02*
X111772969Y-87474446D01*
X113738934Y-88851029D01*
X112534423Y-90571248D01*
X110568458Y-89194665D01*
X110568458Y-89194665D01*
G37*
G36*
X113845066Y-91488971D02*
X115049577Y-89768752D01*
X117015542Y-91145335D01*
X115811031Y-92865554D01*
X113845066Y-91488971D01*
X113845066Y-91488971D01*
G37*
G36*
X89622281Y-86898673D02*
X90672281Y-88717327D01*
X88593821Y-89917327D01*
X87543821Y-88098673D01*
X89622281Y-86898673D01*
X89622281Y-86898673D01*
G37*
G36*
X86158179Y-88898673D02*
X87208179Y-90717327D01*
X85129719Y-91917327D01*
X84079719Y-90098673D01*
X86158179Y-88898673D01*
X86158179Y-88898673D01*
G37*
G36*
X81462673Y-92207719D02*
X83281327Y-93257719D01*
X82081327Y-95336179D01*
X80262673Y-94286179D01*
X81462673Y-92207719D01*
X81462673Y-92207719D01*
G37*
G36*
X79462673Y-95671821D02*
X81281327Y-96721821D01*
X80081327Y-98800281D01*
X78262673Y-97750281D01*
X79462673Y-95671821D01*
X79462673Y-95671821D01*
G37*
G36*
X77658278Y-100662945D02*
X79726374Y-100298284D01*
X80143130Y-102661823D01*
X78075034Y-103026484D01*
X77658278Y-100662945D01*
X77658278Y-100662945D01*
G37*
G36*
X78352870Y-104602177D02*
X80420966Y-104237516D01*
X80837722Y-106601055D01*
X78769626Y-106965716D01*
X78352870Y-104602177D01*
X78352870Y-104602177D01*
G37*
G36*
X80306796Y-110239720D02*
X81791720Y-108754796D01*
X83488776Y-110451852D01*
X82003852Y-111936776D01*
X80306796Y-110239720D01*
X80306796Y-110239720D01*
G37*
G36*
X83135224Y-113068148D02*
X84620148Y-111583224D01*
X86317204Y-113280280D01*
X84832280Y-114765204D01*
X83135224Y-113068148D01*
X83135224Y-113068148D01*
G37*
G36*
X88073863Y-116732213D02*
X88792105Y-114758859D01*
X91047367Y-115579707D01*
X90329125Y-117553061D01*
X88073863Y-116732213D01*
X88073863Y-116732213D01*
G37*
G36*
X91832633Y-118100293D02*
X92550875Y-116126939D01*
X94806137Y-116947787D01*
X94087895Y-118921141D01*
X91832633Y-118100293D01*
X91832633Y-118100293D01*
G37*
D19*
X101745800Y-111252000D03*
X97745800Y-111252000D03*
D20*
X91745000Y-95250200D03*
X93015000Y-95250200D03*
X94285000Y-95250200D03*
X95555000Y-95250200D03*
X96825000Y-95250200D03*
X98095000Y-95250200D03*
X99365000Y-95250200D03*
X100635000Y-95250200D03*
X101905000Y-95250200D03*
X103175000Y-95250200D03*
X105715000Y-95250200D03*
X104445000Y-95250200D03*
X106985000Y-95250200D03*
X108255000Y-95250200D03*
X108255000Y-104775200D03*
X106985000Y-104775200D03*
X105715000Y-104775200D03*
X104445000Y-104775200D03*
X103175000Y-104775200D03*
X101905000Y-104775200D03*
X100635000Y-104775200D03*
X99365000Y-104775200D03*
X98095000Y-104775200D03*
X96825000Y-104775200D03*
X95555000Y-104775200D03*
X94285000Y-104775200D03*
X93015000Y-104775200D03*
X91745000Y-104775200D03*
M02*
