G04 #@! TF.FileFunction,Legend,Bot*
%FSLAX46Y46*%
G04 Gerber Fmt 4.6, Leading zero omitted, Abs format (unit mm)*
G04 Created by KiCad (PCBNEW 4.0.7) date 05/31/18 21:42:14*
%MOMM*%
%LPD*%
G01*
G04 APERTURE LIST*
%ADD10C,0.100000*%
%ADD11C,0.250000*%
%ADD12C,0.300000*%
%ADD13C,0.150000*%
%ADD14C,2.100000*%
%ADD15O,2.100000X2.100000*%
%ADD16R,0.908000X1.543000*%
%ADD17R,1.000000X0.900000*%
G04 APERTURE END LIST*
D10*
D11*
X88442659Y-109376021D02*
X89014088Y-109376021D01*
X88728373Y-110376021D02*
X88728373Y-109376021D01*
X89347421Y-110376021D02*
X89347421Y-109376021D01*
X89775993Y-110376021D02*
X89775993Y-109852211D01*
X89728374Y-109756973D01*
X89633136Y-109709354D01*
X89490278Y-109709354D01*
X89395040Y-109756973D01*
X89347421Y-109804592D01*
X90680755Y-110376021D02*
X90680755Y-109852211D01*
X90633136Y-109756973D01*
X90537898Y-109709354D01*
X90347421Y-109709354D01*
X90252183Y-109756973D01*
X90680755Y-110328402D02*
X90585517Y-110376021D01*
X90347421Y-110376021D01*
X90252183Y-110328402D01*
X90204564Y-110233164D01*
X90204564Y-110137926D01*
X90252183Y-110042688D01*
X90347421Y-109995069D01*
X90585517Y-109995069D01*
X90680755Y-109947450D01*
X91156945Y-109709354D02*
X91156945Y-110376021D01*
X91156945Y-109804592D02*
X91204564Y-109756973D01*
X91299802Y-109709354D01*
X91442660Y-109709354D01*
X91537898Y-109756973D01*
X91585517Y-109852211D01*
X91585517Y-110376021D01*
X92061707Y-110376021D02*
X92061707Y-109376021D01*
X92156945Y-109995069D02*
X92442660Y-110376021D01*
X92442660Y-109709354D02*
X92061707Y-110090307D01*
X93537898Y-109709354D02*
X93775993Y-110376021D01*
X94014089Y-109709354D02*
X93775993Y-110376021D01*
X93680755Y-110614116D01*
X93633136Y-110661735D01*
X93537898Y-110709354D01*
X94537898Y-110376021D02*
X94442660Y-110328402D01*
X94395041Y-110280783D01*
X94347422Y-110185545D01*
X94347422Y-109899830D01*
X94395041Y-109804592D01*
X94442660Y-109756973D01*
X94537898Y-109709354D01*
X94680756Y-109709354D01*
X94775994Y-109756973D01*
X94823613Y-109804592D01*
X94871232Y-109899830D01*
X94871232Y-110185545D01*
X94823613Y-110280783D01*
X94775994Y-110328402D01*
X94680756Y-110376021D01*
X94537898Y-110376021D01*
X95728375Y-109709354D02*
X95728375Y-110376021D01*
X95299803Y-109709354D02*
X95299803Y-110233164D01*
X95347422Y-110328402D01*
X95442660Y-110376021D01*
X95585518Y-110376021D01*
X95680756Y-110328402D01*
X95728375Y-110280783D01*
X96204565Y-110280783D02*
X96252184Y-110328402D01*
X96204565Y-110376021D01*
X96156946Y-110328402D01*
X96204565Y-110280783D01*
X96204565Y-110376021D01*
X96204565Y-109756973D02*
X96252184Y-109804592D01*
X96204565Y-109852211D01*
X96156946Y-109804592D01*
X96204565Y-109756973D01*
X96204565Y-109852211D01*
X89395040Y-111840307D02*
X89871231Y-111840307D01*
X89299802Y-112126021D02*
X89633135Y-111126021D01*
X89966469Y-112126021D01*
X90299802Y-112126021D02*
X90299802Y-111126021D01*
X90871231Y-112126021D01*
X90871231Y-111126021D01*
X91347421Y-112126021D02*
X91347421Y-111126021D01*
X91585516Y-111126021D01*
X91728374Y-111173640D01*
X91823612Y-111268878D01*
X91871231Y-111364116D01*
X91918850Y-111554592D01*
X91918850Y-111697450D01*
X91871231Y-111887926D01*
X91823612Y-111983164D01*
X91728374Y-112078402D01*
X91585516Y-112126021D01*
X91347421Y-112126021D01*
X92347421Y-112030783D02*
X92395040Y-112078402D01*
X92347421Y-112126021D01*
X92299802Y-112078402D01*
X92347421Y-112030783D01*
X92347421Y-112126021D01*
X92347421Y-111745069D02*
X92299802Y-111173640D01*
X92347421Y-111126021D01*
X92395040Y-111173640D01*
X92347421Y-111745069D01*
X92347421Y-111126021D01*
X92728373Y-111126021D02*
X93395040Y-112126021D01*
X93395040Y-111126021D02*
X92728373Y-112126021D01*
X93966468Y-111126021D02*
X94156945Y-111126021D01*
X94252183Y-111173640D01*
X94347421Y-111268878D01*
X94395040Y-111459354D01*
X94395040Y-111792688D01*
X94347421Y-111983164D01*
X94252183Y-112078402D01*
X94156945Y-112126021D01*
X93966468Y-112126021D01*
X93871230Y-112078402D01*
X93775992Y-111983164D01*
X93728373Y-111792688D01*
X93728373Y-111459354D01*
X93775992Y-111268878D01*
X93871230Y-111173640D01*
X93966468Y-111126021D01*
X95395040Y-112126021D02*
X95061706Y-111649830D01*
X94823611Y-112126021D02*
X94823611Y-111126021D01*
X95204564Y-111126021D01*
X95299802Y-111173640D01*
X95347421Y-111221259D01*
X95395040Y-111316497D01*
X95395040Y-111459354D01*
X95347421Y-111554592D01*
X95299802Y-111602211D01*
X95204564Y-111649830D01*
X94823611Y-111649830D01*
X90418849Y-113828402D02*
X90561706Y-113876021D01*
X90799802Y-113876021D01*
X90895040Y-113828402D01*
X90942659Y-113780783D01*
X90990278Y-113685545D01*
X90990278Y-113590307D01*
X90942659Y-113495069D01*
X90895040Y-113447450D01*
X90799802Y-113399830D01*
X90609325Y-113352211D01*
X90514087Y-113304592D01*
X90466468Y-113256973D01*
X90418849Y-113161735D01*
X90418849Y-113066497D01*
X90466468Y-112971259D01*
X90514087Y-112923640D01*
X90609325Y-112876021D01*
X90847421Y-112876021D01*
X90990278Y-112923640D01*
X91418849Y-113209354D02*
X91418849Y-114209354D01*
X91418849Y-113256973D02*
X91514087Y-113209354D01*
X91704564Y-113209354D01*
X91799802Y-113256973D01*
X91847421Y-113304592D01*
X91895040Y-113399830D01*
X91895040Y-113685545D01*
X91847421Y-113780783D01*
X91799802Y-113828402D01*
X91704564Y-113876021D01*
X91514087Y-113876021D01*
X91418849Y-113828402D01*
X92752183Y-113876021D02*
X92752183Y-113352211D01*
X92704564Y-113256973D01*
X92609326Y-113209354D01*
X92418849Y-113209354D01*
X92323611Y-113256973D01*
X92752183Y-113828402D02*
X92656945Y-113876021D01*
X92418849Y-113876021D01*
X92323611Y-113828402D01*
X92275992Y-113733164D01*
X92275992Y-113637926D01*
X92323611Y-113542688D01*
X92418849Y-113495069D01*
X92656945Y-113495069D01*
X92752183Y-113447450D01*
X93228373Y-113876021D02*
X93228373Y-113209354D01*
X93228373Y-113399830D02*
X93275992Y-113304592D01*
X93323611Y-113256973D01*
X93418849Y-113209354D01*
X93514088Y-113209354D01*
X93752183Y-112876021D02*
X94418850Y-113876021D01*
X94418850Y-112876021D02*
X93752183Y-113876021D01*
D12*
X90254678Y-91920286D02*
X92040393Y-91920286D01*
X90968964Y-90848857D02*
X90254678Y-94063143D01*
X91802298Y-92991714D02*
X90016583Y-92991714D01*
X91088012Y-94063143D02*
X91802298Y-90848857D01*
X92873726Y-93586952D02*
X92873726Y-91086952D01*
X92873726Y-92039333D02*
X93111821Y-91920286D01*
X93588012Y-91920286D01*
X93826107Y-92039333D01*
X93945155Y-92158381D01*
X94064202Y-92396476D01*
X94064202Y-93110762D01*
X93945155Y-93348857D01*
X93826107Y-93467905D01*
X93588012Y-93586952D01*
X93111821Y-93586952D01*
X92873726Y-93467905D01*
X96207060Y-93586952D02*
X96207060Y-92277429D01*
X96088012Y-92039333D01*
X95849917Y-91920286D01*
X95373726Y-91920286D01*
X95135631Y-92039333D01*
X96207060Y-93467905D02*
X95968964Y-93586952D01*
X95373726Y-93586952D01*
X95135631Y-93467905D01*
X95016583Y-93229810D01*
X95016583Y-92991714D01*
X95135631Y-92753619D01*
X95373726Y-92634571D01*
X95968964Y-92634571D01*
X96207060Y-92515524D01*
X98468965Y-93586952D02*
X98468965Y-91086952D01*
X98468965Y-93467905D02*
X98230869Y-93586952D01*
X97754679Y-93586952D01*
X97516584Y-93467905D01*
X97397536Y-93348857D01*
X97278488Y-93110762D01*
X97278488Y-92396476D01*
X97397536Y-92158381D01*
X97516584Y-92039333D01*
X97754679Y-91920286D01*
X98230869Y-91920286D01*
X98468965Y-92039333D01*
X100730870Y-91920286D02*
X100730870Y-93944095D01*
X100611822Y-94182190D01*
X100492774Y-94301238D01*
X100254679Y-94420286D01*
X99897536Y-94420286D01*
X99659441Y-94301238D01*
X100730870Y-93467905D02*
X100492774Y-93586952D01*
X100016584Y-93586952D01*
X99778489Y-93467905D01*
X99659441Y-93348857D01*
X99540393Y-93110762D01*
X99540393Y-92396476D01*
X99659441Y-92158381D01*
X99778489Y-92039333D01*
X100016584Y-91920286D01*
X100492774Y-91920286D01*
X100730870Y-92039333D01*
X102873727Y-93467905D02*
X102635632Y-93586952D01*
X102159441Y-93586952D01*
X101921346Y-93467905D01*
X101802298Y-93229810D01*
X101802298Y-92277429D01*
X101921346Y-92039333D01*
X102159441Y-91920286D01*
X102635632Y-91920286D01*
X102873727Y-92039333D01*
X102992775Y-92277429D01*
X102992775Y-92515524D01*
X101802298Y-92753619D01*
X104421346Y-93586952D02*
X104183251Y-93467905D01*
X104064203Y-93229810D01*
X104064203Y-91086952D01*
X105373727Y-93586952D02*
X105373727Y-91920286D01*
X105373727Y-91086952D02*
X105254679Y-91206000D01*
X105373727Y-91325048D01*
X105492775Y-91206000D01*
X105373727Y-91086952D01*
X105373727Y-91325048D01*
X106207060Y-91920286D02*
X107159441Y-91920286D01*
X106564203Y-93586952D02*
X106564203Y-91444095D01*
X106683251Y-91206000D01*
X106921346Y-91086952D01*
X107159441Y-91086952D01*
X108945155Y-93467905D02*
X108707060Y-93586952D01*
X108230869Y-93586952D01*
X107992774Y-93467905D01*
X107873726Y-93229810D01*
X107873726Y-92277429D01*
X107992774Y-92039333D01*
X108230869Y-91920286D01*
X108707060Y-91920286D01*
X108945155Y-92039333D01*
X109064203Y-92277429D01*
X109064203Y-92515524D01*
X107873726Y-92753619D01*
D13*
X108839000Y-97917000D02*
X91186000Y-97917000D01*
X91186000Y-103251000D02*
X108966000Y-103251000D01*
X108966000Y-97917000D02*
X108966000Y-103251000D01*
X91186000Y-103251000D02*
X91186000Y-97917000D01*
X91186000Y-101219000D02*
X92456000Y-101219000D01*
X92456000Y-101219000D02*
X92456000Y-99949000D01*
X92456000Y-99949000D02*
X91186000Y-99949000D01*
D10*
X103227240Y-114827173D02*
X103127240Y-114860507D01*
X102960573Y-114860507D01*
X102893906Y-114827173D01*
X102860573Y-114793840D01*
X102827240Y-114727173D01*
X102827240Y-114660507D01*
X102860573Y-114593840D01*
X102893906Y-114560507D01*
X102960573Y-114527173D01*
X103093906Y-114493840D01*
X103160573Y-114460507D01*
X103193906Y-114427173D01*
X103227240Y-114360507D01*
X103227240Y-114293840D01*
X103193906Y-114227173D01*
X103160573Y-114193840D01*
X103093906Y-114160507D01*
X102927240Y-114160507D01*
X102827240Y-114193840D01*
X102527239Y-114860507D02*
X102527239Y-114160507D01*
X102360573Y-114160507D01*
X102260573Y-114193840D01*
X102193906Y-114260507D01*
X102160573Y-114327173D01*
X102127239Y-114460507D01*
X102127239Y-114560507D01*
X102160573Y-114693840D01*
X102193906Y-114760507D01*
X102260573Y-114827173D01*
X102360573Y-114860507D01*
X102527239Y-114860507D01*
X101860573Y-114660507D02*
X101527239Y-114660507D01*
X101927239Y-114860507D02*
X101693906Y-114160507D01*
X101460573Y-114860507D01*
X103210574Y-119907173D02*
X103110574Y-119940507D01*
X102943907Y-119940507D01*
X102877240Y-119907173D01*
X102843907Y-119873840D01*
X102810574Y-119807173D01*
X102810574Y-119740507D01*
X102843907Y-119673840D01*
X102877240Y-119640507D01*
X102943907Y-119607173D01*
X103077240Y-119573840D01*
X103143907Y-119540507D01*
X103177240Y-119507173D01*
X103210574Y-119440507D01*
X103210574Y-119373840D01*
X103177240Y-119307173D01*
X103143907Y-119273840D01*
X103077240Y-119240507D01*
X102910574Y-119240507D01*
X102810574Y-119273840D01*
X102110573Y-119873840D02*
X102143907Y-119907173D01*
X102243907Y-119940507D01*
X102310573Y-119940507D01*
X102410573Y-119907173D01*
X102477240Y-119840507D01*
X102510573Y-119773840D01*
X102543907Y-119640507D01*
X102543907Y-119540507D01*
X102510573Y-119407173D01*
X102477240Y-119340507D01*
X102410573Y-119273840D01*
X102310573Y-119240507D01*
X102243907Y-119240507D01*
X102143907Y-119273840D01*
X102110573Y-119307173D01*
X101477240Y-119940507D02*
X101810573Y-119940507D01*
X101810573Y-119240507D01*
X97830573Y-119273840D02*
X97897239Y-119240507D01*
X97997239Y-119240507D01*
X98097239Y-119273840D01*
X98163906Y-119340507D01*
X98197239Y-119407173D01*
X98230573Y-119540507D01*
X98230573Y-119640507D01*
X98197239Y-119773840D01*
X98163906Y-119840507D01*
X98097239Y-119907173D01*
X97997239Y-119940507D01*
X97930573Y-119940507D01*
X97830573Y-119907173D01*
X97797239Y-119873840D01*
X97797239Y-119640507D01*
X97930573Y-119640507D01*
X97497239Y-119940507D02*
X97497239Y-119240507D01*
X97097239Y-119940507D01*
X97097239Y-119240507D01*
X96763906Y-119940507D02*
X96763906Y-119240507D01*
X96597240Y-119240507D01*
X96497240Y-119273840D01*
X96430573Y-119340507D01*
X96397240Y-119407173D01*
X96363906Y-119540507D01*
X96363906Y-119640507D01*
X96397240Y-119773840D01*
X96430573Y-119840507D01*
X96497240Y-119907173D01*
X96597240Y-119940507D01*
X96763906Y-119940507D01*
X98230573Y-114160507D02*
X97997240Y-114860507D01*
X97763907Y-114160507D01*
X97130573Y-114793840D02*
X97163907Y-114827173D01*
X97263907Y-114860507D01*
X97330573Y-114860507D01*
X97430573Y-114827173D01*
X97497240Y-114760507D01*
X97530573Y-114693840D01*
X97563907Y-114560507D01*
X97563907Y-114460507D01*
X97530573Y-114327173D01*
X97497240Y-114260507D01*
X97430573Y-114193840D01*
X97330573Y-114160507D01*
X97263907Y-114160507D01*
X97163907Y-114193840D01*
X97130573Y-114227173D01*
X96430573Y-114793840D02*
X96463907Y-114827173D01*
X96563907Y-114860507D01*
X96630573Y-114860507D01*
X96730573Y-114827173D01*
X96797240Y-114760507D01*
X96830573Y-114693840D01*
X96863907Y-114560507D01*
X96863907Y-114460507D01*
X96830573Y-114327173D01*
X96797240Y-114260507D01*
X96730573Y-114193840D01*
X96630573Y-114160507D01*
X96563907Y-114160507D01*
X96463907Y-114193840D01*
X96430573Y-114227173D01*
D13*
X100837905Y-101298761D02*
X100837905Y-102108285D01*
X100790286Y-102203523D01*
X100742667Y-102251142D01*
X100647429Y-102298761D01*
X100456952Y-102298761D01*
X100361714Y-102251142D01*
X100314095Y-102203523D01*
X100266476Y-102108285D01*
X100266476Y-101298761D01*
X99266476Y-102298761D02*
X99837905Y-102298761D01*
X99552191Y-102298761D02*
X99552191Y-101298761D01*
X99647429Y-101441618D01*
X99742667Y-101536856D01*
X99837905Y-101584475D01*
%LPC*%
D10*
G36*
X118360280Y-108754796D02*
X119845204Y-110239720D01*
X118148148Y-111936776D01*
X116663224Y-110451852D01*
X118360280Y-108754796D01*
X118360280Y-108754796D01*
G37*
G36*
X115531852Y-111583224D02*
X117016776Y-113068148D01*
X115319720Y-114765204D01*
X113834796Y-113280280D01*
X115531852Y-111583224D01*
X115531852Y-111583224D01*
G37*
D14*
X101107240Y-115813840D03*
D15*
X101107240Y-118353840D03*
X98567240Y-115813840D03*
X98567240Y-118353840D03*
D16*
X91821000Y-97028000D03*
X93091000Y-97028000D03*
X94361000Y-97028000D03*
X95631000Y-97028000D03*
X96901000Y-97028000D03*
X98171000Y-97028000D03*
X99441000Y-97028000D03*
X100711000Y-97028000D03*
X101981000Y-97028000D03*
X103251000Y-97028000D03*
X104521000Y-97028000D03*
X105791000Y-97028000D03*
X107061000Y-97028000D03*
X108331000Y-97028000D03*
X108331000Y-104140000D03*
X107061000Y-104140000D03*
X105791000Y-104140000D03*
X104521000Y-104140000D03*
X103251000Y-104140000D03*
X101981000Y-104140000D03*
X100711000Y-104140000D03*
X99441000Y-104140000D03*
X98171000Y-104140000D03*
X96901000Y-104140000D03*
X95631000Y-104140000D03*
X94361000Y-104140000D03*
X93091000Y-104140000D03*
X91821000Y-104140000D03*
D17*
X99729200Y-109220000D03*
X100829200Y-109220000D03*
D10*
G36*
X112502895Y-114568359D02*
X113221137Y-116541713D01*
X110965875Y-117362561D01*
X110247633Y-115389207D01*
X112502895Y-114568359D01*
X112502895Y-114568359D01*
G37*
G36*
X108744125Y-115936439D02*
X109462367Y-117909793D01*
X107207105Y-118730641D01*
X106488863Y-116757287D01*
X108744125Y-115936439D01*
X108744125Y-115936439D01*
G37*
G36*
X120309572Y-100317011D02*
X122389135Y-100609274D01*
X122055120Y-102985917D01*
X119975557Y-102693654D01*
X120309572Y-100317011D01*
X120309572Y-100317011D01*
G37*
G36*
X119752880Y-104278083D02*
X121832443Y-104570346D01*
X121498428Y-106946989D01*
X119418865Y-106654726D01*
X119752880Y-104278083D01*
X119752880Y-104278083D01*
G37*
G36*
X116248551Y-92884125D02*
X118009759Y-91740383D01*
X119316893Y-93753193D01*
X117555685Y-94896935D01*
X116248551Y-92884125D01*
X116248551Y-92884125D01*
G37*
G36*
X118427107Y-96238807D02*
X120188315Y-95095065D01*
X121495449Y-97107875D01*
X119734241Y-98251617D01*
X118427107Y-96238807D01*
X118427107Y-96238807D01*
G37*
G36*
X107400065Y-87991244D02*
X108287564Y-86087998D01*
X110462703Y-87102282D01*
X109575204Y-89005528D01*
X107400065Y-87991244D01*
X107400065Y-87991244D01*
G37*
G36*
X111025297Y-89681718D02*
X111912796Y-87778472D01*
X114087935Y-88792756D01*
X113200436Y-90696002D01*
X111025297Y-89681718D01*
X111025297Y-89681718D01*
G37*
G36*
X89622281Y-86898673D02*
X90672281Y-88717327D01*
X88593821Y-89917327D01*
X87543821Y-88098673D01*
X89622281Y-86898673D01*
X89622281Y-86898673D01*
G37*
G36*
X86158179Y-88898673D02*
X87208179Y-90717327D01*
X85129719Y-91917327D01*
X84079719Y-90098673D01*
X86158179Y-88898673D01*
X86158179Y-88898673D01*
G37*
G36*
X81462673Y-92207719D02*
X83281327Y-93257719D01*
X82081327Y-95336179D01*
X80262673Y-94286179D01*
X81462673Y-92207719D01*
X81462673Y-92207719D01*
G37*
G36*
X79462673Y-95671821D02*
X81281327Y-96721821D01*
X80081327Y-98800281D01*
X78262673Y-97750281D01*
X79462673Y-95671821D01*
X79462673Y-95671821D01*
G37*
G36*
X77658278Y-100662945D02*
X79726374Y-100298284D01*
X80143130Y-102661823D01*
X78075034Y-103026484D01*
X77658278Y-100662945D01*
X77658278Y-100662945D01*
G37*
G36*
X78352870Y-104602177D02*
X80420966Y-104237516D01*
X80837722Y-106601055D01*
X78769626Y-106965716D01*
X78352870Y-104602177D01*
X78352870Y-104602177D01*
G37*
G36*
X80306796Y-110239720D02*
X81791720Y-108754796D01*
X83488776Y-110451852D01*
X82003852Y-111936776D01*
X80306796Y-110239720D01*
X80306796Y-110239720D01*
G37*
G36*
X83135224Y-113068148D02*
X84620148Y-111583224D01*
X86317204Y-113280280D01*
X84832280Y-114765204D01*
X83135224Y-113068148D01*
X83135224Y-113068148D01*
G37*
G36*
X88073863Y-116732213D02*
X88792105Y-114758859D01*
X91047367Y-115579707D01*
X90329125Y-117553061D01*
X88073863Y-116732213D01*
X88073863Y-116732213D01*
G37*
G36*
X91832633Y-118100293D02*
X92550875Y-116126939D01*
X94806137Y-116947787D01*
X94087895Y-118921141D01*
X91832633Y-118100293D01*
X91832633Y-118100293D01*
G37*
M02*
