G04 #@! TF.FileFunction,Legend,Bot*
%FSLAX46Y46*%
G04 Gerber Fmt 4.6, Leading zero omitted, Abs format (unit mm)*
G04 Created by KiCad (PCBNEW 4.0.7) date 06/01/18 13:29:30*
%MOMM*%
%LPD*%
G01*
G04 APERTURE LIST*
%ADD10C,0.100000*%
%ADD11C,0.125000*%
%ADD12C,0.250000*%
%ADD13C,0.187500*%
%ADD14C,0.300000*%
%ADD15C,0.150000*%
%ADD16C,2.100000*%
%ADD17O,2.100000X2.100000*%
%ADD18R,0.908000X1.543000*%
%ADD19R,1.000000X0.900000*%
G04 APERTURE END LIST*
D10*
D11*
X89484780Y-122165890D02*
X89484780Y-121665890D01*
X89318114Y-122023033D01*
X89151447Y-121665890D01*
X89151447Y-122165890D01*
X88841923Y-122165890D02*
X88889542Y-122142081D01*
X88913351Y-122118271D01*
X88937161Y-122070652D01*
X88937161Y-121927795D01*
X88913351Y-121880176D01*
X88889542Y-121856367D01*
X88841923Y-121832557D01*
X88770494Y-121832557D01*
X88722875Y-121856367D01*
X88699066Y-121880176D01*
X88675256Y-121927795D01*
X88675256Y-122070652D01*
X88699066Y-122118271D01*
X88722875Y-122142081D01*
X88770494Y-122165890D01*
X88841923Y-122165890D01*
X88389542Y-122165890D02*
X88437161Y-122142081D01*
X88460970Y-122118271D01*
X88484780Y-122070652D01*
X88484780Y-121927795D01*
X88460970Y-121880176D01*
X88437161Y-121856367D01*
X88389542Y-121832557D01*
X88318113Y-121832557D01*
X88270494Y-121856367D01*
X88246685Y-121880176D01*
X88222875Y-121927795D01*
X88222875Y-122070652D01*
X88246685Y-122118271D01*
X88270494Y-122142081D01*
X88318113Y-122165890D01*
X88389542Y-122165890D01*
X88008589Y-121832557D02*
X88008589Y-122165890D01*
X88008589Y-121880176D02*
X87984780Y-121856367D01*
X87937161Y-121832557D01*
X87865732Y-121832557D01*
X87818113Y-121856367D01*
X87794304Y-121903986D01*
X87794304Y-122165890D01*
X87341923Y-122142081D02*
X87389542Y-122165890D01*
X87484780Y-122165890D01*
X87532399Y-122142081D01*
X87556208Y-122118271D01*
X87580018Y-122070652D01*
X87580018Y-121927795D01*
X87556208Y-121880176D01*
X87532399Y-121856367D01*
X87484780Y-121832557D01*
X87389542Y-121832557D01*
X87341923Y-121856367D01*
X86913352Y-122165890D02*
X86913352Y-121903986D01*
X86937161Y-121856367D01*
X86984780Y-121832557D01*
X87080018Y-121832557D01*
X87127637Y-121856367D01*
X86913352Y-122142081D02*
X86960971Y-122165890D01*
X87080018Y-122165890D01*
X87127637Y-122142081D01*
X87151447Y-122094462D01*
X87151447Y-122046843D01*
X87127637Y-121999224D01*
X87080018Y-121975414D01*
X86960971Y-121975414D01*
X86913352Y-121951605D01*
X86675256Y-122165890D02*
X86675256Y-121665890D01*
X86627637Y-121975414D02*
X86484780Y-122165890D01*
X86484780Y-121832557D02*
X86675256Y-122023033D01*
X86080018Y-122142081D02*
X86127637Y-122165890D01*
X86222875Y-122165890D01*
X86270494Y-122142081D01*
X86294304Y-122094462D01*
X86294304Y-121903986D01*
X86270494Y-121856367D01*
X86222875Y-121832557D01*
X86127637Y-121832557D01*
X86080018Y-121856367D01*
X86056209Y-121903986D01*
X86056209Y-121951605D01*
X86294304Y-121999224D01*
X88591923Y-123040890D02*
X88758590Y-122802795D01*
X88877637Y-123040890D02*
X88877637Y-122540890D01*
X88687161Y-122540890D01*
X88639542Y-122564700D01*
X88615733Y-122588510D01*
X88591923Y-122636129D01*
X88591923Y-122707557D01*
X88615733Y-122755176D01*
X88639542Y-122778986D01*
X88687161Y-122802795D01*
X88877637Y-122802795D01*
X88187161Y-123017081D02*
X88234780Y-123040890D01*
X88330018Y-123040890D01*
X88377637Y-123017081D01*
X88401447Y-122969462D01*
X88401447Y-122778986D01*
X88377637Y-122731367D01*
X88330018Y-122707557D01*
X88234780Y-122707557D01*
X88187161Y-122731367D01*
X88163352Y-122778986D01*
X88163352Y-122826605D01*
X88401447Y-122874224D01*
X87996685Y-122707557D02*
X87877638Y-123040890D01*
X87758590Y-122707557D01*
X87568114Y-122993271D02*
X87544305Y-123017081D01*
X87568114Y-123040890D01*
X87591924Y-123017081D01*
X87568114Y-122993271D01*
X87568114Y-123040890D01*
X86782401Y-122778986D02*
X86710972Y-122802795D01*
X86687163Y-122826605D01*
X86663353Y-122874224D01*
X86663353Y-122945652D01*
X86687163Y-122993271D01*
X86710972Y-123017081D01*
X86758591Y-123040890D01*
X86949067Y-123040890D01*
X86949067Y-122540890D01*
X86782401Y-122540890D01*
X86734782Y-122564700D01*
X86710972Y-122588510D01*
X86687163Y-122636129D01*
X86687163Y-122683748D01*
X86710972Y-122731367D01*
X86734782Y-122755176D01*
X86782401Y-122778986D01*
X86949067Y-122778986D01*
D12*
X114807097Y-122012983D02*
X114854716Y-122060602D01*
X114997573Y-122108221D01*
X115092811Y-122108221D01*
X115235669Y-122060602D01*
X115330907Y-121965364D01*
X115378526Y-121870126D01*
X115426145Y-121679650D01*
X115426145Y-121536792D01*
X115378526Y-121346316D01*
X115330907Y-121251078D01*
X115235669Y-121155840D01*
X115092811Y-121108221D01*
X114997573Y-121108221D01*
X114854716Y-121155840D01*
X114807097Y-121203459D01*
X114378526Y-122108221D02*
X114378526Y-121108221D01*
X113949954Y-122108221D02*
X113949954Y-121584411D01*
X113997573Y-121489173D01*
X114092811Y-121441554D01*
X114235669Y-121441554D01*
X114330907Y-121489173D01*
X114378526Y-121536792D01*
X113330907Y-122108221D02*
X113426145Y-122060602D01*
X113473764Y-122012983D01*
X113521383Y-121917745D01*
X113521383Y-121632030D01*
X113473764Y-121536792D01*
X113426145Y-121489173D01*
X113330907Y-121441554D01*
X113188049Y-121441554D01*
X113092811Y-121489173D01*
X113045192Y-121536792D01*
X112997573Y-121632030D01*
X112997573Y-121917745D01*
X113045192Y-122012983D01*
X113092811Y-122060602D01*
X113188049Y-122108221D01*
X113330907Y-122108221D01*
X112569002Y-122108221D02*
X112569002Y-121108221D01*
X112473764Y-121727269D02*
X112188049Y-122108221D01*
X112188049Y-121441554D02*
X112569002Y-121822507D01*
X111759478Y-122108221D02*
X111759478Y-121441554D01*
X111759478Y-121108221D02*
X111807097Y-121155840D01*
X111759478Y-121203459D01*
X111711859Y-121155840D01*
X111759478Y-121108221D01*
X111759478Y-121203459D01*
X111426145Y-121441554D02*
X111045193Y-121441554D01*
X111283288Y-121108221D02*
X111283288Y-121965364D01*
X111235669Y-122060602D01*
X111140431Y-122108221D01*
X111045193Y-122108221D01*
X110807097Y-121441554D02*
X110569002Y-122108221D01*
X110330906Y-121441554D02*
X110569002Y-122108221D01*
X110664240Y-122346316D01*
X110711859Y-122393935D01*
X110807097Y-122441554D01*
X109949954Y-122012983D02*
X109902335Y-122060602D01*
X109949954Y-122108221D01*
X109997573Y-122060602D01*
X109949954Y-122012983D01*
X109949954Y-122108221D01*
X109949954Y-121727269D02*
X109997573Y-121155840D01*
X109949954Y-121108221D01*
X109902335Y-121155840D01*
X109949954Y-121727269D01*
X109949954Y-121108221D01*
X112170695Y-110829381D02*
X112170695Y-109829381D01*
X111932600Y-109829381D01*
X111789742Y-109877000D01*
X111694504Y-109972238D01*
X111646885Y-110067476D01*
X111599266Y-110257952D01*
X111599266Y-110400810D01*
X111646885Y-110591286D01*
X111694504Y-110686524D01*
X111789742Y-110781762D01*
X111932600Y-110829381D01*
X112170695Y-110829381D01*
X110789742Y-110781762D02*
X110884980Y-110829381D01*
X111075457Y-110829381D01*
X111170695Y-110781762D01*
X111218314Y-110686524D01*
X111218314Y-110305571D01*
X111170695Y-110210333D01*
X111075457Y-110162714D01*
X110884980Y-110162714D01*
X110789742Y-110210333D01*
X110742123Y-110305571D01*
X110742123Y-110400810D01*
X111218314Y-110496048D01*
X110361171Y-110781762D02*
X110265933Y-110829381D01*
X110075457Y-110829381D01*
X109980218Y-110781762D01*
X109932599Y-110686524D01*
X109932599Y-110638905D01*
X109980218Y-110543667D01*
X110075457Y-110496048D01*
X110218314Y-110496048D01*
X110313552Y-110448429D01*
X110361171Y-110353190D01*
X110361171Y-110305571D01*
X110313552Y-110210333D01*
X110218314Y-110162714D01*
X110075457Y-110162714D01*
X109980218Y-110210333D01*
X109504028Y-110829381D02*
X109504028Y-110162714D01*
X109504028Y-109829381D02*
X109551647Y-109877000D01*
X109504028Y-109924619D01*
X109456409Y-109877000D01*
X109504028Y-109829381D01*
X109504028Y-109924619D01*
X108599266Y-110162714D02*
X108599266Y-110972238D01*
X108646885Y-111067476D01*
X108694504Y-111115095D01*
X108789743Y-111162714D01*
X108932600Y-111162714D01*
X109027838Y-111115095D01*
X108599266Y-110781762D02*
X108694504Y-110829381D01*
X108884981Y-110829381D01*
X108980219Y-110781762D01*
X109027838Y-110734143D01*
X109075457Y-110638905D01*
X109075457Y-110353190D01*
X109027838Y-110257952D01*
X108980219Y-110210333D01*
X108884981Y-110162714D01*
X108694504Y-110162714D01*
X108599266Y-110210333D01*
X108123076Y-110162714D02*
X108123076Y-110829381D01*
X108123076Y-110257952D02*
X108075457Y-110210333D01*
X107980219Y-110162714D01*
X107837361Y-110162714D01*
X107742123Y-110210333D01*
X107694504Y-110305571D01*
X107694504Y-110829381D01*
X106123075Y-110305571D02*
X105980218Y-110353190D01*
X105932599Y-110400810D01*
X105884980Y-110496048D01*
X105884980Y-110638905D01*
X105932599Y-110734143D01*
X105980218Y-110781762D01*
X106075456Y-110829381D01*
X106456409Y-110829381D01*
X106456409Y-109829381D01*
X106123075Y-109829381D01*
X106027837Y-109877000D01*
X105980218Y-109924619D01*
X105932599Y-110019857D01*
X105932599Y-110115095D01*
X105980218Y-110210333D01*
X106027837Y-110257952D01*
X106123075Y-110305571D01*
X106456409Y-110305571D01*
X105551647Y-110162714D02*
X105313552Y-110829381D01*
X105075456Y-110162714D02*
X105313552Y-110829381D01*
X105408790Y-111067476D01*
X105456409Y-111115095D01*
X105551647Y-111162714D01*
X104694504Y-110734143D02*
X104646885Y-110781762D01*
X104694504Y-110829381D01*
X104742123Y-110781762D01*
X104694504Y-110734143D01*
X104694504Y-110829381D01*
X104694504Y-110210333D02*
X104646885Y-110257952D01*
X104694504Y-110305571D01*
X104742123Y-110257952D01*
X104694504Y-110210333D01*
X104694504Y-110305571D01*
X111218314Y-112579381D02*
X111218314Y-111579381D01*
X111218314Y-112531762D02*
X111313552Y-112579381D01*
X111504029Y-112579381D01*
X111599267Y-112531762D01*
X111646886Y-112484143D01*
X111694505Y-112388905D01*
X111694505Y-112103190D01*
X111646886Y-112007952D01*
X111599267Y-111960333D01*
X111504029Y-111912714D01*
X111313552Y-111912714D01*
X111218314Y-111960333D01*
X110313552Y-111912714D02*
X110313552Y-112579381D01*
X110551648Y-111531762D02*
X110789743Y-112246048D01*
X110170695Y-112246048D01*
X109789743Y-112579381D02*
X109789743Y-111912714D01*
X109789743Y-112103190D02*
X109742124Y-112007952D01*
X109694505Y-111960333D01*
X109599267Y-111912714D01*
X109504028Y-111912714D01*
X109170695Y-112579381D02*
X109170695Y-111579381D01*
X109075457Y-112198429D02*
X108789742Y-112579381D01*
X108789742Y-111912714D02*
X109170695Y-112293667D01*
X108456409Y-111912714D02*
X108265933Y-112579381D01*
X108075456Y-112103190D01*
X107884980Y-112579381D01*
X107694504Y-111912714D01*
X107408790Y-111912714D02*
X107170695Y-112579381D01*
X106932599Y-111912714D02*
X107170695Y-112579381D01*
X107265933Y-112817476D01*
X107313552Y-112865095D01*
X107408790Y-112912714D01*
X106551647Y-111912714D02*
X106551647Y-112579381D01*
X106551647Y-112007952D02*
X106504028Y-111960333D01*
X106408790Y-111912714D01*
X106265932Y-111912714D01*
X106170694Y-111960333D01*
X106123075Y-112055571D01*
X106123075Y-112579381D01*
X105218313Y-111912714D02*
X105218313Y-112722238D01*
X105265932Y-112817476D01*
X105313551Y-112865095D01*
X105408790Y-112912714D01*
X105551647Y-112912714D01*
X105646885Y-112865095D01*
X105218313Y-112531762D02*
X105313551Y-112579381D01*
X105504028Y-112579381D01*
X105599266Y-112531762D01*
X105646885Y-112484143D01*
X105694504Y-112388905D01*
X105694504Y-112103190D01*
X105646885Y-112007952D01*
X105599266Y-111960333D01*
X105504028Y-111912714D01*
X105313551Y-111912714D01*
X105218313Y-111960333D01*
D13*
X92804085Y-109833586D02*
X92375514Y-109833586D01*
X92589800Y-110583586D02*
X92589800Y-109833586D01*
X92125514Y-110583586D02*
X92125514Y-109833586D01*
X91804085Y-110583586D02*
X91804085Y-110190729D01*
X91839799Y-110119300D01*
X91911228Y-110083586D01*
X92018371Y-110083586D01*
X92089799Y-110119300D01*
X92125514Y-110155014D01*
X91125514Y-110583586D02*
X91125514Y-110190729D01*
X91161228Y-110119300D01*
X91232657Y-110083586D01*
X91375514Y-110083586D01*
X91446943Y-110119300D01*
X91125514Y-110547871D02*
X91196943Y-110583586D01*
X91375514Y-110583586D01*
X91446943Y-110547871D01*
X91482657Y-110476443D01*
X91482657Y-110405014D01*
X91446943Y-110333586D01*
X91375514Y-110297871D01*
X91196943Y-110297871D01*
X91125514Y-110262157D01*
X90768372Y-110083586D02*
X90768372Y-110583586D01*
X90768372Y-110155014D02*
X90732657Y-110119300D01*
X90661229Y-110083586D01*
X90554086Y-110083586D01*
X90482657Y-110119300D01*
X90446943Y-110190729D01*
X90446943Y-110583586D01*
X90089801Y-110583586D02*
X90089801Y-109833586D01*
X90018372Y-110297871D02*
X89804086Y-110583586D01*
X89804086Y-110083586D02*
X90089801Y-110369300D01*
X88982657Y-110083586D02*
X88804086Y-110583586D01*
X88625514Y-110083586D02*
X88804086Y-110583586D01*
X88875514Y-110762157D01*
X88911229Y-110797871D01*
X88982657Y-110833586D01*
X88232657Y-110583586D02*
X88304085Y-110547871D01*
X88339800Y-110512157D01*
X88375514Y-110440729D01*
X88375514Y-110226443D01*
X88339800Y-110155014D01*
X88304085Y-110119300D01*
X88232657Y-110083586D01*
X88125514Y-110083586D01*
X88054085Y-110119300D01*
X88018371Y-110155014D01*
X87982657Y-110226443D01*
X87982657Y-110440729D01*
X88018371Y-110512157D01*
X88054085Y-110547871D01*
X88125514Y-110583586D01*
X88232657Y-110583586D01*
X87339800Y-110083586D02*
X87339800Y-110583586D01*
X87661229Y-110083586D02*
X87661229Y-110476443D01*
X87625514Y-110547871D01*
X87554086Y-110583586D01*
X87446943Y-110583586D01*
X87375514Y-110547871D01*
X87339800Y-110512157D01*
X86982658Y-110512157D02*
X86946943Y-110547871D01*
X86982658Y-110583586D01*
X87018372Y-110547871D01*
X86982658Y-110512157D01*
X86982658Y-110583586D01*
X86982658Y-110119300D02*
X86946943Y-110155014D01*
X86982658Y-110190729D01*
X87018372Y-110155014D01*
X86982658Y-110119300D01*
X86982658Y-110190729D01*
X92089800Y-111681800D02*
X91732657Y-111681800D01*
X92161228Y-111896086D02*
X91911228Y-111146086D01*
X91661228Y-111896086D01*
X91411229Y-111896086D02*
X91411229Y-111146086D01*
X90982657Y-111896086D01*
X90982657Y-111146086D01*
X90625515Y-111896086D02*
X90625515Y-111146086D01*
X90446943Y-111146086D01*
X90339800Y-111181800D01*
X90268372Y-111253229D01*
X90232657Y-111324657D01*
X90196943Y-111467514D01*
X90196943Y-111574657D01*
X90232657Y-111717514D01*
X90268372Y-111788943D01*
X90339800Y-111860371D01*
X90446943Y-111896086D01*
X90625515Y-111896086D01*
X89875515Y-111824657D02*
X89839800Y-111860371D01*
X89875515Y-111896086D01*
X89911229Y-111860371D01*
X89875515Y-111824657D01*
X89875515Y-111896086D01*
X89875515Y-111610371D02*
X89911229Y-111181800D01*
X89875515Y-111146086D01*
X89839800Y-111181800D01*
X89875515Y-111610371D01*
X89875515Y-111146086D01*
X89589800Y-111146086D02*
X89089800Y-111896086D01*
X89089800Y-111146086D02*
X89589800Y-111896086D01*
X88661228Y-111146086D02*
X88518371Y-111146086D01*
X88446943Y-111181800D01*
X88375514Y-111253229D01*
X88339800Y-111396086D01*
X88339800Y-111646086D01*
X88375514Y-111788943D01*
X88446943Y-111860371D01*
X88518371Y-111896086D01*
X88661228Y-111896086D01*
X88732657Y-111860371D01*
X88804086Y-111788943D01*
X88839800Y-111646086D01*
X88839800Y-111396086D01*
X88804086Y-111253229D01*
X88732657Y-111181800D01*
X88661228Y-111146086D01*
X87589800Y-111896086D02*
X87839800Y-111538943D01*
X88018372Y-111896086D02*
X88018372Y-111146086D01*
X87732657Y-111146086D01*
X87661229Y-111181800D01*
X87625514Y-111217514D01*
X87589800Y-111288943D01*
X87589800Y-111396086D01*
X87625514Y-111467514D01*
X87661229Y-111503229D01*
X87732657Y-111538943D01*
X88018372Y-111538943D01*
X91321943Y-113172871D02*
X91214800Y-113208586D01*
X91036229Y-113208586D01*
X90964800Y-113172871D01*
X90929086Y-113137157D01*
X90893371Y-113065729D01*
X90893371Y-112994300D01*
X90929086Y-112922871D01*
X90964800Y-112887157D01*
X91036229Y-112851443D01*
X91179086Y-112815729D01*
X91250514Y-112780014D01*
X91286229Y-112744300D01*
X91321943Y-112672871D01*
X91321943Y-112601443D01*
X91286229Y-112530014D01*
X91250514Y-112494300D01*
X91179086Y-112458586D01*
X91000514Y-112458586D01*
X90893371Y-112494300D01*
X90571943Y-112708586D02*
X90571943Y-113458586D01*
X90571943Y-112744300D02*
X90500514Y-112708586D01*
X90357657Y-112708586D01*
X90286228Y-112744300D01*
X90250514Y-112780014D01*
X90214800Y-112851443D01*
X90214800Y-113065729D01*
X90250514Y-113137157D01*
X90286228Y-113172871D01*
X90357657Y-113208586D01*
X90500514Y-113208586D01*
X90571943Y-113172871D01*
X89571943Y-113208586D02*
X89571943Y-112815729D01*
X89607657Y-112744300D01*
X89679086Y-112708586D01*
X89821943Y-112708586D01*
X89893372Y-112744300D01*
X89571943Y-113172871D02*
X89643372Y-113208586D01*
X89821943Y-113208586D01*
X89893372Y-113172871D01*
X89929086Y-113101443D01*
X89929086Y-113030014D01*
X89893372Y-112958586D01*
X89821943Y-112922871D01*
X89643372Y-112922871D01*
X89571943Y-112887157D01*
X89214801Y-113208586D02*
X89214801Y-112708586D01*
X89214801Y-112851443D02*
X89179086Y-112780014D01*
X89143372Y-112744300D01*
X89071943Y-112708586D01*
X89000515Y-112708586D01*
X88821943Y-112458586D02*
X88321943Y-113208586D01*
X88321943Y-112458586D02*
X88821943Y-113208586D01*
D14*
X105779817Y-93922731D02*
X104708388Y-93922731D01*
X105351245Y-93279874D02*
X105779817Y-95208446D01*
X104851245Y-94565589D02*
X105922674Y-94565589D01*
X105279817Y-95208446D02*
X104851245Y-93279874D01*
X104208388Y-94922731D02*
X104208388Y-93422731D01*
X104208388Y-93994160D02*
X104065531Y-93922731D01*
X103779817Y-93922731D01*
X103636960Y-93994160D01*
X103565531Y-94065589D01*
X103494102Y-94208446D01*
X103494102Y-94637017D01*
X103565531Y-94779874D01*
X103636960Y-94851303D01*
X103779817Y-94922731D01*
X104065531Y-94922731D01*
X104208388Y-94851303D01*
X102208388Y-94922731D02*
X102208388Y-94137017D01*
X102279817Y-93994160D01*
X102422674Y-93922731D01*
X102708388Y-93922731D01*
X102851245Y-93994160D01*
X102208388Y-94851303D02*
X102351245Y-94922731D01*
X102708388Y-94922731D01*
X102851245Y-94851303D01*
X102922674Y-94708446D01*
X102922674Y-94565589D01*
X102851245Y-94422731D01*
X102708388Y-94351303D01*
X102351245Y-94351303D01*
X102208388Y-94279874D01*
X100851245Y-94922731D02*
X100851245Y-93422731D01*
X100851245Y-94851303D02*
X100994102Y-94922731D01*
X101279816Y-94922731D01*
X101422674Y-94851303D01*
X101494102Y-94779874D01*
X101565531Y-94637017D01*
X101565531Y-94208446D01*
X101494102Y-94065589D01*
X101422674Y-93994160D01*
X101279816Y-93922731D01*
X100994102Y-93922731D01*
X100851245Y-93994160D01*
X99494102Y-93922731D02*
X99494102Y-95137017D01*
X99565531Y-95279874D01*
X99636959Y-95351303D01*
X99779816Y-95422731D01*
X99994102Y-95422731D01*
X100136959Y-95351303D01*
X99494102Y-94851303D02*
X99636959Y-94922731D01*
X99922673Y-94922731D01*
X100065531Y-94851303D01*
X100136959Y-94779874D01*
X100208388Y-94637017D01*
X100208388Y-94208446D01*
X100136959Y-94065589D01*
X100065531Y-93994160D01*
X99922673Y-93922731D01*
X99636959Y-93922731D01*
X99494102Y-93994160D01*
X98208388Y-94851303D02*
X98351245Y-94922731D01*
X98636959Y-94922731D01*
X98779816Y-94851303D01*
X98851245Y-94708446D01*
X98851245Y-94137017D01*
X98779816Y-93994160D01*
X98636959Y-93922731D01*
X98351245Y-93922731D01*
X98208388Y-93994160D01*
X98136959Y-94137017D01*
X98136959Y-94279874D01*
X98851245Y-94422731D01*
X97279816Y-94922731D02*
X97422674Y-94851303D01*
X97494102Y-94708446D01*
X97494102Y-93422731D01*
X96708388Y-94922731D02*
X96708388Y-93922731D01*
X96708388Y-93422731D02*
X96779817Y-93494160D01*
X96708388Y-93565589D01*
X96636960Y-93494160D01*
X96708388Y-93422731D01*
X96708388Y-93565589D01*
X96208388Y-93922731D02*
X95636959Y-93922731D01*
X95994102Y-94922731D02*
X95994102Y-93637017D01*
X95922674Y-93494160D01*
X95779816Y-93422731D01*
X95636959Y-93422731D01*
X94565531Y-94851303D02*
X94708388Y-94922731D01*
X94994102Y-94922731D01*
X95136959Y-94851303D01*
X95208388Y-94708446D01*
X95208388Y-94137017D01*
X95136959Y-93994160D01*
X94994102Y-93922731D01*
X94708388Y-93922731D01*
X94565531Y-93994160D01*
X94494102Y-94137017D01*
X94494102Y-94279874D01*
X95208388Y-94422731D01*
D15*
X108839000Y-97917000D02*
X91186000Y-97917000D01*
X91186000Y-103251000D02*
X108966000Y-103251000D01*
X108966000Y-97917000D02*
X108966000Y-103251000D01*
X91186000Y-103251000D02*
X91186000Y-97917000D01*
X91186000Y-101219000D02*
X92456000Y-101219000D01*
X92456000Y-101219000D02*
X92456000Y-99949000D01*
X92456000Y-99949000D02*
X91186000Y-99949000D01*
D10*
X103227240Y-114827173D02*
X103127240Y-114860507D01*
X102960573Y-114860507D01*
X102893906Y-114827173D01*
X102860573Y-114793840D01*
X102827240Y-114727173D01*
X102827240Y-114660507D01*
X102860573Y-114593840D01*
X102893906Y-114560507D01*
X102960573Y-114527173D01*
X103093906Y-114493840D01*
X103160573Y-114460507D01*
X103193906Y-114427173D01*
X103227240Y-114360507D01*
X103227240Y-114293840D01*
X103193906Y-114227173D01*
X103160573Y-114193840D01*
X103093906Y-114160507D01*
X102927240Y-114160507D01*
X102827240Y-114193840D01*
X102527239Y-114860507D02*
X102527239Y-114160507D01*
X102360573Y-114160507D01*
X102260573Y-114193840D01*
X102193906Y-114260507D01*
X102160573Y-114327173D01*
X102127239Y-114460507D01*
X102127239Y-114560507D01*
X102160573Y-114693840D01*
X102193906Y-114760507D01*
X102260573Y-114827173D01*
X102360573Y-114860507D01*
X102527239Y-114860507D01*
X101860573Y-114660507D02*
X101527239Y-114660507D01*
X101927239Y-114860507D02*
X101693906Y-114160507D01*
X101460573Y-114860507D01*
X103210574Y-119907173D02*
X103110574Y-119940507D01*
X102943907Y-119940507D01*
X102877240Y-119907173D01*
X102843907Y-119873840D01*
X102810574Y-119807173D01*
X102810574Y-119740507D01*
X102843907Y-119673840D01*
X102877240Y-119640507D01*
X102943907Y-119607173D01*
X103077240Y-119573840D01*
X103143907Y-119540507D01*
X103177240Y-119507173D01*
X103210574Y-119440507D01*
X103210574Y-119373840D01*
X103177240Y-119307173D01*
X103143907Y-119273840D01*
X103077240Y-119240507D01*
X102910574Y-119240507D01*
X102810574Y-119273840D01*
X102110573Y-119873840D02*
X102143907Y-119907173D01*
X102243907Y-119940507D01*
X102310573Y-119940507D01*
X102410573Y-119907173D01*
X102477240Y-119840507D01*
X102510573Y-119773840D01*
X102543907Y-119640507D01*
X102543907Y-119540507D01*
X102510573Y-119407173D01*
X102477240Y-119340507D01*
X102410573Y-119273840D01*
X102310573Y-119240507D01*
X102243907Y-119240507D01*
X102143907Y-119273840D01*
X102110573Y-119307173D01*
X101477240Y-119940507D02*
X101810573Y-119940507D01*
X101810573Y-119240507D01*
X97830573Y-119273840D02*
X97897239Y-119240507D01*
X97997239Y-119240507D01*
X98097239Y-119273840D01*
X98163906Y-119340507D01*
X98197239Y-119407173D01*
X98230573Y-119540507D01*
X98230573Y-119640507D01*
X98197239Y-119773840D01*
X98163906Y-119840507D01*
X98097239Y-119907173D01*
X97997239Y-119940507D01*
X97930573Y-119940507D01*
X97830573Y-119907173D01*
X97797239Y-119873840D01*
X97797239Y-119640507D01*
X97930573Y-119640507D01*
X97497239Y-119940507D02*
X97497239Y-119240507D01*
X97097239Y-119940507D01*
X97097239Y-119240507D01*
X96763906Y-119940507D02*
X96763906Y-119240507D01*
X96597240Y-119240507D01*
X96497240Y-119273840D01*
X96430573Y-119340507D01*
X96397240Y-119407173D01*
X96363906Y-119540507D01*
X96363906Y-119640507D01*
X96397240Y-119773840D01*
X96430573Y-119840507D01*
X96497240Y-119907173D01*
X96597240Y-119940507D01*
X96763906Y-119940507D01*
X98230573Y-114160507D02*
X97997240Y-114860507D01*
X97763907Y-114160507D01*
X97130573Y-114793840D02*
X97163907Y-114827173D01*
X97263907Y-114860507D01*
X97330573Y-114860507D01*
X97430573Y-114827173D01*
X97497240Y-114760507D01*
X97530573Y-114693840D01*
X97563907Y-114560507D01*
X97563907Y-114460507D01*
X97530573Y-114327173D01*
X97497240Y-114260507D01*
X97430573Y-114193840D01*
X97330573Y-114160507D01*
X97263907Y-114160507D01*
X97163907Y-114193840D01*
X97130573Y-114227173D01*
X96430573Y-114793840D02*
X96463907Y-114827173D01*
X96563907Y-114860507D01*
X96630573Y-114860507D01*
X96730573Y-114827173D01*
X96797240Y-114760507D01*
X96830573Y-114693840D01*
X96863907Y-114560507D01*
X96863907Y-114460507D01*
X96830573Y-114327173D01*
X96797240Y-114260507D01*
X96730573Y-114193840D01*
X96630573Y-114160507D01*
X96563907Y-114160507D01*
X96463907Y-114193840D01*
X96430573Y-114227173D01*
%LPC*%
D16*
X101107240Y-115813840D03*
D17*
X101107240Y-118353840D03*
X98567240Y-115813840D03*
X98567240Y-118353840D03*
D10*
G36*
X118360280Y-108754796D02*
X119845204Y-110239720D01*
X118148148Y-111936776D01*
X116663224Y-110451852D01*
X118360280Y-108754796D01*
X118360280Y-108754796D01*
G37*
G36*
X115531852Y-111583224D02*
X117016776Y-113068148D01*
X115319720Y-114765204D01*
X113834796Y-113280280D01*
X115531852Y-111583224D01*
X115531852Y-111583224D01*
G37*
D18*
X91821000Y-97028000D03*
X93091000Y-97028000D03*
X94361000Y-97028000D03*
X95631000Y-97028000D03*
X96901000Y-97028000D03*
X98171000Y-97028000D03*
X99441000Y-97028000D03*
X100711000Y-97028000D03*
X101981000Y-97028000D03*
X103251000Y-97028000D03*
X104521000Y-97028000D03*
X105791000Y-97028000D03*
X107061000Y-97028000D03*
X108331000Y-97028000D03*
X108331000Y-104140000D03*
X107061000Y-104140000D03*
X105791000Y-104140000D03*
X104521000Y-104140000D03*
X103251000Y-104140000D03*
X101981000Y-104140000D03*
X100711000Y-104140000D03*
X99441000Y-104140000D03*
X98171000Y-104140000D03*
X96901000Y-104140000D03*
X95631000Y-104140000D03*
X94361000Y-104140000D03*
X93091000Y-104140000D03*
X91821000Y-104140000D03*
D19*
X100829200Y-109220000D03*
X99729200Y-109220000D03*
D10*
G36*
X112502895Y-114568359D02*
X113221137Y-116541713D01*
X110965875Y-117362561D01*
X110247633Y-115389207D01*
X112502895Y-114568359D01*
X112502895Y-114568359D01*
G37*
G36*
X108744125Y-115936439D02*
X109462367Y-117909793D01*
X107207105Y-118730641D01*
X106488863Y-116757287D01*
X108744125Y-115936439D01*
X108744125Y-115936439D01*
G37*
G36*
X120309572Y-100317011D02*
X122389135Y-100609274D01*
X122055120Y-102985917D01*
X119975557Y-102693654D01*
X120309572Y-100317011D01*
X120309572Y-100317011D01*
G37*
G36*
X119752880Y-104278083D02*
X121832443Y-104570346D01*
X121498428Y-106946989D01*
X119418865Y-106654726D01*
X119752880Y-104278083D01*
X119752880Y-104278083D01*
G37*
G36*
X116248551Y-92884125D02*
X118009759Y-91740383D01*
X119316893Y-93753193D01*
X117555685Y-94896935D01*
X116248551Y-92884125D01*
X116248551Y-92884125D01*
G37*
G36*
X118427107Y-96238807D02*
X120188315Y-95095065D01*
X121495449Y-97107875D01*
X119734241Y-98251617D01*
X118427107Y-96238807D01*
X118427107Y-96238807D01*
G37*
G36*
X107400065Y-87991244D02*
X108287564Y-86087998D01*
X110462703Y-87102282D01*
X109575204Y-89005528D01*
X107400065Y-87991244D01*
X107400065Y-87991244D01*
G37*
G36*
X111025297Y-89681718D02*
X111912796Y-87778472D01*
X114087935Y-88792756D01*
X113200436Y-90696002D01*
X111025297Y-89681718D01*
X111025297Y-89681718D01*
G37*
G36*
X89622281Y-86898673D02*
X90672281Y-88717327D01*
X88593821Y-89917327D01*
X87543821Y-88098673D01*
X89622281Y-86898673D01*
X89622281Y-86898673D01*
G37*
G36*
X86158179Y-88898673D02*
X87208179Y-90717327D01*
X85129719Y-91917327D01*
X84079719Y-90098673D01*
X86158179Y-88898673D01*
X86158179Y-88898673D01*
G37*
G36*
X81462673Y-92207719D02*
X83281327Y-93257719D01*
X82081327Y-95336179D01*
X80262673Y-94286179D01*
X81462673Y-92207719D01*
X81462673Y-92207719D01*
G37*
G36*
X79462673Y-95671821D02*
X81281327Y-96721821D01*
X80081327Y-98800281D01*
X78262673Y-97750281D01*
X79462673Y-95671821D01*
X79462673Y-95671821D01*
G37*
G36*
X77658278Y-100662945D02*
X79726374Y-100298284D01*
X80143130Y-102661823D01*
X78075034Y-103026484D01*
X77658278Y-100662945D01*
X77658278Y-100662945D01*
G37*
G36*
X78352870Y-104602177D02*
X80420966Y-104237516D01*
X80837722Y-106601055D01*
X78769626Y-106965716D01*
X78352870Y-104602177D01*
X78352870Y-104602177D01*
G37*
G36*
X80306796Y-110239720D02*
X81791720Y-108754796D01*
X83488776Y-110451852D01*
X82003852Y-111936776D01*
X80306796Y-110239720D01*
X80306796Y-110239720D01*
G37*
G36*
X83135224Y-113068148D02*
X84620148Y-111583224D01*
X86317204Y-113280280D01*
X84832280Y-114765204D01*
X83135224Y-113068148D01*
X83135224Y-113068148D01*
G37*
G36*
X88073863Y-116732213D02*
X88792105Y-114758859D01*
X91047367Y-115579707D01*
X90329125Y-117553061D01*
X88073863Y-116732213D01*
X88073863Y-116732213D01*
G37*
G36*
X91832633Y-118100293D02*
X92550875Y-116126939D01*
X94806137Y-116947787D01*
X94087895Y-118921141D01*
X91832633Y-118100293D01*
X91832633Y-118100293D01*
G37*
M02*
