G04 #@! TF.FileFunction,Legend,Bot*
%FSLAX46Y46*%
G04 Gerber Fmt 4.6, Leading zero omitted, Abs format (unit mm)*
G04 Created by KiCad (PCBNEW 4.0.7) date 06/13/18 11:19:53*
%MOMM*%
%LPD*%
G01*
G04 APERTURE LIST*
%ADD10C,0.100000*%
%ADD11C,0.125000*%
%ADD12C,0.250000*%
%ADD13C,0.187500*%
%ADD14C,0.300000*%
%ADD15C,0.120000*%
%ADD16C,0.152400*%
%ADD17C,0.150000*%
%ADD18C,0.050000*%
%ADD19C,2.100000*%
%ADD20O,2.100000X2.100000*%
%ADD21R,2.400000X2.000000*%
%ADD22R,1.162000X1.543000*%
G04 APERTURE END LIST*
D10*
D11*
X89484780Y-122165890D02*
X89484780Y-121665890D01*
X89318114Y-122023033D01*
X89151447Y-121665890D01*
X89151447Y-122165890D01*
X88841923Y-122165890D02*
X88889542Y-122142081D01*
X88913351Y-122118271D01*
X88937161Y-122070652D01*
X88937161Y-121927795D01*
X88913351Y-121880176D01*
X88889542Y-121856367D01*
X88841923Y-121832557D01*
X88770494Y-121832557D01*
X88722875Y-121856367D01*
X88699066Y-121880176D01*
X88675256Y-121927795D01*
X88675256Y-122070652D01*
X88699066Y-122118271D01*
X88722875Y-122142081D01*
X88770494Y-122165890D01*
X88841923Y-122165890D01*
X88389542Y-122165890D02*
X88437161Y-122142081D01*
X88460970Y-122118271D01*
X88484780Y-122070652D01*
X88484780Y-121927795D01*
X88460970Y-121880176D01*
X88437161Y-121856367D01*
X88389542Y-121832557D01*
X88318113Y-121832557D01*
X88270494Y-121856367D01*
X88246685Y-121880176D01*
X88222875Y-121927795D01*
X88222875Y-122070652D01*
X88246685Y-122118271D01*
X88270494Y-122142081D01*
X88318113Y-122165890D01*
X88389542Y-122165890D01*
X88008589Y-121832557D02*
X88008589Y-122165890D01*
X88008589Y-121880176D02*
X87984780Y-121856367D01*
X87937161Y-121832557D01*
X87865732Y-121832557D01*
X87818113Y-121856367D01*
X87794304Y-121903986D01*
X87794304Y-122165890D01*
X87341923Y-122142081D02*
X87389542Y-122165890D01*
X87484780Y-122165890D01*
X87532399Y-122142081D01*
X87556208Y-122118271D01*
X87580018Y-122070652D01*
X87580018Y-121927795D01*
X87556208Y-121880176D01*
X87532399Y-121856367D01*
X87484780Y-121832557D01*
X87389542Y-121832557D01*
X87341923Y-121856367D01*
X86913352Y-122165890D02*
X86913352Y-121903986D01*
X86937161Y-121856367D01*
X86984780Y-121832557D01*
X87080018Y-121832557D01*
X87127637Y-121856367D01*
X86913352Y-122142081D02*
X86960971Y-122165890D01*
X87080018Y-122165890D01*
X87127637Y-122142081D01*
X87151447Y-122094462D01*
X87151447Y-122046843D01*
X87127637Y-121999224D01*
X87080018Y-121975414D01*
X86960971Y-121975414D01*
X86913352Y-121951605D01*
X86675256Y-122165890D02*
X86675256Y-121665890D01*
X86627637Y-121975414D02*
X86484780Y-122165890D01*
X86484780Y-121832557D02*
X86675256Y-122023033D01*
X86080018Y-122142081D02*
X86127637Y-122165890D01*
X86222875Y-122165890D01*
X86270494Y-122142081D01*
X86294304Y-122094462D01*
X86294304Y-121903986D01*
X86270494Y-121856367D01*
X86222875Y-121832557D01*
X86127637Y-121832557D01*
X86080018Y-121856367D01*
X86056209Y-121903986D01*
X86056209Y-121951605D01*
X86294304Y-121999224D01*
X88591923Y-123040890D02*
X88758590Y-122802795D01*
X88877637Y-123040890D02*
X88877637Y-122540890D01*
X88687161Y-122540890D01*
X88639542Y-122564700D01*
X88615733Y-122588510D01*
X88591923Y-122636129D01*
X88591923Y-122707557D01*
X88615733Y-122755176D01*
X88639542Y-122778986D01*
X88687161Y-122802795D01*
X88877637Y-122802795D01*
X88187161Y-123017081D02*
X88234780Y-123040890D01*
X88330018Y-123040890D01*
X88377637Y-123017081D01*
X88401447Y-122969462D01*
X88401447Y-122778986D01*
X88377637Y-122731367D01*
X88330018Y-122707557D01*
X88234780Y-122707557D01*
X88187161Y-122731367D01*
X88163352Y-122778986D01*
X88163352Y-122826605D01*
X88401447Y-122874224D01*
X87996685Y-122707557D02*
X87877638Y-123040890D01*
X87758590Y-122707557D01*
X87568114Y-122993271D02*
X87544305Y-123017081D01*
X87568114Y-123040890D01*
X87591924Y-123017081D01*
X87568114Y-122993271D01*
X87568114Y-123040890D01*
X86663353Y-122993271D02*
X86687163Y-123017081D01*
X86758591Y-123040890D01*
X86806210Y-123040890D01*
X86877639Y-123017081D01*
X86925258Y-122969462D01*
X86949067Y-122921843D01*
X86972877Y-122826605D01*
X86972877Y-122755176D01*
X86949067Y-122659938D01*
X86925258Y-122612319D01*
X86877639Y-122564700D01*
X86806210Y-122540890D01*
X86758591Y-122540890D01*
X86687163Y-122564700D01*
X86663353Y-122588510D01*
D12*
X114807097Y-122012983D02*
X114854716Y-122060602D01*
X114997573Y-122108221D01*
X115092811Y-122108221D01*
X115235669Y-122060602D01*
X115330907Y-121965364D01*
X115378526Y-121870126D01*
X115426145Y-121679650D01*
X115426145Y-121536792D01*
X115378526Y-121346316D01*
X115330907Y-121251078D01*
X115235669Y-121155840D01*
X115092811Y-121108221D01*
X114997573Y-121108221D01*
X114854716Y-121155840D01*
X114807097Y-121203459D01*
X114378526Y-122108221D02*
X114378526Y-121108221D01*
X113949954Y-122108221D02*
X113949954Y-121584411D01*
X113997573Y-121489173D01*
X114092811Y-121441554D01*
X114235669Y-121441554D01*
X114330907Y-121489173D01*
X114378526Y-121536792D01*
X113330907Y-122108221D02*
X113426145Y-122060602D01*
X113473764Y-122012983D01*
X113521383Y-121917745D01*
X113521383Y-121632030D01*
X113473764Y-121536792D01*
X113426145Y-121489173D01*
X113330907Y-121441554D01*
X113188049Y-121441554D01*
X113092811Y-121489173D01*
X113045192Y-121536792D01*
X112997573Y-121632030D01*
X112997573Y-121917745D01*
X113045192Y-122012983D01*
X113092811Y-122060602D01*
X113188049Y-122108221D01*
X113330907Y-122108221D01*
X112569002Y-122108221D02*
X112569002Y-121108221D01*
X112473764Y-121727269D02*
X112188049Y-122108221D01*
X112188049Y-121441554D02*
X112569002Y-121822507D01*
X111759478Y-122108221D02*
X111759478Y-121441554D01*
X111759478Y-121108221D02*
X111807097Y-121155840D01*
X111759478Y-121203459D01*
X111711859Y-121155840D01*
X111759478Y-121108221D01*
X111759478Y-121203459D01*
X111426145Y-121441554D02*
X111045193Y-121441554D01*
X111283288Y-121108221D02*
X111283288Y-121965364D01*
X111235669Y-122060602D01*
X111140431Y-122108221D01*
X111045193Y-122108221D01*
X110807097Y-121441554D02*
X110569002Y-122108221D01*
X110330906Y-121441554D02*
X110569002Y-122108221D01*
X110664240Y-122346316D01*
X110711859Y-122393935D01*
X110807097Y-122441554D01*
X109949954Y-122012983D02*
X109902335Y-122060602D01*
X109949954Y-122108221D01*
X109997573Y-122060602D01*
X109949954Y-122012983D01*
X109949954Y-122108221D01*
X109949954Y-121727269D02*
X109997573Y-121155840D01*
X109949954Y-121108221D01*
X109902335Y-121155840D01*
X109949954Y-121727269D01*
X109949954Y-121108221D01*
D13*
X111464772Y-108572836D02*
X111464772Y-107822836D01*
X111286200Y-107822836D01*
X111179057Y-107858550D01*
X111107629Y-107929979D01*
X111071914Y-108001407D01*
X111036200Y-108144264D01*
X111036200Y-108251407D01*
X111071914Y-108394264D01*
X111107629Y-108465693D01*
X111179057Y-108537121D01*
X111286200Y-108572836D01*
X111464772Y-108572836D01*
X110429057Y-108537121D02*
X110500486Y-108572836D01*
X110643343Y-108572836D01*
X110714772Y-108537121D01*
X110750486Y-108465693D01*
X110750486Y-108179979D01*
X110714772Y-108108550D01*
X110643343Y-108072836D01*
X110500486Y-108072836D01*
X110429057Y-108108550D01*
X110393343Y-108179979D01*
X110393343Y-108251407D01*
X110750486Y-108322836D01*
X110107629Y-108537121D02*
X110036200Y-108572836D01*
X109893343Y-108572836D01*
X109821915Y-108537121D01*
X109786200Y-108465693D01*
X109786200Y-108429979D01*
X109821915Y-108358550D01*
X109893343Y-108322836D01*
X110000486Y-108322836D01*
X110071915Y-108287121D01*
X110107629Y-108215693D01*
X110107629Y-108179979D01*
X110071915Y-108108550D01*
X110000486Y-108072836D01*
X109893343Y-108072836D01*
X109821915Y-108108550D01*
X109464772Y-108572836D02*
X109464772Y-108072836D01*
X109464772Y-107822836D02*
X109500486Y-107858550D01*
X109464772Y-107894264D01*
X109429057Y-107858550D01*
X109464772Y-107822836D01*
X109464772Y-107894264D01*
X108786200Y-108072836D02*
X108786200Y-108679979D01*
X108821914Y-108751407D01*
X108857629Y-108787121D01*
X108929057Y-108822836D01*
X109036200Y-108822836D01*
X109107629Y-108787121D01*
X108786200Y-108537121D02*
X108857629Y-108572836D01*
X109000486Y-108572836D01*
X109071914Y-108537121D01*
X109107629Y-108501407D01*
X109143343Y-108429979D01*
X109143343Y-108215693D01*
X109107629Y-108144264D01*
X109071914Y-108108550D01*
X109000486Y-108072836D01*
X108857629Y-108072836D01*
X108786200Y-108108550D01*
X108429058Y-108072836D02*
X108429058Y-108572836D01*
X108429058Y-108144264D02*
X108393343Y-108108550D01*
X108321915Y-108072836D01*
X108214772Y-108072836D01*
X108143343Y-108108550D01*
X108107629Y-108179979D01*
X108107629Y-108572836D01*
X106929058Y-108179979D02*
X106821915Y-108215693D01*
X106786200Y-108251407D01*
X106750486Y-108322836D01*
X106750486Y-108429979D01*
X106786200Y-108501407D01*
X106821915Y-108537121D01*
X106893343Y-108572836D01*
X107179058Y-108572836D01*
X107179058Y-107822836D01*
X106929058Y-107822836D01*
X106857629Y-107858550D01*
X106821915Y-107894264D01*
X106786200Y-107965693D01*
X106786200Y-108037121D01*
X106821915Y-108108550D01*
X106857629Y-108144264D01*
X106929058Y-108179979D01*
X107179058Y-108179979D01*
X106500486Y-108072836D02*
X106321915Y-108572836D01*
X106143343Y-108072836D02*
X106321915Y-108572836D01*
X106393343Y-108751407D01*
X106429058Y-108787121D01*
X106500486Y-108822836D01*
X105857629Y-108501407D02*
X105821914Y-108537121D01*
X105857629Y-108572836D01*
X105893343Y-108537121D01*
X105857629Y-108501407D01*
X105857629Y-108572836D01*
X105857629Y-108108550D02*
X105821914Y-108144264D01*
X105857629Y-108179979D01*
X105893343Y-108144264D01*
X105857629Y-108108550D01*
X105857629Y-108179979D01*
X110750485Y-109885336D02*
X110750485Y-109135336D01*
X110750485Y-109849621D02*
X110821914Y-109885336D01*
X110964771Y-109885336D01*
X111036199Y-109849621D01*
X111071914Y-109813907D01*
X111107628Y-109742479D01*
X111107628Y-109528193D01*
X111071914Y-109456764D01*
X111036199Y-109421050D01*
X110964771Y-109385336D01*
X110821914Y-109385336D01*
X110750485Y-109421050D01*
X110071914Y-109385336D02*
X110071914Y-109885336D01*
X110250485Y-109099621D02*
X110429057Y-109635336D01*
X109964771Y-109635336D01*
X109679057Y-109885336D02*
X109679057Y-109385336D01*
X109679057Y-109528193D02*
X109643342Y-109456764D01*
X109607628Y-109421050D01*
X109536199Y-109385336D01*
X109464771Y-109385336D01*
X109214771Y-109885336D02*
X109214771Y-109135336D01*
X109143342Y-109599621D02*
X108929056Y-109885336D01*
X108929056Y-109385336D02*
X109214771Y-109671050D01*
X108679056Y-109385336D02*
X108536199Y-109885336D01*
X108393342Y-109528193D01*
X108250485Y-109885336D01*
X108107628Y-109385336D01*
X107893342Y-109385336D02*
X107714771Y-109885336D01*
X107536199Y-109385336D02*
X107714771Y-109885336D01*
X107786199Y-110063907D01*
X107821914Y-110099621D01*
X107893342Y-110135336D01*
X107250485Y-109385336D02*
X107250485Y-109885336D01*
X107250485Y-109456764D02*
X107214770Y-109421050D01*
X107143342Y-109385336D01*
X107036199Y-109385336D01*
X106964770Y-109421050D01*
X106929056Y-109492479D01*
X106929056Y-109885336D01*
X106250485Y-109385336D02*
X106250485Y-109992479D01*
X106286199Y-110063907D01*
X106321914Y-110099621D01*
X106393342Y-110135336D01*
X106500485Y-110135336D01*
X106571914Y-110099621D01*
X106250485Y-109849621D02*
X106321914Y-109885336D01*
X106464771Y-109885336D01*
X106536199Y-109849621D01*
X106571914Y-109813907D01*
X106607628Y-109742479D01*
X106607628Y-109528193D01*
X106571914Y-109456764D01*
X106536199Y-109421050D01*
X106464771Y-109385336D01*
X106321914Y-109385336D01*
X106250485Y-109421050D01*
X95192314Y-107804671D02*
X95085171Y-107840386D01*
X94906600Y-107840386D01*
X94835171Y-107804671D01*
X94799457Y-107768957D01*
X94763742Y-107697529D01*
X94763742Y-107626100D01*
X94799457Y-107554671D01*
X94835171Y-107518957D01*
X94906600Y-107483243D01*
X95049457Y-107447529D01*
X95120885Y-107411814D01*
X95156600Y-107376100D01*
X95192314Y-107304671D01*
X95192314Y-107233243D01*
X95156600Y-107161814D01*
X95120885Y-107126100D01*
X95049457Y-107090386D01*
X94870885Y-107090386D01*
X94763742Y-107126100D01*
X94442314Y-107340386D02*
X94442314Y-108090386D01*
X94442314Y-107376100D02*
X94370885Y-107340386D01*
X94228028Y-107340386D01*
X94156599Y-107376100D01*
X94120885Y-107411814D01*
X94085171Y-107483243D01*
X94085171Y-107697529D01*
X94120885Y-107768957D01*
X94156599Y-107804671D01*
X94228028Y-107840386D01*
X94370885Y-107840386D01*
X94442314Y-107804671D01*
X93478028Y-107804671D02*
X93549457Y-107840386D01*
X93692314Y-107840386D01*
X93763743Y-107804671D01*
X93799457Y-107733243D01*
X93799457Y-107447529D01*
X93763743Y-107376100D01*
X93692314Y-107340386D01*
X93549457Y-107340386D01*
X93478028Y-107376100D01*
X93442314Y-107447529D01*
X93442314Y-107518957D01*
X93799457Y-107590386D01*
X92799457Y-107804671D02*
X92870886Y-107840386D01*
X93013743Y-107840386D01*
X93085171Y-107804671D01*
X93120886Y-107768957D01*
X93156600Y-107697529D01*
X93156600Y-107483243D01*
X93120886Y-107411814D01*
X93085171Y-107376100D01*
X93013743Y-107340386D01*
X92870886Y-107340386D01*
X92799457Y-107376100D01*
X92478029Y-107840386D02*
X92478029Y-107340386D01*
X92478029Y-107090386D02*
X92513743Y-107126100D01*
X92478029Y-107161814D01*
X92442314Y-107126100D01*
X92478029Y-107090386D01*
X92478029Y-107161814D01*
X91799457Y-107840386D02*
X91799457Y-107447529D01*
X91835171Y-107376100D01*
X91906600Y-107340386D01*
X92049457Y-107340386D01*
X92120886Y-107376100D01*
X91799457Y-107804671D02*
X91870886Y-107840386D01*
X92049457Y-107840386D01*
X92120886Y-107804671D01*
X92156600Y-107733243D01*
X92156600Y-107661814D01*
X92120886Y-107590386D01*
X92049457Y-107554671D01*
X91870886Y-107554671D01*
X91799457Y-107518957D01*
X91335172Y-107840386D02*
X91406600Y-107804671D01*
X91442315Y-107733243D01*
X91442315Y-107090386D01*
X90585171Y-107090386D02*
X90156600Y-107090386D01*
X90370886Y-107840386D02*
X90370886Y-107090386D01*
X89906600Y-107840386D02*
X89906600Y-107090386D01*
X89585171Y-107840386D02*
X89585171Y-107447529D01*
X89620885Y-107376100D01*
X89692314Y-107340386D01*
X89799457Y-107340386D01*
X89870885Y-107376100D01*
X89906600Y-107411814D01*
X88906600Y-107840386D02*
X88906600Y-107447529D01*
X88942314Y-107376100D01*
X89013743Y-107340386D01*
X89156600Y-107340386D01*
X89228029Y-107376100D01*
X88906600Y-107804671D02*
X88978029Y-107840386D01*
X89156600Y-107840386D01*
X89228029Y-107804671D01*
X89263743Y-107733243D01*
X89263743Y-107661814D01*
X89228029Y-107590386D01*
X89156600Y-107554671D01*
X88978029Y-107554671D01*
X88906600Y-107518957D01*
X88549458Y-107340386D02*
X88549458Y-107840386D01*
X88549458Y-107411814D02*
X88513743Y-107376100D01*
X88442315Y-107340386D01*
X88335172Y-107340386D01*
X88263743Y-107376100D01*
X88228029Y-107447529D01*
X88228029Y-107840386D01*
X87870887Y-107840386D02*
X87870887Y-107090386D01*
X87799458Y-107554671D02*
X87585172Y-107840386D01*
X87585172Y-107340386D02*
X87870887Y-107626100D01*
X87299458Y-107804671D02*
X87228029Y-107840386D01*
X87085172Y-107840386D01*
X87013744Y-107804671D01*
X86978029Y-107733243D01*
X86978029Y-107697529D01*
X87013744Y-107626100D01*
X87085172Y-107590386D01*
X87192315Y-107590386D01*
X87263744Y-107554671D01*
X87299458Y-107483243D01*
X87299458Y-107447529D01*
X87263744Y-107376100D01*
X87192315Y-107340386D01*
X87085172Y-107340386D01*
X87013744Y-107376100D01*
X86656601Y-107768957D02*
X86620886Y-107804671D01*
X86656601Y-107840386D01*
X86692315Y-107804671D01*
X86656601Y-107768957D01*
X86656601Y-107840386D01*
X86656601Y-107376100D02*
X86620886Y-107411814D01*
X86656601Y-107447529D01*
X86692315Y-107411814D01*
X86656601Y-107376100D01*
X86656601Y-107447529D01*
X93156600Y-108938600D02*
X92799457Y-108938600D01*
X93228028Y-109152886D02*
X92978028Y-108402886D01*
X92728028Y-109152886D01*
X92478029Y-109152886D02*
X92478029Y-108402886D01*
X92049457Y-109152886D01*
X92049457Y-108402886D01*
X91692315Y-109152886D02*
X91692315Y-108402886D01*
X91513743Y-108402886D01*
X91406600Y-108438600D01*
X91335172Y-108510029D01*
X91299457Y-108581457D01*
X91263743Y-108724314D01*
X91263743Y-108831457D01*
X91299457Y-108974314D01*
X91335172Y-109045743D01*
X91406600Y-109117171D01*
X91513743Y-109152886D01*
X91692315Y-109152886D01*
X90942315Y-109081457D02*
X90906600Y-109117171D01*
X90942315Y-109152886D01*
X90978029Y-109117171D01*
X90942315Y-109081457D01*
X90942315Y-109152886D01*
X90942315Y-108867171D02*
X90978029Y-108438600D01*
X90942315Y-108402886D01*
X90906600Y-108438600D01*
X90942315Y-108867171D01*
X90942315Y-108402886D01*
X90656600Y-108402886D02*
X90156600Y-109152886D01*
X90156600Y-108402886D02*
X90656600Y-109152886D01*
X89728028Y-108402886D02*
X89585171Y-108402886D01*
X89513743Y-108438600D01*
X89442314Y-108510029D01*
X89406600Y-108652886D01*
X89406600Y-108902886D01*
X89442314Y-109045743D01*
X89513743Y-109117171D01*
X89585171Y-109152886D01*
X89728028Y-109152886D01*
X89799457Y-109117171D01*
X89870886Y-109045743D01*
X89906600Y-108902886D01*
X89906600Y-108652886D01*
X89870886Y-108510029D01*
X89799457Y-108438600D01*
X89728028Y-108402886D01*
X88656600Y-109152886D02*
X88906600Y-108795743D01*
X89085172Y-109152886D02*
X89085172Y-108402886D01*
X88799457Y-108402886D01*
X88728029Y-108438600D01*
X88692314Y-108474314D01*
X88656600Y-108545743D01*
X88656600Y-108652886D01*
X88692314Y-108724314D01*
X88728029Y-108760029D01*
X88799457Y-108795743D01*
X89085172Y-108795743D01*
X92388743Y-110429671D02*
X92281600Y-110465386D01*
X92103029Y-110465386D01*
X92031600Y-110429671D01*
X91995886Y-110393957D01*
X91960171Y-110322529D01*
X91960171Y-110251100D01*
X91995886Y-110179671D01*
X92031600Y-110143957D01*
X92103029Y-110108243D01*
X92245886Y-110072529D01*
X92317314Y-110036814D01*
X92353029Y-110001100D01*
X92388743Y-109929671D01*
X92388743Y-109858243D01*
X92353029Y-109786814D01*
X92317314Y-109751100D01*
X92245886Y-109715386D01*
X92067314Y-109715386D01*
X91960171Y-109751100D01*
X91638743Y-109965386D02*
X91638743Y-110715386D01*
X91638743Y-110001100D02*
X91567314Y-109965386D01*
X91424457Y-109965386D01*
X91353028Y-110001100D01*
X91317314Y-110036814D01*
X91281600Y-110108243D01*
X91281600Y-110322529D01*
X91317314Y-110393957D01*
X91353028Y-110429671D01*
X91424457Y-110465386D01*
X91567314Y-110465386D01*
X91638743Y-110429671D01*
X90638743Y-110465386D02*
X90638743Y-110072529D01*
X90674457Y-110001100D01*
X90745886Y-109965386D01*
X90888743Y-109965386D01*
X90960172Y-110001100D01*
X90638743Y-110429671D02*
X90710172Y-110465386D01*
X90888743Y-110465386D01*
X90960172Y-110429671D01*
X90995886Y-110358243D01*
X90995886Y-110286814D01*
X90960172Y-110215386D01*
X90888743Y-110179671D01*
X90710172Y-110179671D01*
X90638743Y-110143957D01*
X90281601Y-110465386D02*
X90281601Y-109965386D01*
X90281601Y-110108243D02*
X90245886Y-110036814D01*
X90210172Y-110001100D01*
X90138743Y-109965386D01*
X90067315Y-109965386D01*
X89888743Y-109715386D02*
X89388743Y-110465386D01*
X89388743Y-109715386D02*
X89888743Y-110465386D01*
D14*
X105779817Y-93922731D02*
X104708388Y-93922731D01*
X105351245Y-93279874D02*
X105779817Y-95208446D01*
X104851245Y-94565589D02*
X105922674Y-94565589D01*
X105279817Y-95208446D02*
X104851245Y-93279874D01*
X104208388Y-94922731D02*
X104208388Y-93422731D01*
X104208388Y-93994160D02*
X104065531Y-93922731D01*
X103779817Y-93922731D01*
X103636960Y-93994160D01*
X103565531Y-94065589D01*
X103494102Y-94208446D01*
X103494102Y-94637017D01*
X103565531Y-94779874D01*
X103636960Y-94851303D01*
X103779817Y-94922731D01*
X104065531Y-94922731D01*
X104208388Y-94851303D01*
X102208388Y-94922731D02*
X102208388Y-94137017D01*
X102279817Y-93994160D01*
X102422674Y-93922731D01*
X102708388Y-93922731D01*
X102851245Y-93994160D01*
X102208388Y-94851303D02*
X102351245Y-94922731D01*
X102708388Y-94922731D01*
X102851245Y-94851303D01*
X102922674Y-94708446D01*
X102922674Y-94565589D01*
X102851245Y-94422731D01*
X102708388Y-94351303D01*
X102351245Y-94351303D01*
X102208388Y-94279874D01*
X100851245Y-94922731D02*
X100851245Y-93422731D01*
X100851245Y-94851303D02*
X100994102Y-94922731D01*
X101279816Y-94922731D01*
X101422674Y-94851303D01*
X101494102Y-94779874D01*
X101565531Y-94637017D01*
X101565531Y-94208446D01*
X101494102Y-94065589D01*
X101422674Y-93994160D01*
X101279816Y-93922731D01*
X100994102Y-93922731D01*
X100851245Y-93994160D01*
X99494102Y-93922731D02*
X99494102Y-95137017D01*
X99565531Y-95279874D01*
X99636959Y-95351303D01*
X99779816Y-95422731D01*
X99994102Y-95422731D01*
X100136959Y-95351303D01*
X99494102Y-94851303D02*
X99636959Y-94922731D01*
X99922673Y-94922731D01*
X100065531Y-94851303D01*
X100136959Y-94779874D01*
X100208388Y-94637017D01*
X100208388Y-94208446D01*
X100136959Y-94065589D01*
X100065531Y-93994160D01*
X99922673Y-93922731D01*
X99636959Y-93922731D01*
X99494102Y-93994160D01*
X98208388Y-94851303D02*
X98351245Y-94922731D01*
X98636959Y-94922731D01*
X98779816Y-94851303D01*
X98851245Y-94708446D01*
X98851245Y-94137017D01*
X98779816Y-93994160D01*
X98636959Y-93922731D01*
X98351245Y-93922731D01*
X98208388Y-93994160D01*
X98136959Y-94137017D01*
X98136959Y-94279874D01*
X98851245Y-94422731D01*
X97279816Y-94922731D02*
X97422674Y-94851303D01*
X97494102Y-94708446D01*
X97494102Y-93422731D01*
X96708388Y-94922731D02*
X96708388Y-93922731D01*
X96708388Y-93422731D02*
X96779817Y-93494160D01*
X96708388Y-93565589D01*
X96636960Y-93494160D01*
X96708388Y-93422731D01*
X96708388Y-93565589D01*
X96208388Y-93922731D02*
X95636959Y-93922731D01*
X95994102Y-94922731D02*
X95994102Y-93637017D01*
X95922674Y-93494160D01*
X95779816Y-93422731D01*
X95636959Y-93422731D01*
X94565531Y-94851303D02*
X94708388Y-94922731D01*
X94994102Y-94922731D01*
X95136959Y-94851303D01*
X95208388Y-94708446D01*
X95208388Y-94137017D01*
X95136959Y-93994160D01*
X94994102Y-93922731D01*
X94708388Y-93922731D01*
X94565531Y-93994160D01*
X94494102Y-94137017D01*
X94494102Y-94279874D01*
X95208388Y-94422731D01*
D15*
X98745800Y-110232000D02*
X100745800Y-110232000D01*
X100745800Y-112272000D02*
X98745800Y-112272000D01*
D16*
X91126000Y-104334000D02*
X91126000Y-97736030D01*
X91126000Y-97736030D02*
X92028030Y-96834000D01*
X92028030Y-96834000D02*
X109026000Y-96834000D01*
X109026000Y-96834000D02*
X109026000Y-104334000D01*
X109026000Y-104334000D02*
X91126000Y-104334000D01*
D10*
X91182000Y-96409000D02*
G75*
G03X91182000Y-96409000I-381000J0D01*
G01*
X103227240Y-114827173D02*
X103127240Y-114860507D01*
X102960573Y-114860507D01*
X102893906Y-114827173D01*
X102860573Y-114793840D01*
X102827240Y-114727173D01*
X102827240Y-114660507D01*
X102860573Y-114593840D01*
X102893906Y-114560507D01*
X102960573Y-114527173D01*
X103093906Y-114493840D01*
X103160573Y-114460507D01*
X103193906Y-114427173D01*
X103227240Y-114360507D01*
X103227240Y-114293840D01*
X103193906Y-114227173D01*
X103160573Y-114193840D01*
X103093906Y-114160507D01*
X102927240Y-114160507D01*
X102827240Y-114193840D01*
X102527239Y-114860507D02*
X102527239Y-114160507D01*
X102360573Y-114160507D01*
X102260573Y-114193840D01*
X102193906Y-114260507D01*
X102160573Y-114327173D01*
X102127239Y-114460507D01*
X102127239Y-114560507D01*
X102160573Y-114693840D01*
X102193906Y-114760507D01*
X102260573Y-114827173D01*
X102360573Y-114860507D01*
X102527239Y-114860507D01*
X101860573Y-114660507D02*
X101527239Y-114660507D01*
X101927239Y-114860507D02*
X101693906Y-114160507D01*
X101460573Y-114860507D01*
X103210574Y-119907173D02*
X103110574Y-119940507D01*
X102943907Y-119940507D01*
X102877240Y-119907173D01*
X102843907Y-119873840D01*
X102810574Y-119807173D01*
X102810574Y-119740507D01*
X102843907Y-119673840D01*
X102877240Y-119640507D01*
X102943907Y-119607173D01*
X103077240Y-119573840D01*
X103143907Y-119540507D01*
X103177240Y-119507173D01*
X103210574Y-119440507D01*
X103210574Y-119373840D01*
X103177240Y-119307173D01*
X103143907Y-119273840D01*
X103077240Y-119240507D01*
X102910574Y-119240507D01*
X102810574Y-119273840D01*
X102110573Y-119873840D02*
X102143907Y-119907173D01*
X102243907Y-119940507D01*
X102310573Y-119940507D01*
X102410573Y-119907173D01*
X102477240Y-119840507D01*
X102510573Y-119773840D01*
X102543907Y-119640507D01*
X102543907Y-119540507D01*
X102510573Y-119407173D01*
X102477240Y-119340507D01*
X102410573Y-119273840D01*
X102310573Y-119240507D01*
X102243907Y-119240507D01*
X102143907Y-119273840D01*
X102110573Y-119307173D01*
X101477240Y-119940507D02*
X101810573Y-119940507D01*
X101810573Y-119240507D01*
X97830573Y-119273840D02*
X97897239Y-119240507D01*
X97997239Y-119240507D01*
X98097239Y-119273840D01*
X98163906Y-119340507D01*
X98197239Y-119407173D01*
X98230573Y-119540507D01*
X98230573Y-119640507D01*
X98197239Y-119773840D01*
X98163906Y-119840507D01*
X98097239Y-119907173D01*
X97997239Y-119940507D01*
X97930573Y-119940507D01*
X97830573Y-119907173D01*
X97797239Y-119873840D01*
X97797239Y-119640507D01*
X97930573Y-119640507D01*
X97497239Y-119940507D02*
X97497239Y-119240507D01*
X97097239Y-119940507D01*
X97097239Y-119240507D01*
X96763906Y-119940507D02*
X96763906Y-119240507D01*
X96597240Y-119240507D01*
X96497240Y-119273840D01*
X96430573Y-119340507D01*
X96397240Y-119407173D01*
X96363906Y-119540507D01*
X96363906Y-119640507D01*
X96397240Y-119773840D01*
X96430573Y-119840507D01*
X96497240Y-119907173D01*
X96597240Y-119940507D01*
X96763906Y-119940507D01*
X98230573Y-114160507D02*
X97997240Y-114860507D01*
X97763907Y-114160507D01*
X97130573Y-114793840D02*
X97163907Y-114827173D01*
X97263907Y-114860507D01*
X97330573Y-114860507D01*
X97430573Y-114827173D01*
X97497240Y-114760507D01*
X97530573Y-114693840D01*
X97563907Y-114560507D01*
X97563907Y-114460507D01*
X97530573Y-114327173D01*
X97497240Y-114260507D01*
X97430573Y-114193840D01*
X97330573Y-114160507D01*
X97263907Y-114160507D01*
X97163907Y-114193840D01*
X97130573Y-114227173D01*
X96430573Y-114793840D02*
X96463907Y-114827173D01*
X96563907Y-114860507D01*
X96630573Y-114860507D01*
X96730573Y-114827173D01*
X96797240Y-114760507D01*
X96830573Y-114693840D01*
X96863907Y-114560507D01*
X96863907Y-114460507D01*
X96830573Y-114327173D01*
X96797240Y-114260507D01*
X96730573Y-114193840D01*
X96630573Y-114160507D01*
X96563907Y-114160507D01*
X96463907Y-114193840D01*
X96430573Y-114227173D01*
D17*
X99912466Y-109859143D02*
X99960085Y-109906762D01*
X100102942Y-109954381D01*
X100198180Y-109954381D01*
X100341038Y-109906762D01*
X100436276Y-109811524D01*
X100483895Y-109716286D01*
X100531514Y-109525810D01*
X100531514Y-109382952D01*
X100483895Y-109192476D01*
X100436276Y-109097238D01*
X100341038Y-109002000D01*
X100198180Y-108954381D01*
X100102942Y-108954381D01*
X99960085Y-109002000D01*
X99912466Y-109049619D01*
X98960085Y-109954381D02*
X99531514Y-109954381D01*
X99245800Y-109954381D02*
X99245800Y-108954381D01*
X99341038Y-109097238D01*
X99436276Y-109192476D01*
X99531514Y-109240095D01*
D18*
X89684433Y-99921191D02*
X90253219Y-99921191D01*
X90320135Y-99954649D01*
X90353593Y-99988107D01*
X90387051Y-100055023D01*
X90387051Y-100188855D01*
X90353593Y-100255771D01*
X90320135Y-100289229D01*
X90253219Y-100322687D01*
X89684433Y-100322687D01*
X90387051Y-101025305D02*
X90387051Y-100623809D01*
X90387051Y-100824557D02*
X89684433Y-100824557D01*
X89784807Y-100757641D01*
X89851723Y-100690725D01*
X89885181Y-100623809D01*
X98037880Y-98295560D02*
X97336059Y-98295560D01*
X97837360Y-98529501D01*
X97336059Y-98763441D01*
X98037880Y-98763441D01*
X97971040Y-99498682D02*
X98004460Y-99465262D01*
X98037880Y-99365002D01*
X98037880Y-99298162D01*
X98004460Y-99197901D01*
X97937620Y-99131061D01*
X97870780Y-99097641D01*
X97737100Y-99064221D01*
X97636839Y-99064221D01*
X97503159Y-99097641D01*
X97436319Y-99131061D01*
X97369479Y-99197901D01*
X97336059Y-99298162D01*
X97336059Y-99365002D01*
X97369479Y-99465262D01*
X97402899Y-99498682D01*
X98037880Y-99799462D02*
X97336059Y-99799462D01*
X97336059Y-100066823D01*
X97369479Y-100133663D01*
X97402899Y-100167083D01*
X97469739Y-100200503D01*
X97569999Y-100200503D01*
X97636839Y-100167083D01*
X97670259Y-100133663D01*
X97703679Y-100066823D01*
X97703679Y-99799462D01*
X97402899Y-100467863D02*
X97369479Y-100501283D01*
X97336059Y-100568123D01*
X97336059Y-100735224D01*
X97369479Y-100802064D01*
X97402899Y-100835484D01*
X97469739Y-100868904D01*
X97536579Y-100868904D01*
X97636839Y-100835484D01*
X98037880Y-100434443D01*
X98037880Y-100868904D01*
X97336059Y-101102844D02*
X97336059Y-101537305D01*
X97603419Y-101303364D01*
X97603419Y-101403625D01*
X97636839Y-101470465D01*
X97670259Y-101503885D01*
X97737100Y-101537305D01*
X97904200Y-101537305D01*
X97971040Y-101503885D01*
X98004460Y-101470465D01*
X98037880Y-101403625D01*
X98037880Y-101203104D01*
X98004460Y-101136264D01*
X97971040Y-101102844D01*
X97336059Y-101971765D02*
X97336059Y-102038606D01*
X97369479Y-102105446D01*
X97402899Y-102138866D01*
X97469739Y-102172286D01*
X97603419Y-102205706D01*
X97770520Y-102205706D01*
X97904200Y-102172286D01*
X97971040Y-102138866D01*
X98004460Y-102105446D01*
X98037880Y-102038606D01*
X98037880Y-101971765D01*
X98004460Y-101904925D01*
X97971040Y-101871505D01*
X97904200Y-101838085D01*
X97770520Y-101804665D01*
X97603419Y-101804665D01*
X97469739Y-101838085D01*
X97402899Y-101871505D01*
X97369479Y-101904925D01*
X97336059Y-101971765D01*
X98037880Y-102874107D02*
X98037880Y-102473066D01*
X98037880Y-102673586D02*
X97336059Y-102673586D01*
X97436319Y-102606746D01*
X97503159Y-102539906D01*
X97536579Y-102473066D01*
X97336059Y-103108047D02*
X97336059Y-103575928D01*
X98037880Y-103275147D01*
%LPC*%
D19*
X101107240Y-115813840D03*
D20*
X101107240Y-118353840D03*
X98567240Y-115813840D03*
X98567240Y-118353840D03*
D10*
G36*
X118360280Y-108754796D02*
X119845204Y-110239720D01*
X118148148Y-111936776D01*
X116663224Y-110451852D01*
X118360280Y-108754796D01*
X118360280Y-108754796D01*
G37*
G36*
X115531852Y-111583224D02*
X117016776Y-113068148D01*
X115319720Y-114765204D01*
X113834796Y-113280280D01*
X115531852Y-111583224D01*
X115531852Y-111583224D01*
G37*
G36*
X112502895Y-114568359D02*
X113221137Y-116541713D01*
X110965875Y-117362561D01*
X110247633Y-115389207D01*
X112502895Y-114568359D01*
X112502895Y-114568359D01*
G37*
G36*
X108744125Y-115936439D02*
X109462367Y-117909793D01*
X107207105Y-118730641D01*
X106488863Y-116757287D01*
X108744125Y-115936439D01*
X108744125Y-115936439D01*
G37*
G36*
X120182572Y-100952011D02*
X122262135Y-101244274D01*
X121928120Y-103620917D01*
X119848557Y-103328654D01*
X120182572Y-100952011D01*
X120182572Y-100952011D01*
G37*
G36*
X119625880Y-104913083D02*
X121705443Y-105205346D01*
X121371428Y-107581989D01*
X119291865Y-107289726D01*
X119625880Y-104913083D01*
X119625880Y-104913083D01*
G37*
G36*
X116823596Y-93679513D02*
X118677786Y-92693623D01*
X119804518Y-94812697D01*
X117950328Y-95798587D01*
X116823596Y-93679513D01*
X116823596Y-93679513D01*
G37*
G36*
X118701482Y-97211303D02*
X120555672Y-96225413D01*
X121682404Y-98344487D01*
X119828214Y-99330377D01*
X118701482Y-97211303D01*
X118701482Y-97211303D01*
G37*
G36*
X110568458Y-89194665D02*
X111772969Y-87474446D01*
X113738934Y-88851029D01*
X112534423Y-90571248D01*
X110568458Y-89194665D01*
X110568458Y-89194665D01*
G37*
G36*
X113845066Y-91488971D02*
X115049577Y-89768752D01*
X117015542Y-91145335D01*
X115811031Y-92865554D01*
X113845066Y-91488971D01*
X113845066Y-91488971D01*
G37*
G36*
X89622281Y-86898673D02*
X90672281Y-88717327D01*
X88593821Y-89917327D01*
X87543821Y-88098673D01*
X89622281Y-86898673D01*
X89622281Y-86898673D01*
G37*
G36*
X86158179Y-88898673D02*
X87208179Y-90717327D01*
X85129719Y-91917327D01*
X84079719Y-90098673D01*
X86158179Y-88898673D01*
X86158179Y-88898673D01*
G37*
G36*
X81462673Y-92207719D02*
X83281327Y-93257719D01*
X82081327Y-95336179D01*
X80262673Y-94286179D01*
X81462673Y-92207719D01*
X81462673Y-92207719D01*
G37*
G36*
X79462673Y-95671821D02*
X81281327Y-96721821D01*
X80081327Y-98800281D01*
X78262673Y-97750281D01*
X79462673Y-95671821D01*
X79462673Y-95671821D01*
G37*
G36*
X77658278Y-100662945D02*
X79726374Y-100298284D01*
X80143130Y-102661823D01*
X78075034Y-103026484D01*
X77658278Y-100662945D01*
X77658278Y-100662945D01*
G37*
G36*
X78352870Y-104602177D02*
X80420966Y-104237516D01*
X80837722Y-106601055D01*
X78769626Y-106965716D01*
X78352870Y-104602177D01*
X78352870Y-104602177D01*
G37*
G36*
X80306796Y-110239720D02*
X81791720Y-108754796D01*
X83488776Y-110451852D01*
X82003852Y-111936776D01*
X80306796Y-110239720D01*
X80306796Y-110239720D01*
G37*
G36*
X83135224Y-113068148D02*
X84620148Y-111583224D01*
X86317204Y-113280280D01*
X84832280Y-114765204D01*
X83135224Y-113068148D01*
X83135224Y-113068148D01*
G37*
G36*
X88073863Y-116732213D02*
X88792105Y-114758859D01*
X91047367Y-115579707D01*
X90329125Y-117553061D01*
X88073863Y-116732213D01*
X88073863Y-116732213D01*
G37*
G36*
X91832633Y-118100293D02*
X92550875Y-116126939D01*
X94806137Y-116947787D01*
X94087895Y-118921141D01*
X91832633Y-118100293D01*
X91832633Y-118100293D01*
G37*
D21*
X101745800Y-111252000D03*
X97745800Y-111252000D03*
D22*
X91821000Y-95834200D03*
X93091000Y-95834200D03*
X94361000Y-95834200D03*
X95631000Y-95834200D03*
X96901000Y-95834200D03*
X98171000Y-95834200D03*
X99441000Y-95834200D03*
X100711000Y-95834200D03*
X101981000Y-95834200D03*
X103251000Y-95834200D03*
X105791000Y-95834200D03*
X104521000Y-95834200D03*
X107061000Y-95834200D03*
X108331000Y-95834200D03*
X108331000Y-105359200D03*
X107061000Y-105359200D03*
X105791000Y-105359200D03*
X104521000Y-105359200D03*
X103251000Y-105359200D03*
X101981000Y-105359200D03*
X100711000Y-105359200D03*
X99441000Y-105359200D03*
X98171000Y-105359200D03*
X96901000Y-105359200D03*
X95631000Y-105359200D03*
X94361000Y-105359200D03*
X93091000Y-105359200D03*
X91821000Y-105359200D03*
M02*
