G04 #@! TF.FileFunction,Soldermask,Bot*
%FSLAX46Y46*%
G04 Gerber Fmt 4.6, Leading zero omitted, Abs format (unit mm)*
G04 Created by KiCad (PCBNEW 4.0.7) date 06/13/18 11:19:53*
%MOMM*%
%LPD*%
G01*
G04 APERTURE LIST*
%ADD10C,0.100000*%
%ADD11C,2.100000*%
%ADD12O,2.100000X2.100000*%
%ADD13R,2.400000X2.000000*%
%ADD14R,1.162000X1.543000*%
G04 APERTURE END LIST*
D10*
D11*
X101107240Y-115813840D03*
D12*
X101107240Y-118353840D03*
X98567240Y-115813840D03*
X98567240Y-118353840D03*
D10*
G36*
X118360280Y-108754796D02*
X119845204Y-110239720D01*
X118148148Y-111936776D01*
X116663224Y-110451852D01*
X118360280Y-108754796D01*
X118360280Y-108754796D01*
G37*
G36*
X115531852Y-111583224D02*
X117016776Y-113068148D01*
X115319720Y-114765204D01*
X113834796Y-113280280D01*
X115531852Y-111583224D01*
X115531852Y-111583224D01*
G37*
G36*
X112502895Y-114568359D02*
X113221137Y-116541713D01*
X110965875Y-117362561D01*
X110247633Y-115389207D01*
X112502895Y-114568359D01*
X112502895Y-114568359D01*
G37*
G36*
X108744125Y-115936439D02*
X109462367Y-117909793D01*
X107207105Y-118730641D01*
X106488863Y-116757287D01*
X108744125Y-115936439D01*
X108744125Y-115936439D01*
G37*
G36*
X120182572Y-100952011D02*
X122262135Y-101244274D01*
X121928120Y-103620917D01*
X119848557Y-103328654D01*
X120182572Y-100952011D01*
X120182572Y-100952011D01*
G37*
G36*
X119625880Y-104913083D02*
X121705443Y-105205346D01*
X121371428Y-107581989D01*
X119291865Y-107289726D01*
X119625880Y-104913083D01*
X119625880Y-104913083D01*
G37*
G36*
X116823596Y-93679513D02*
X118677786Y-92693623D01*
X119804518Y-94812697D01*
X117950328Y-95798587D01*
X116823596Y-93679513D01*
X116823596Y-93679513D01*
G37*
G36*
X118701482Y-97211303D02*
X120555672Y-96225413D01*
X121682404Y-98344487D01*
X119828214Y-99330377D01*
X118701482Y-97211303D01*
X118701482Y-97211303D01*
G37*
G36*
X110568458Y-89194665D02*
X111772969Y-87474446D01*
X113738934Y-88851029D01*
X112534423Y-90571248D01*
X110568458Y-89194665D01*
X110568458Y-89194665D01*
G37*
G36*
X113845066Y-91488971D02*
X115049577Y-89768752D01*
X117015542Y-91145335D01*
X115811031Y-92865554D01*
X113845066Y-91488971D01*
X113845066Y-91488971D01*
G37*
G36*
X89622281Y-86898673D02*
X90672281Y-88717327D01*
X88593821Y-89917327D01*
X87543821Y-88098673D01*
X89622281Y-86898673D01*
X89622281Y-86898673D01*
G37*
G36*
X86158179Y-88898673D02*
X87208179Y-90717327D01*
X85129719Y-91917327D01*
X84079719Y-90098673D01*
X86158179Y-88898673D01*
X86158179Y-88898673D01*
G37*
G36*
X81462673Y-92207719D02*
X83281327Y-93257719D01*
X82081327Y-95336179D01*
X80262673Y-94286179D01*
X81462673Y-92207719D01*
X81462673Y-92207719D01*
G37*
G36*
X79462673Y-95671821D02*
X81281327Y-96721821D01*
X80081327Y-98800281D01*
X78262673Y-97750281D01*
X79462673Y-95671821D01*
X79462673Y-95671821D01*
G37*
G36*
X77658278Y-100662945D02*
X79726374Y-100298284D01*
X80143130Y-102661823D01*
X78075034Y-103026484D01*
X77658278Y-100662945D01*
X77658278Y-100662945D01*
G37*
G36*
X78352870Y-104602177D02*
X80420966Y-104237516D01*
X80837722Y-106601055D01*
X78769626Y-106965716D01*
X78352870Y-104602177D01*
X78352870Y-104602177D01*
G37*
G36*
X80306796Y-110239720D02*
X81791720Y-108754796D01*
X83488776Y-110451852D01*
X82003852Y-111936776D01*
X80306796Y-110239720D01*
X80306796Y-110239720D01*
G37*
G36*
X83135224Y-113068148D02*
X84620148Y-111583224D01*
X86317204Y-113280280D01*
X84832280Y-114765204D01*
X83135224Y-113068148D01*
X83135224Y-113068148D01*
G37*
G36*
X88073863Y-116732213D02*
X88792105Y-114758859D01*
X91047367Y-115579707D01*
X90329125Y-117553061D01*
X88073863Y-116732213D01*
X88073863Y-116732213D01*
G37*
G36*
X91832633Y-118100293D02*
X92550875Y-116126939D01*
X94806137Y-116947787D01*
X94087895Y-118921141D01*
X91832633Y-118100293D01*
X91832633Y-118100293D01*
G37*
D13*
X101745800Y-111252000D03*
X97745800Y-111252000D03*
D14*
X91821000Y-95834200D03*
X93091000Y-95834200D03*
X94361000Y-95834200D03*
X95631000Y-95834200D03*
X96901000Y-95834200D03*
X98171000Y-95834200D03*
X99441000Y-95834200D03*
X100711000Y-95834200D03*
X101981000Y-95834200D03*
X103251000Y-95834200D03*
X105791000Y-95834200D03*
X104521000Y-95834200D03*
X107061000Y-95834200D03*
X108331000Y-95834200D03*
X108331000Y-105359200D03*
X107061000Y-105359200D03*
X105791000Y-105359200D03*
X104521000Y-105359200D03*
X103251000Y-105359200D03*
X101981000Y-105359200D03*
X100711000Y-105359200D03*
X99441000Y-105359200D03*
X98171000Y-105359200D03*
X96901000Y-105359200D03*
X95631000Y-105359200D03*
X94361000Y-105359200D03*
X93091000Y-105359200D03*
X91821000Y-105359200D03*
M02*
