G04 #@! TF.FileFunction,Profile,NP*
%FSLAX46Y46*%
G04 Gerber Fmt 4.6, Leading zero omitted, Abs format (unit mm)*
G04 Created by KiCad (PCBNEW 4.0.7) date 06/01/18 13:51:10*
%MOMM*%
%LPD*%
G01*
G04 APERTURE LIST*
%ADD10C,0.100000*%
%ADD11C,0.150000*%
G04 APERTURE END LIST*
D10*
D11*
X120637300Y-94195900D02*
X121081800Y-94983300D01*
X119900700Y-93116400D02*
X120637300Y-94195900D01*
X119316500Y-92354400D02*
X119900700Y-93116400D01*
X118694200Y-91630500D02*
X119316500Y-92354400D01*
X117627400Y-90538300D02*
X118694200Y-91630500D01*
X116319300Y-89382600D02*
X117627400Y-90538300D01*
X115239800Y-88569800D02*
X116319300Y-89382600D01*
X113842800Y-87655400D02*
X115239800Y-88569800D01*
X112776000Y-87045800D02*
X113842800Y-87655400D01*
X112306100Y-86804500D02*
X112776000Y-87045800D01*
X112712500Y-85699600D02*
X112306100Y-86804500D01*
X113220500Y-84416900D02*
X112712500Y-85699600D01*
X113741200Y-83261200D02*
X113220500Y-84416900D01*
X114211100Y-82283300D02*
X113741200Y-83261200D01*
X114681000Y-81330800D02*
X114211100Y-82283300D01*
X115112800Y-80581500D02*
X114681000Y-81330800D01*
X115709700Y-80530700D02*
X115112800Y-80581500D01*
X116078000Y-80454500D02*
X115709700Y-80530700D01*
X116484400Y-80276700D02*
X116078000Y-80454500D01*
X116827300Y-79997300D02*
X116484400Y-80276700D01*
X117094000Y-79705200D02*
X116827300Y-79997300D01*
X117271800Y-79413100D02*
X117094000Y-79705200D01*
X117398800Y-79019400D02*
X117271800Y-79413100D01*
X117436900Y-78638400D02*
X117398800Y-79019400D01*
X117411500Y-78066900D02*
X117436900Y-78638400D01*
X117221000Y-77558900D02*
X117411500Y-78066900D01*
X116840000Y-77063600D02*
X117221000Y-77558900D01*
X116268500Y-76682600D02*
X116840000Y-77063600D01*
X115455700Y-76517500D02*
X116268500Y-76682600D01*
X114808000Y-76619100D02*
X115455700Y-76517500D01*
X114287300Y-76822300D02*
X114808000Y-76619100D01*
X113931700Y-77165200D02*
X114287300Y-76822300D01*
X113677700Y-77520800D02*
X113931700Y-77165200D01*
X113487200Y-77952600D02*
X113677700Y-77520800D01*
X113398300Y-78384400D02*
X113487200Y-77952600D01*
X113411000Y-78816200D02*
X113398300Y-78384400D01*
X113461800Y-79133700D02*
X113411000Y-78816200D01*
X113538000Y-79336900D02*
X113461800Y-79133700D01*
X113728500Y-79717900D02*
X113538000Y-79336900D01*
X113411000Y-80302100D02*
X113728500Y-79717900D01*
X112547400Y-81838800D02*
X113411000Y-80302100D01*
X111506000Y-83515200D02*
X112547400Y-81838800D01*
X110324900Y-85217000D02*
X111506000Y-83515200D01*
X109880400Y-85750400D02*
X110324900Y-85217000D01*
X108839000Y-85369400D02*
X109880400Y-85750400D01*
X107581700Y-84975700D02*
X108839000Y-85369400D01*
X105879900Y-84582000D02*
X107581700Y-84975700D01*
X104609900Y-84340700D02*
X105879900Y-84582000D01*
X103797100Y-84226400D02*
X104609900Y-84340700D01*
X102971600Y-84124800D02*
X103797100Y-84226400D01*
X102387400Y-84074000D02*
X102971600Y-84124800D01*
X101511100Y-84010500D02*
X102387400Y-84074000D01*
X101104700Y-83997800D02*
X101511100Y-84010500D01*
X99872800Y-83972400D02*
X101104700Y-83997800D01*
X98971100Y-83997800D02*
X99872800Y-83972400D01*
X98018600Y-84048600D02*
X98971100Y-83997800D01*
X97218500Y-84112100D02*
X98018600Y-84048600D01*
X96875600Y-84137500D02*
X97218500Y-84112100D01*
X96634300Y-84175600D02*
X96875600Y-84137500D01*
X96431100Y-84201000D02*
X96634300Y-84175600D01*
X95796100Y-84289900D02*
X96431100Y-84201000D01*
X95275400Y-84366100D02*
X95796100Y-84289900D01*
X94640400Y-84493100D02*
X95275400Y-84366100D01*
X93764100Y-84658200D02*
X94640400Y-84493100D01*
X92735400Y-84912200D02*
X93764100Y-84658200D01*
X92024200Y-85102700D02*
X92735400Y-84912200D01*
X91706700Y-85204300D02*
X92024200Y-85102700D01*
X91643200Y-85153500D02*
X91706700Y-85204300D01*
X91478100Y-84963000D02*
X91643200Y-85153500D01*
X91046300Y-84378800D02*
X91478100Y-84963000D01*
X90893900Y-84150200D02*
X91046300Y-84378800D01*
X90754200Y-83947000D02*
X90893900Y-84150200D01*
X90627200Y-83756500D02*
X90754200Y-83947000D01*
X90462100Y-83515200D02*
X90627200Y-83756500D01*
X89941400Y-82715100D02*
X90462100Y-83515200D01*
X89598500Y-82169000D02*
X89941400Y-82715100D01*
X89255600Y-81597500D02*
X89598500Y-82169000D01*
X89039700Y-81229200D02*
X89255600Y-81597500D01*
X88874600Y-80937100D02*
X89039700Y-81229200D01*
X88747600Y-80695800D02*
X88874600Y-80937100D01*
X88430100Y-80111600D02*
X88747600Y-80695800D01*
X88049100Y-79413100D02*
X88430100Y-80111600D01*
X87922100Y-79146400D02*
X88049100Y-79413100D01*
X87871300Y-79006700D02*
X87922100Y-79146400D01*
X87972900Y-78803500D02*
X87871300Y-79006700D01*
X88138000Y-78409800D02*
X87972900Y-78803500D01*
X88176100Y-78232000D02*
X88138000Y-78409800D01*
X88214200Y-78016100D02*
X88176100Y-78232000D01*
X88214200Y-77647800D02*
X88214200Y-78016100D01*
X88188800Y-77343000D02*
X88214200Y-77647800D01*
X88023700Y-76911200D02*
X88188800Y-77343000D01*
X87871300Y-76644500D02*
X88023700Y-76911200D01*
X87591900Y-76339700D02*
X87871300Y-76644500D01*
X87236300Y-76085700D02*
X87591900Y-76339700D01*
X86969600Y-75958700D02*
X87236300Y-76085700D01*
X86766400Y-75895200D02*
X86969600Y-75958700D01*
X86398100Y-75819000D02*
X86766400Y-75895200D01*
X86093300Y-75806300D02*
X86398100Y-75819000D01*
X85674200Y-75869800D02*
X86093300Y-75806300D01*
X85382100Y-75958700D02*
X85674200Y-75869800D01*
X84988400Y-76161900D02*
X85382100Y-75958700D01*
X84670900Y-76454000D02*
X84988400Y-76161900D01*
X84467700Y-76695300D02*
X84670900Y-76454000D01*
X84302600Y-77012800D02*
X84467700Y-76695300D01*
X84162900Y-77482700D02*
X84302600Y-77012800D01*
X84137500Y-77901800D02*
X84162900Y-77482700D01*
X84188300Y-78219300D02*
X84137500Y-77901800D01*
X84315300Y-78600300D02*
X84188300Y-78219300D01*
X84582000Y-79082900D02*
X84315300Y-78600300D01*
X84759800Y-79311500D02*
X84582000Y-79082900D01*
X85051900Y-79514700D02*
X84759800Y-79311500D01*
X85420200Y-79692500D02*
X85051900Y-79514700D01*
X85839300Y-79806800D02*
X85420200Y-79692500D01*
X86245700Y-79844900D02*
X85839300Y-79806800D01*
X86436200Y-79844900D02*
X86245700Y-79844900D01*
X86804500Y-80492600D02*
X86436200Y-79844900D01*
X87807800Y-82588100D02*
X86804500Y-80492600D01*
X88366600Y-83985100D02*
X87807800Y-82588100D01*
X89179400Y-86118700D02*
X88366600Y-83985100D01*
X87947500Y-86677500D02*
X89179400Y-86118700D01*
X86131400Y-87680800D02*
X87947500Y-86677500D01*
X84607400Y-88646000D02*
X86131400Y-87680800D01*
X83388200Y-89611200D02*
X84607400Y-88646000D01*
X82270600Y-90601800D02*
X83388200Y-89611200D01*
X81178400Y-91770200D02*
X82270600Y-90601800D01*
X80416400Y-92684600D02*
X81178400Y-91770200D01*
X79806800Y-93510100D02*
X80416400Y-92684600D01*
X79159100Y-94526100D02*
X79806800Y-93510100D01*
X78384400Y-96012000D02*
X79159100Y-94526100D01*
X77927200Y-97167700D02*
X78384400Y-96012000D01*
X77546200Y-98323400D02*
X77927200Y-97167700D01*
X77266800Y-99568000D02*
X77546200Y-98323400D01*
X77076300Y-101269800D02*
X77266800Y-99568000D01*
X77025500Y-102666800D02*
X77076300Y-101269800D01*
X77127100Y-103936800D02*
X77025500Y-102666800D01*
X77254100Y-104800400D02*
X77127100Y-103936800D01*
X77406500Y-105613200D02*
X77254100Y-104800400D01*
X77533500Y-106133900D02*
X77406500Y-105613200D01*
X77863700Y-107188000D02*
X77533500Y-106133900D01*
X78206600Y-108077000D02*
X77863700Y-107188000D01*
X78625700Y-108991400D02*
X78206600Y-108077000D01*
X79159100Y-109969300D02*
X78625700Y-108991400D01*
X79540100Y-110591600D02*
X79159100Y-109969300D01*
X80200500Y-111544100D02*
X79540100Y-110591600D01*
X80784700Y-112293400D02*
X80200500Y-111544100D01*
X81864200Y-113474500D02*
X80784700Y-112293400D01*
X82499200Y-114122200D02*
X81864200Y-113474500D01*
X82956400Y-114528600D02*
X82499200Y-114122200D01*
X83388200Y-114896900D02*
X82956400Y-114528600D01*
X83197700Y-115443000D02*
X83388200Y-114896900D01*
X82969100Y-116420900D02*
X83197700Y-115443000D01*
X82842100Y-117144800D02*
X82969100Y-116420900D01*
X82804000Y-118021100D02*
X82842100Y-117144800D01*
X82816700Y-118516400D02*
X82804000Y-118021100D01*
X82867500Y-119126000D02*
X82816700Y-118516400D01*
X82981800Y-119659400D02*
X82867500Y-119126000D01*
X83096100Y-120103900D02*
X82981800Y-119659400D01*
X83350100Y-120777000D02*
X83096100Y-120103900D01*
X83553300Y-121234200D02*
X83350100Y-120777000D01*
X83921600Y-121805700D02*
X83553300Y-121234200D01*
X84404200Y-122389900D02*
X83921600Y-121805700D01*
X84785200Y-122770900D02*
X84404200Y-122389900D01*
X85191600Y-123075700D02*
X84785200Y-122770900D01*
X85712300Y-123418600D02*
X85191600Y-123075700D01*
X86321900Y-123710700D02*
X85712300Y-123418600D01*
X87045800Y-123952000D02*
X86321900Y-123710700D01*
X87744300Y-124091700D02*
X87045800Y-123952000D01*
X88366600Y-124142500D02*
X87744300Y-124091700D01*
X89103200Y-124117100D02*
X88366600Y-124142500D01*
X89852500Y-123990100D02*
X89103200Y-124117100D01*
X90512900Y-123812300D02*
X89852500Y-123990100D01*
X91173300Y-123558300D02*
X90512900Y-123812300D01*
X91935300Y-123126500D02*
X91173300Y-123558300D01*
X92557600Y-122682000D02*
X91935300Y-123126500D01*
X93065600Y-122237500D02*
X92557600Y-122682000D01*
X93624400Y-121678700D02*
X93065600Y-122237500D01*
X94195900Y-120891300D02*
X93624400Y-121678700D01*
X94462600Y-120446800D02*
X94195900Y-120891300D01*
X94665800Y-120078500D02*
X94462600Y-120446800D01*
X95516700Y-120192800D02*
X94665800Y-120078500D01*
X96570800Y-120345200D02*
X95516700Y-120192800D01*
X97815400Y-120472200D02*
X96570800Y-120345200D01*
X99263200Y-120535700D02*
X97815400Y-120472200D01*
X100571300Y-120535700D02*
X99263200Y-120535700D01*
X101561900Y-120510300D02*
X100571300Y-120535700D01*
X102184200Y-120472200D02*
X101561900Y-120510300D01*
X103390700Y-120357900D02*
X102184200Y-120472200D01*
X104000300Y-120269000D02*
X103390700Y-120357900D01*
X104597200Y-120180100D02*
X104000300Y-120269000D01*
X105410000Y-120040400D02*
X104597200Y-120180100D01*
X105994200Y-119913400D02*
X105410000Y-120040400D01*
X106184700Y-119862600D02*
X105994200Y-119913400D01*
X106260900Y-119976900D02*
X106184700Y-119862600D01*
X106603800Y-120637300D02*
X106260900Y-119976900D01*
X107022900Y-121285000D02*
X106603800Y-120637300D01*
X107518200Y-121894600D02*
X107022900Y-121285000D01*
X108013500Y-122389900D02*
X107518200Y-121894600D01*
X108572300Y-122859800D02*
X108013500Y-122389900D01*
X109143800Y-123253500D02*
X108572300Y-122859800D01*
X109702600Y-123558300D02*
X109143800Y-123253500D01*
X110197900Y-123774200D02*
X109702600Y-123558300D01*
X110858300Y-124002800D02*
X110197900Y-123774200D01*
X111556800Y-124167900D02*
X110858300Y-124002800D01*
X111975900Y-124218700D02*
X111556800Y-124167900D01*
X112598200Y-124231400D02*
X111975900Y-124218700D01*
X113207800Y-124180600D02*
X112598200Y-124231400D01*
X113372900Y-124155200D02*
X113207800Y-124180600D01*
X113753900Y-124091700D02*
X113372900Y-124155200D01*
X114401600Y-123901200D02*
X113753900Y-124091700D01*
X114477800Y-123863100D02*
X114401600Y-123901200D01*
X114960400Y-123659900D02*
X114477800Y-123863100D01*
X115036600Y-123621800D02*
X114960400Y-123659900D01*
X115341400Y-123444000D02*
X115036600Y-123621800D01*
X115531900Y-123342400D02*
X115341400Y-123444000D01*
X115620800Y-123278900D02*
X115531900Y-123342400D01*
X115900200Y-123075700D02*
X115620800Y-123278900D01*
X116116100Y-122936000D02*
X115900200Y-123075700D01*
X116547900Y-122542300D02*
X116116100Y-122936000D01*
X117030500Y-121996200D02*
X116547900Y-122542300D01*
X117398800Y-121424700D02*
X117030500Y-121996200D01*
X117563900Y-121107200D02*
X117398800Y-121424700D01*
X117741700Y-120764300D02*
X117563900Y-121107200D01*
X117970300Y-120078500D02*
X117741700Y-120764300D01*
X118122700Y-119494300D02*
X117970300Y-120078500D01*
X118198900Y-118770400D02*
X118122700Y-119494300D01*
X118211600Y-118021100D02*
X118198900Y-118770400D01*
X118211600Y-117690900D02*
X118211600Y-118021100D01*
X118186200Y-117322600D02*
X118211600Y-117690900D01*
X118160800Y-117030500D02*
X118186200Y-117322600D01*
X118033800Y-116382800D02*
X118160800Y-117030500D01*
X117944900Y-116001800D02*
X118033800Y-116382800D01*
X117856000Y-115671600D02*
X117944900Y-116001800D01*
X117754400Y-115328700D02*
X117856000Y-115671600D01*
X117627400Y-114973100D02*
X117754400Y-115328700D01*
X117513100Y-114681000D02*
X117627400Y-114973100D01*
X117335300Y-114287300D02*
X117513100Y-114681000D01*
X117551200Y-114084100D02*
X117335300Y-114287300D01*
X117716300Y-113919000D02*
X117551200Y-114084100D01*
X118021100Y-113614200D02*
X117716300Y-113919000D01*
X118491000Y-113106200D02*
X118021100Y-113614200D01*
X118833900Y-112737900D02*
X118491000Y-113106200D01*
X119684800Y-111709200D02*
X118833900Y-112737900D01*
X120319800Y-110820200D02*
X119684800Y-111709200D01*
X120815100Y-110020100D02*
X120319800Y-110820200D01*
X121285000Y-109156500D02*
X120815100Y-110020100D01*
X121475500Y-108788200D02*
X121285000Y-109156500D01*
X121577100Y-108546900D02*
X121475500Y-108788200D01*
X121920000Y-107759500D02*
X121577100Y-108546900D01*
X122161300Y-107061000D02*
X121920000Y-107759500D01*
X122288300Y-106718100D02*
X122161300Y-107061000D01*
X122415300Y-106235500D02*
X122288300Y-106718100D01*
X122504200Y-105892600D02*
X122415300Y-106235500D01*
X122593100Y-105575100D02*
X122504200Y-105892600D01*
X122732800Y-104851200D02*
X122593100Y-105575100D01*
X122796300Y-104521000D02*
X122732800Y-104851200D01*
X122834400Y-104241600D02*
X122796300Y-104521000D01*
X122923300Y-103428800D02*
X122834400Y-104241600D01*
X122961400Y-102806500D02*
X122923300Y-103428800D01*
X122974100Y-102514400D02*
X122961400Y-102806500D01*
X122974100Y-102209600D02*
X122974100Y-102514400D01*
X122936000Y-101219000D02*
X122974100Y-102209600D01*
X122897900Y-100838000D02*
X122936000Y-101219000D01*
X122859800Y-100457000D02*
X122897900Y-100838000D01*
X122847100Y-100330000D02*
X122859800Y-100457000D01*
X122656600Y-99237800D02*
X122847100Y-100330000D01*
X122542300Y-98780600D02*
X122656600Y-99237800D01*
X122351800Y-98044000D02*
X122542300Y-98780600D01*
X121983500Y-96964500D02*
X122351800Y-98044000D01*
X121551700Y-95935800D02*
X121983500Y-96964500D01*
X121259600Y-95338900D02*
X121551700Y-95935800D01*
X121119900Y-95046800D02*
X121259600Y-95338900D01*
X121081800Y-94983300D02*
X121119900Y-95046800D01*
M02*
