G04 #@! TF.FileFunction,Copper,L2,Bot,Signal*
%FSLAX46Y46*%
G04 Gerber Fmt 4.6, Leading zero omitted, Abs format (unit mm)*
G04 Created by KiCad (PCBNEW 4.0.7) date 06/13/18 11:19:53*
%MOMM*%
%LPD*%
G01*
G04 APERTURE LIST*
%ADD10C,0.100000*%
%ADD11C,1.700000*%
%ADD12O,1.700000X1.700000*%
%ADD13R,2.000000X1.600000*%
%ADD14R,0.762000X1.143000*%
%ADD15C,0.600000*%
%ADD16C,0.500000*%
%ADD17C,0.200000*%
%ADD18C,0.250000*%
%ADD19C,0.254000*%
G04 APERTURE END LIST*
D10*
D11*
X101107240Y-115813840D03*
D12*
X101107240Y-118353840D03*
X98567240Y-115813840D03*
X98567240Y-118353840D03*
D10*
G36*
X118360280Y-109037638D02*
X119562362Y-110239720D01*
X118148148Y-111653934D01*
X116946066Y-110451852D01*
X118360280Y-109037638D01*
X118360280Y-109037638D01*
G37*
G36*
X115531852Y-111866066D02*
X116733934Y-113068148D01*
X115319720Y-114482362D01*
X114117638Y-113280280D01*
X115531852Y-111866066D01*
X115531852Y-111866066D01*
G37*
G36*
X112383360Y-114824701D02*
X112964795Y-116422179D01*
X111085410Y-117106219D01*
X110503975Y-115508741D01*
X112383360Y-114824701D01*
X112383360Y-114824701D01*
G37*
G36*
X108624590Y-116192781D02*
X109206025Y-117790259D01*
X107326640Y-118474299D01*
X106745205Y-116876821D01*
X108624590Y-116192781D01*
X108624590Y-116192781D01*
G37*
G36*
X120352791Y-101177899D02*
X122036247Y-101414493D01*
X121757901Y-103395029D01*
X120074445Y-103158435D01*
X120352791Y-101177899D01*
X120352791Y-101177899D01*
G37*
G36*
X119796099Y-105138971D02*
X121479555Y-105375565D01*
X121201209Y-107356101D01*
X119517753Y-107119507D01*
X119796099Y-105138971D01*
X119796099Y-105138971D01*
G37*
G36*
X117094080Y-93762208D02*
X118595091Y-92964107D01*
X119534034Y-94730002D01*
X118033023Y-95528103D01*
X117094080Y-93762208D01*
X117094080Y-93762208D01*
G37*
G36*
X118971966Y-97293998D02*
X120472977Y-96495897D01*
X121411920Y-98261792D01*
X119910909Y-99059893D01*
X118971966Y-97293998D01*
X118971966Y-97293998D01*
G37*
G36*
X110847004Y-89145550D02*
X111822084Y-87752991D01*
X113460388Y-88900144D01*
X112485308Y-90292703D01*
X110847004Y-89145550D01*
X110847004Y-89145550D01*
G37*
G36*
X114123612Y-91439856D02*
X115098692Y-90047297D01*
X116736996Y-91194450D01*
X115761916Y-92587009D01*
X114123612Y-91439856D01*
X114123612Y-91439856D01*
G37*
G36*
X89549076Y-87171878D02*
X90399076Y-88644122D01*
X88667026Y-89644122D01*
X87817026Y-88171878D01*
X89549076Y-87171878D01*
X89549076Y-87171878D01*
G37*
G36*
X86084974Y-89171878D02*
X86934974Y-90644122D01*
X85202924Y-91644122D01*
X84352924Y-90171878D01*
X86084974Y-89171878D01*
X86084974Y-89171878D01*
G37*
G36*
X81535878Y-92480924D02*
X83008122Y-93330924D01*
X82008122Y-95062974D01*
X80535878Y-94212974D01*
X81535878Y-92480924D01*
X81535878Y-92480924D01*
G37*
G36*
X79535878Y-95945026D02*
X81008122Y-96795026D01*
X80008122Y-98527076D01*
X78535878Y-97677076D01*
X79535878Y-95945026D01*
X79535878Y-95945026D01*
G37*
G36*
X77889969Y-100825177D02*
X79564142Y-100529975D01*
X79911439Y-102499591D01*
X78237266Y-102794793D01*
X77889969Y-100825177D01*
X77889969Y-100825177D01*
G37*
G36*
X78584561Y-104764409D02*
X80258734Y-104469207D01*
X80606031Y-106438823D01*
X78931858Y-106734025D01*
X78584561Y-104764409D01*
X78584561Y-104764409D01*
G37*
G36*
X80589638Y-110239720D02*
X81791720Y-109037638D01*
X83205934Y-110451852D01*
X82003852Y-111653934D01*
X80589638Y-110239720D01*
X80589638Y-110239720D01*
G37*
G36*
X83418066Y-113068148D02*
X84620148Y-111866066D01*
X86034362Y-113280280D01*
X84832280Y-114482362D01*
X83418066Y-113068148D01*
X83418066Y-113068148D01*
G37*
G36*
X88330205Y-116612679D02*
X88911640Y-115015201D01*
X90791025Y-115699241D01*
X90209590Y-117296719D01*
X88330205Y-116612679D01*
X88330205Y-116612679D01*
G37*
G36*
X92088975Y-117980759D02*
X92670410Y-116383281D01*
X94549795Y-117067321D01*
X93968360Y-118664799D01*
X92088975Y-117980759D01*
X92088975Y-117980759D01*
G37*
D13*
X101745800Y-111252000D03*
X97745800Y-111252000D03*
D14*
X91821000Y-95834200D03*
X93091000Y-95834200D03*
X94361000Y-95834200D03*
X95631000Y-95834200D03*
X96901000Y-95834200D03*
X98171000Y-95834200D03*
X99441000Y-95834200D03*
X100711000Y-95834200D03*
X101981000Y-95834200D03*
X103251000Y-95834200D03*
X105791000Y-95834200D03*
X104521000Y-95834200D03*
X107061000Y-95834200D03*
X108331000Y-95834200D03*
X108331000Y-105359200D03*
X107061000Y-105359200D03*
X105791000Y-105359200D03*
X104521000Y-105359200D03*
X103251000Y-105359200D03*
X101981000Y-105359200D03*
X100711000Y-105359200D03*
X99441000Y-105359200D03*
X98171000Y-105359200D03*
X96901000Y-105359200D03*
X95631000Y-105359200D03*
X94361000Y-105359200D03*
X93091000Y-105359200D03*
X91821000Y-105359200D03*
D15*
X98572320Y-108239560D03*
X102036880Y-113995200D03*
X91973400Y-112318800D03*
X87249000Y-112242600D03*
X91389200Y-116878100D03*
X83174840Y-111749840D03*
X79364840Y-103444040D03*
X80736440Y-95290640D03*
X87401400Y-89347040D03*
X113665000Y-90170000D03*
X118999000Y-96012000D03*
X120777000Y-104267000D03*
X116954300Y-111709200D03*
X110032800Y-116573300D03*
D16*
X101745800Y-111252000D02*
X101745800Y-109823500D01*
X104521000Y-107048300D02*
X104521000Y-105359200D01*
X101745800Y-109823500D02*
X104521000Y-107048300D01*
X101981000Y-97713800D02*
X101981000Y-98402140D01*
X111099600Y-111252000D02*
X101745800Y-111252000D01*
X115895120Y-106456480D02*
X111099600Y-111252000D01*
X115895120Y-100904040D02*
X115895120Y-106456480D01*
X114071400Y-99080320D02*
X115895120Y-100904040D01*
X102659180Y-99080320D02*
X114071400Y-99080320D01*
X101981000Y-98402140D02*
X102659180Y-99080320D01*
X98567240Y-115813840D02*
X98567240Y-114792760D01*
X98567240Y-114792760D02*
X99974400Y-113385600D01*
X99974400Y-113385600D02*
X101079300Y-113385600D01*
X101079300Y-113385600D02*
X101745800Y-112719100D01*
X101745800Y-112719100D02*
X101745800Y-111252000D01*
D17*
X101981000Y-95834200D02*
X101981000Y-97497900D01*
X101981000Y-97497900D02*
X101981000Y-97713800D01*
X101981000Y-97713800D02*
X101983540Y-97716340D01*
X103251000Y-95834200D02*
X103251000Y-96685100D01*
X97745800Y-109066080D02*
X97745800Y-111252000D01*
X98572320Y-108239560D02*
X97745800Y-109066080D01*
X106060240Y-113995200D02*
X102036880Y-113995200D01*
X107429300Y-112626140D02*
X106060240Y-113995200D01*
X110865920Y-112626140D02*
X107429300Y-112626140D01*
X116677440Y-106814620D02*
X110865920Y-112626140D01*
X116677440Y-100360480D02*
X116677440Y-106814620D01*
X114386360Y-98069400D02*
X116677440Y-100360480D01*
X104635300Y-98069400D02*
X114386360Y-98069400D01*
X103251000Y-96685100D02*
X104635300Y-98069400D01*
X105791000Y-105359200D02*
X105791000Y-103657400D01*
X93040200Y-111252000D02*
X97745800Y-111252000D01*
X91973400Y-112318800D02*
X93040200Y-111252000D01*
X83248500Y-108242100D02*
X87249000Y-112242600D01*
X83248500Y-107213400D02*
X83248500Y-108242100D01*
X82524600Y-106489500D02*
X83248500Y-107213400D01*
X82524600Y-100164900D02*
X82524600Y-106489500D01*
X85039200Y-97650300D02*
X82524600Y-100164900D01*
X99783900Y-97650300D02*
X85039200Y-97650300D01*
X105791000Y-103657400D02*
X99783900Y-97650300D01*
X98567240Y-118353840D02*
X98237040Y-118353840D01*
X98237040Y-118353840D02*
X96545400Y-116662200D01*
X97745800Y-113175800D02*
X97745800Y-111252000D01*
X96545400Y-114376200D02*
X97745800Y-113175800D01*
X96545400Y-116662200D02*
X96545400Y-114376200D01*
X98567240Y-118353840D02*
X98432620Y-118353840D01*
X107061000Y-105359200D02*
X108331000Y-105359200D01*
X105791000Y-105359200D02*
X107061000Y-105359200D01*
X93319385Y-117524040D02*
X92035140Y-117524040D01*
X92035140Y-117524040D02*
X91389200Y-116878100D01*
D18*
X84726214Y-113174214D02*
X84599214Y-113174214D01*
X84599214Y-113174214D02*
X83174840Y-111749840D01*
X79595296Y-105601616D02*
X79595296Y-103674496D01*
X79595296Y-103674496D02*
X79364840Y-103444040D01*
X79772000Y-97236051D02*
X79772000Y-96255080D01*
X79772000Y-96255080D02*
X80736440Y-95290640D01*
X85643949Y-90408000D02*
X86340440Y-90408000D01*
X86340440Y-90408000D02*
X87401400Y-89347040D01*
D17*
X115430304Y-91317153D02*
X114812153Y-91317153D01*
X114812153Y-91317153D02*
X113665000Y-90170000D01*
X118999000Y-96012000D02*
X120191943Y-97204943D01*
X120191943Y-97204943D02*
X120191943Y-97777895D01*
X120498654Y-106247536D02*
X120498654Y-104545346D01*
X120498654Y-104545346D02*
X120777000Y-104267000D01*
D18*
X115425786Y-113174214D02*
X115489286Y-113174214D01*
X115489286Y-113174214D02*
X116954300Y-111709200D01*
X115425786Y-113174214D02*
X115501986Y-113174214D01*
X109272560Y-117333540D02*
X110032800Y-116573300D01*
X107975615Y-117333540D02*
X109272560Y-117333540D01*
D17*
X91841320Y-95831660D02*
X91841320Y-91257120D01*
X91841320Y-91257120D02*
X91313000Y-90728800D01*
X91313000Y-90728800D02*
X90876120Y-90728800D01*
X90876120Y-90728800D02*
X87955120Y-93649800D01*
X87955120Y-93649800D02*
X85486240Y-93649800D01*
X85486240Y-93649800D02*
X83215480Y-95920560D01*
X83215480Y-95920560D02*
X83215480Y-98567240D01*
X83215480Y-98567240D02*
X81666080Y-100116640D01*
X81666080Y-100116640D02*
X81666080Y-106385360D01*
X81666080Y-106385360D02*
X82326480Y-107045760D01*
X82326480Y-107045760D02*
X82326480Y-108422440D01*
X82326480Y-108422440D02*
X86680040Y-112776000D01*
X86680040Y-112776000D02*
X86680040Y-113275385D01*
X86680040Y-113275385D02*
X89560615Y-116155960D01*
X93131640Y-95808800D02*
X93131640Y-90073480D01*
X93131640Y-90073480D02*
X92410280Y-89352120D01*
X92410280Y-89352120D02*
X91658440Y-89352120D01*
X91658440Y-89352120D02*
X87797640Y-93212920D01*
X87797640Y-93212920D02*
X85338920Y-93212920D01*
X85338920Y-93212920D02*
X82788760Y-95763080D01*
X82788760Y-95763080D02*
X82788760Y-98343720D01*
X82788760Y-98343720D02*
X81193640Y-99938840D01*
X81193640Y-99938840D02*
X81193640Y-106527600D01*
X81193640Y-106527600D02*
X81897786Y-107231746D01*
X81897786Y-107231746D02*
X81897786Y-110345786D01*
D18*
X82023654Y-110345786D02*
X81897786Y-110345786D01*
D17*
X94401640Y-95768160D02*
X94401640Y-89296240D01*
X94401640Y-89296240D02*
X94035880Y-88930480D01*
X94035880Y-88930480D02*
X91511120Y-88930480D01*
X91511120Y-88930480D02*
X87640160Y-92801440D01*
X87640160Y-92801440D02*
X85095080Y-92801440D01*
X85095080Y-92801440D02*
X82341720Y-95554800D01*
X82341720Y-95554800D02*
X82341720Y-98221368D01*
X82341720Y-98221368D02*
X78900704Y-101662384D01*
X95631000Y-95829120D02*
X95631000Y-89794080D01*
X95631000Y-89794080D02*
X94269560Y-88432640D01*
X94269560Y-88432640D02*
X91363800Y-88432640D01*
X91363800Y-88432640D02*
X87452200Y-92344240D01*
X87452200Y-92344240D02*
X83199709Y-92344240D01*
X83199709Y-92344240D02*
X81772000Y-93771949D01*
X96840040Y-95747840D02*
X96840040Y-90246200D01*
X96840040Y-90246200D02*
X94609920Y-88016080D01*
X94609920Y-88016080D02*
X89108051Y-88016080D01*
D18*
X89108051Y-88574651D02*
X89108051Y-88016080D01*
D17*
X98150680Y-95747840D02*
X98150680Y-90444320D01*
X111133543Y-90043000D02*
X112153696Y-89022847D01*
X110744000Y-90043000D02*
X111133543Y-90043000D01*
X108712000Y-88011000D02*
X110744000Y-90043000D01*
X100584000Y-88011000D02*
X108712000Y-88011000D01*
X98150680Y-90444320D02*
X100584000Y-88011000D01*
D18*
X112556616Y-89237237D02*
X111563837Y-89237237D01*
D17*
X99420680Y-95808800D02*
X99420680Y-89809320D01*
X116217105Y-94246105D02*
X118314057Y-94246105D01*
X114046000Y-92075000D02*
X116217105Y-94246105D01*
X112141000Y-92075000D02*
X114046000Y-92075000D01*
X108585000Y-88519000D02*
X112141000Y-92075000D01*
X100711000Y-88519000D02*
X108585000Y-88519000D01*
X99420680Y-89809320D02*
X100711000Y-88519000D01*
X100751640Y-95930720D02*
X100751640Y-89367360D01*
X119685464Y-102286464D02*
X121055346Y-102286464D01*
X118999000Y-101600000D02*
X119685464Y-102286464D01*
X118999000Y-99441000D02*
X118999000Y-101600000D01*
X116840000Y-97282000D02*
X118999000Y-99441000D01*
X116840000Y-95504000D02*
X116840000Y-97282000D01*
X113919000Y-92583000D02*
X116840000Y-95504000D01*
X112014000Y-92583000D02*
X113919000Y-92583000D01*
X108458000Y-89027000D02*
X112014000Y-92583000D01*
X101092000Y-89027000D02*
X108458000Y-89027000D01*
X100751640Y-89367360D02*
X101092000Y-89027000D01*
X100711000Y-105359200D02*
X100711000Y-99949000D01*
X118254214Y-112593686D02*
X118254214Y-110345786D01*
X111213900Y-119634000D02*
X118254214Y-112593686D01*
X104470200Y-119634000D02*
X111213900Y-119634000D01*
X104165400Y-119938800D02*
X104470200Y-119634000D01*
X95478600Y-119938800D02*
X104165400Y-119938800D01*
X94983300Y-119443500D02*
X95478600Y-119938800D01*
X94983300Y-115824000D02*
X94983300Y-119443500D01*
X94068900Y-114909600D02*
X94983300Y-115824000D01*
X90830400Y-114909600D02*
X94068900Y-114909600D01*
X83972400Y-108051600D02*
X90830400Y-114909600D01*
X83972400Y-107137200D02*
X83972400Y-108051600D01*
X83019900Y-106184700D02*
X83972400Y-107137200D01*
X83019900Y-100660200D02*
X83019900Y-106184700D01*
X85229700Y-98450400D02*
X83019900Y-100660200D01*
X99212400Y-98450400D02*
X85229700Y-98450400D01*
X100711000Y-99949000D02*
X99212400Y-98450400D01*
X105791000Y-95834200D02*
X105791000Y-90081100D01*
X104637840Y-118353840D02*
X101107240Y-118353840D01*
X108244640Y-114747040D02*
X104637840Y-118353840D01*
X111147860Y-114747040D02*
X108244640Y-114747040D01*
X118577360Y-107317540D02*
X111147860Y-114747040D01*
X118577360Y-99773740D02*
X118577360Y-107317540D01*
X108300520Y-89496900D02*
X118577360Y-99773740D01*
X106375200Y-89496900D02*
X108300520Y-89496900D01*
X105791000Y-90081100D02*
X106375200Y-89496900D01*
X107061000Y-95834200D02*
X107061000Y-92519500D01*
X104968040Y-115813840D02*
X101107240Y-115813840D01*
X107736640Y-113045240D02*
X104968040Y-115813840D01*
X111033560Y-113045240D02*
X107736640Y-113045240D01*
X117180360Y-106898440D02*
X111033560Y-113045240D01*
X117180360Y-100136960D02*
X117180360Y-106898440D01*
X109024420Y-91981020D02*
X117180360Y-100136960D01*
X107599480Y-91981020D02*
X109024420Y-91981020D01*
X107061000Y-92519500D02*
X107599480Y-91981020D01*
X99441000Y-105359200D02*
X99441000Y-100363020D01*
X111734385Y-117734295D02*
X111734385Y-115965460D01*
X110423960Y-119044720D02*
X111734385Y-117734295D01*
X104274620Y-119044720D02*
X110423960Y-119044720D01*
X103780542Y-119538798D02*
X104274620Y-119044720D01*
X96895920Y-119538798D02*
X103780542Y-119538798D01*
X95945960Y-118588838D02*
X96895920Y-119538798D01*
X95945960Y-115503960D02*
X95945960Y-118588838D01*
X94660720Y-114218720D02*
X95945960Y-115503960D01*
X91196160Y-114218720D02*
X94660720Y-114218720D01*
X85105240Y-108127800D02*
X91196160Y-114218720D01*
X85105240Y-107289600D02*
X85105240Y-108127800D01*
X83820000Y-106004360D02*
X85105240Y-107289600D01*
X83820000Y-100975160D02*
X83820000Y-106004360D01*
X85384640Y-99410520D02*
X83820000Y-100975160D01*
X98488500Y-99410520D02*
X85384640Y-99410520D01*
X99441000Y-100363020D02*
X98488500Y-99410520D01*
D19*
G36*
X98706000Y-100667467D02*
X98706000Y-104171446D01*
X98552000Y-104140260D01*
X97790000Y-104140260D01*
X97554683Y-104184538D01*
X97538901Y-104194693D01*
X97533890Y-104191269D01*
X97282000Y-104140260D01*
X96520000Y-104140260D01*
X96284683Y-104184538D01*
X96268901Y-104194693D01*
X96263890Y-104191269D01*
X96012000Y-104140260D01*
X95250000Y-104140260D01*
X95014683Y-104184538D01*
X94998901Y-104194693D01*
X94993890Y-104191269D01*
X94742000Y-104140260D01*
X93980000Y-104140260D01*
X93744683Y-104184538D01*
X93728901Y-104194693D01*
X93723890Y-104191269D01*
X93472000Y-104140260D01*
X92710000Y-104140260D01*
X92474683Y-104184538D01*
X92458901Y-104194693D01*
X92453890Y-104191269D01*
X92202000Y-104140260D01*
X91440000Y-104140260D01*
X91204683Y-104184538D01*
X90988559Y-104323610D01*
X90843569Y-104535810D01*
X90792560Y-104787700D01*
X90792560Y-105930700D01*
X90836838Y-106166017D01*
X90975910Y-106382141D01*
X91188110Y-106527131D01*
X91440000Y-106578140D01*
X92202000Y-106578140D01*
X92437317Y-106533862D01*
X92453099Y-106523707D01*
X92458110Y-106527131D01*
X92710000Y-106578140D01*
X93472000Y-106578140D01*
X93707317Y-106533862D01*
X93723099Y-106523707D01*
X93728110Y-106527131D01*
X93980000Y-106578140D01*
X94742000Y-106578140D01*
X94977317Y-106533862D01*
X94993099Y-106523707D01*
X94998110Y-106527131D01*
X95250000Y-106578140D01*
X96012000Y-106578140D01*
X96247317Y-106533862D01*
X96263099Y-106523707D01*
X96268110Y-106527131D01*
X96520000Y-106578140D01*
X97282000Y-106578140D01*
X97517317Y-106533862D01*
X97533099Y-106523707D01*
X97538110Y-106527131D01*
X97790000Y-106578140D01*
X98552000Y-106578140D01*
X98787317Y-106533862D01*
X98803099Y-106523707D01*
X98808110Y-106527131D01*
X99060000Y-106578140D01*
X99822000Y-106578140D01*
X100057317Y-106533862D01*
X100073099Y-106523707D01*
X100078110Y-106527131D01*
X100330000Y-106578140D01*
X101092000Y-106578140D01*
X101327317Y-106533862D01*
X101343099Y-106523707D01*
X101348110Y-106527131D01*
X101600000Y-106578140D01*
X102362000Y-106578140D01*
X102597317Y-106533862D01*
X102613099Y-106523707D01*
X102618110Y-106527131D01*
X102870000Y-106578140D01*
X103632000Y-106578140D01*
X103636000Y-106577387D01*
X103636000Y-106681721D01*
X101120010Y-109197710D01*
X100928167Y-109484825D01*
X100916990Y-109541016D01*
X100864566Y-109804560D01*
X100745800Y-109804560D01*
X100510483Y-109848838D01*
X100294359Y-109987910D01*
X100149369Y-110200110D01*
X100098360Y-110452000D01*
X100098360Y-112052000D01*
X100142638Y-112287317D01*
X100279882Y-112500600D01*
X99974405Y-112500600D01*
X99974400Y-112500599D01*
X99691916Y-112556790D01*
X99635725Y-112567967D01*
X99348610Y-112759810D01*
X99348608Y-112759813D01*
X97941450Y-114166970D01*
X97749607Y-114454085D01*
X97738430Y-114510276D01*
X97718646Y-114609736D01*
X97488093Y-114763786D01*
X97166186Y-115245555D01*
X97053147Y-115813840D01*
X97166186Y-116382125D01*
X97488093Y-116863894D01*
X97828793Y-117091542D01*
X97685882Y-117158657D01*
X97295595Y-117586916D01*
X97125764Y-117996950D01*
X97247085Y-118226840D01*
X98440240Y-118226840D01*
X98440240Y-118206840D01*
X98694240Y-118206840D01*
X98694240Y-118226840D01*
X98714240Y-118226840D01*
X98714240Y-118480840D01*
X98694240Y-118480840D01*
X98694240Y-118500840D01*
X98440240Y-118500840D01*
X98440240Y-118480840D01*
X97247085Y-118480840D01*
X97125764Y-118710730D01*
X97138820Y-118742251D01*
X96680960Y-118284392D01*
X96680960Y-115503960D01*
X96625011Y-115222688D01*
X96603752Y-115190872D01*
X96465684Y-114984237D01*
X95180443Y-113698997D01*
X94941992Y-113539669D01*
X94927232Y-113536733D01*
X94660720Y-113483720D01*
X91500607Y-113483720D01*
X89554637Y-111537750D01*
X96110800Y-111537750D01*
X96110800Y-112178310D01*
X96207473Y-112411699D01*
X96386102Y-112590327D01*
X96619491Y-112687000D01*
X97460050Y-112687000D01*
X97618800Y-112528250D01*
X97618800Y-111379000D01*
X97872800Y-111379000D01*
X97872800Y-112528250D01*
X98031550Y-112687000D01*
X98872109Y-112687000D01*
X99105498Y-112590327D01*
X99284127Y-112411699D01*
X99380800Y-112178310D01*
X99380800Y-111537750D01*
X99222050Y-111379000D01*
X97872800Y-111379000D01*
X97618800Y-111379000D01*
X96269550Y-111379000D01*
X96110800Y-111537750D01*
X89554637Y-111537750D01*
X88342577Y-110325690D01*
X96110800Y-110325690D01*
X96110800Y-110966250D01*
X96269550Y-111125000D01*
X97618800Y-111125000D01*
X97618800Y-109975750D01*
X97872800Y-109975750D01*
X97872800Y-111125000D01*
X99222050Y-111125000D01*
X99380800Y-110966250D01*
X99380800Y-110325690D01*
X99284127Y-110092301D01*
X99105498Y-109913673D01*
X98872109Y-109817000D01*
X98031550Y-109817000D01*
X97872800Y-109975750D01*
X97618800Y-109975750D01*
X97460050Y-109817000D01*
X96619491Y-109817000D01*
X96386102Y-109913673D01*
X96207473Y-110092301D01*
X96110800Y-110325690D01*
X88342577Y-110325690D01*
X85840240Y-107823354D01*
X85840240Y-107289600D01*
X85784291Y-107008328D01*
X85737733Y-106938649D01*
X85624964Y-106769877D01*
X84555000Y-105699914D01*
X84555000Y-101279606D01*
X85689087Y-100145520D01*
X98184054Y-100145520D01*
X98706000Y-100667467D01*
X98706000Y-100667467D01*
G37*
X98706000Y-100667467D02*
X98706000Y-104171446D01*
X98552000Y-104140260D01*
X97790000Y-104140260D01*
X97554683Y-104184538D01*
X97538901Y-104194693D01*
X97533890Y-104191269D01*
X97282000Y-104140260D01*
X96520000Y-104140260D01*
X96284683Y-104184538D01*
X96268901Y-104194693D01*
X96263890Y-104191269D01*
X96012000Y-104140260D01*
X95250000Y-104140260D01*
X95014683Y-104184538D01*
X94998901Y-104194693D01*
X94993890Y-104191269D01*
X94742000Y-104140260D01*
X93980000Y-104140260D01*
X93744683Y-104184538D01*
X93728901Y-104194693D01*
X93723890Y-104191269D01*
X93472000Y-104140260D01*
X92710000Y-104140260D01*
X92474683Y-104184538D01*
X92458901Y-104194693D01*
X92453890Y-104191269D01*
X92202000Y-104140260D01*
X91440000Y-104140260D01*
X91204683Y-104184538D01*
X90988559Y-104323610D01*
X90843569Y-104535810D01*
X90792560Y-104787700D01*
X90792560Y-105930700D01*
X90836838Y-106166017D01*
X90975910Y-106382141D01*
X91188110Y-106527131D01*
X91440000Y-106578140D01*
X92202000Y-106578140D01*
X92437317Y-106533862D01*
X92453099Y-106523707D01*
X92458110Y-106527131D01*
X92710000Y-106578140D01*
X93472000Y-106578140D01*
X93707317Y-106533862D01*
X93723099Y-106523707D01*
X93728110Y-106527131D01*
X93980000Y-106578140D01*
X94742000Y-106578140D01*
X94977317Y-106533862D01*
X94993099Y-106523707D01*
X94998110Y-106527131D01*
X95250000Y-106578140D01*
X96012000Y-106578140D01*
X96247317Y-106533862D01*
X96263099Y-106523707D01*
X96268110Y-106527131D01*
X96520000Y-106578140D01*
X97282000Y-106578140D01*
X97517317Y-106533862D01*
X97533099Y-106523707D01*
X97538110Y-106527131D01*
X97790000Y-106578140D01*
X98552000Y-106578140D01*
X98787317Y-106533862D01*
X98803099Y-106523707D01*
X98808110Y-106527131D01*
X99060000Y-106578140D01*
X99822000Y-106578140D01*
X100057317Y-106533862D01*
X100073099Y-106523707D01*
X100078110Y-106527131D01*
X100330000Y-106578140D01*
X101092000Y-106578140D01*
X101327317Y-106533862D01*
X101343099Y-106523707D01*
X101348110Y-106527131D01*
X101600000Y-106578140D01*
X102362000Y-106578140D01*
X102597317Y-106533862D01*
X102613099Y-106523707D01*
X102618110Y-106527131D01*
X102870000Y-106578140D01*
X103632000Y-106578140D01*
X103636000Y-106577387D01*
X103636000Y-106681721D01*
X101120010Y-109197710D01*
X100928167Y-109484825D01*
X100916990Y-109541016D01*
X100864566Y-109804560D01*
X100745800Y-109804560D01*
X100510483Y-109848838D01*
X100294359Y-109987910D01*
X100149369Y-110200110D01*
X100098360Y-110452000D01*
X100098360Y-112052000D01*
X100142638Y-112287317D01*
X100279882Y-112500600D01*
X99974405Y-112500600D01*
X99974400Y-112500599D01*
X99691916Y-112556790D01*
X99635725Y-112567967D01*
X99348610Y-112759810D01*
X99348608Y-112759813D01*
X97941450Y-114166970D01*
X97749607Y-114454085D01*
X97738430Y-114510276D01*
X97718646Y-114609736D01*
X97488093Y-114763786D01*
X97166186Y-115245555D01*
X97053147Y-115813840D01*
X97166186Y-116382125D01*
X97488093Y-116863894D01*
X97828793Y-117091542D01*
X97685882Y-117158657D01*
X97295595Y-117586916D01*
X97125764Y-117996950D01*
X97247085Y-118226840D01*
X98440240Y-118226840D01*
X98440240Y-118206840D01*
X98694240Y-118206840D01*
X98694240Y-118226840D01*
X98714240Y-118226840D01*
X98714240Y-118480840D01*
X98694240Y-118480840D01*
X98694240Y-118500840D01*
X98440240Y-118500840D01*
X98440240Y-118480840D01*
X97247085Y-118480840D01*
X97125764Y-118710730D01*
X97138820Y-118742251D01*
X96680960Y-118284392D01*
X96680960Y-115503960D01*
X96625011Y-115222688D01*
X96603752Y-115190872D01*
X96465684Y-114984237D01*
X95180443Y-113698997D01*
X94941992Y-113539669D01*
X94927232Y-113536733D01*
X94660720Y-113483720D01*
X91500607Y-113483720D01*
X89554637Y-111537750D01*
X96110800Y-111537750D01*
X96110800Y-112178310D01*
X96207473Y-112411699D01*
X96386102Y-112590327D01*
X96619491Y-112687000D01*
X97460050Y-112687000D01*
X97618800Y-112528250D01*
X97618800Y-111379000D01*
X97872800Y-111379000D01*
X97872800Y-112528250D01*
X98031550Y-112687000D01*
X98872109Y-112687000D01*
X99105498Y-112590327D01*
X99284127Y-112411699D01*
X99380800Y-112178310D01*
X99380800Y-111537750D01*
X99222050Y-111379000D01*
X97872800Y-111379000D01*
X97618800Y-111379000D01*
X96269550Y-111379000D01*
X96110800Y-111537750D01*
X89554637Y-111537750D01*
X88342577Y-110325690D01*
X96110800Y-110325690D01*
X96110800Y-110966250D01*
X96269550Y-111125000D01*
X97618800Y-111125000D01*
X97618800Y-109975750D01*
X97872800Y-109975750D01*
X97872800Y-111125000D01*
X99222050Y-111125000D01*
X99380800Y-110966250D01*
X99380800Y-110325690D01*
X99284127Y-110092301D01*
X99105498Y-109913673D01*
X98872109Y-109817000D01*
X98031550Y-109817000D01*
X97872800Y-109975750D01*
X97618800Y-109975750D01*
X97460050Y-109817000D01*
X96619491Y-109817000D01*
X96386102Y-109913673D01*
X96207473Y-110092301D01*
X96110800Y-110325690D01*
X88342577Y-110325690D01*
X85840240Y-107823354D01*
X85840240Y-107289600D01*
X85784291Y-107008328D01*
X85737733Y-106938649D01*
X85624964Y-106769877D01*
X84555000Y-105699914D01*
X84555000Y-101279606D01*
X85689087Y-100145520D01*
X98184054Y-100145520D01*
X98706000Y-100667467D01*
G36*
X110729114Y-112310240D02*
X107736640Y-112310240D01*
X107455368Y-112366189D01*
X107216917Y-112525516D01*
X104663594Y-115078840D01*
X102410317Y-115078840D01*
X102366896Y-114973754D01*
X101949523Y-114555652D01*
X101403921Y-114329098D01*
X100813151Y-114328583D01*
X100267154Y-114554184D01*
X99849052Y-114971557D01*
X99824585Y-115030479D01*
X99727059Y-114884521D01*
X100340979Y-114270600D01*
X101079295Y-114270600D01*
X101079300Y-114270601D01*
X101361784Y-114214410D01*
X101417975Y-114203233D01*
X101705090Y-114011390D01*
X101705091Y-114011389D01*
X102371587Y-113344892D01*
X102371590Y-113344890D01*
X102563433Y-113057775D01*
X102630800Y-112719100D01*
X102630800Y-112699440D01*
X102745800Y-112699440D01*
X102981117Y-112655162D01*
X103197241Y-112516090D01*
X103342231Y-112303890D01*
X103376027Y-112137000D01*
X110902354Y-112137000D01*
X110729114Y-112310240D01*
X110729114Y-112310240D01*
G37*
X110729114Y-112310240D02*
X107736640Y-112310240D01*
X107455368Y-112366189D01*
X107216917Y-112525516D01*
X104663594Y-115078840D01*
X102410317Y-115078840D01*
X102366896Y-114973754D01*
X101949523Y-114555652D01*
X101403921Y-114329098D01*
X100813151Y-114328583D01*
X100267154Y-114554184D01*
X99849052Y-114971557D01*
X99824585Y-115030479D01*
X99727059Y-114884521D01*
X100340979Y-114270600D01*
X101079295Y-114270600D01*
X101079300Y-114270601D01*
X101361784Y-114214410D01*
X101417975Y-114203233D01*
X101705090Y-114011390D01*
X101705091Y-114011389D01*
X102371587Y-113344892D01*
X102371590Y-113344890D01*
X102563433Y-113057775D01*
X102630800Y-112719100D01*
X102630800Y-112699440D01*
X102745800Y-112699440D01*
X102981117Y-112655162D01*
X103197241Y-112516090D01*
X103342231Y-112303890D01*
X103376027Y-112137000D01*
X110902354Y-112137000D01*
X110729114Y-112310240D01*
G36*
X91106320Y-91561567D02*
X91106320Y-94722833D01*
X90988559Y-94798610D01*
X90843569Y-95010810D01*
X90792560Y-95262700D01*
X90792560Y-96405700D01*
X90836838Y-96641017D01*
X90975910Y-96857141D01*
X91188110Y-97002131D01*
X91440000Y-97053140D01*
X92202000Y-97053140D01*
X92437317Y-97008862D01*
X92453099Y-96998707D01*
X92458110Y-97002131D01*
X92710000Y-97053140D01*
X93472000Y-97053140D01*
X93707317Y-97008862D01*
X93723099Y-96998707D01*
X93728110Y-97002131D01*
X93980000Y-97053140D01*
X94742000Y-97053140D01*
X94977317Y-97008862D01*
X94993099Y-96998707D01*
X94998110Y-97002131D01*
X95250000Y-97053140D01*
X96012000Y-97053140D01*
X96247317Y-97008862D01*
X96263099Y-96998707D01*
X96268110Y-97002131D01*
X96520000Y-97053140D01*
X97282000Y-97053140D01*
X97517317Y-97008862D01*
X97533099Y-96998707D01*
X97538110Y-97002131D01*
X97790000Y-97053140D01*
X98552000Y-97053140D01*
X98787317Y-97008862D01*
X98803099Y-96998707D01*
X98808110Y-97002131D01*
X99060000Y-97053140D01*
X99822000Y-97053140D01*
X100057317Y-97008862D01*
X100073099Y-96998707D01*
X100078110Y-97002131D01*
X100330000Y-97053140D01*
X101092000Y-97053140D01*
X101246000Y-97024163D01*
X101246000Y-97251455D01*
X101163367Y-97375125D01*
X101096000Y-97713800D01*
X101096000Y-98402135D01*
X101095999Y-98402140D01*
X101152041Y-98683878D01*
X101163367Y-98740815D01*
X101335012Y-98997702D01*
X101355210Y-99027930D01*
X102033388Y-99706107D01*
X102033390Y-99706110D01*
X102312151Y-99892371D01*
X102320505Y-99897953D01*
X102659180Y-99965320D01*
X113704820Y-99965320D01*
X115010120Y-101270619D01*
X115010120Y-106089901D01*
X110733020Y-110367000D01*
X103377246Y-110367000D01*
X103348962Y-110216683D01*
X103209890Y-110000559D01*
X102997690Y-109855569D01*
X102970764Y-109850116D01*
X105146787Y-107674092D01*
X105146790Y-107674090D01*
X105338633Y-107386975D01*
X105406000Y-107048300D01*
X105406000Y-106565700D01*
X105505250Y-106565700D01*
X105664000Y-106406950D01*
X105664000Y-105486200D01*
X105918000Y-105486200D01*
X105918000Y-106406950D01*
X106076750Y-106565700D01*
X106298309Y-106565700D01*
X106426000Y-106512809D01*
X106553691Y-106565700D01*
X106775250Y-106565700D01*
X106934000Y-106406950D01*
X106934000Y-105486200D01*
X107188000Y-105486200D01*
X107188000Y-106406950D01*
X107346750Y-106565700D01*
X107568309Y-106565700D01*
X107696000Y-106512809D01*
X107823691Y-106565700D01*
X108045250Y-106565700D01*
X108204000Y-106406950D01*
X108204000Y-105486200D01*
X108458000Y-105486200D01*
X108458000Y-106406950D01*
X108616750Y-106565700D01*
X108838309Y-106565700D01*
X109071698Y-106469027D01*
X109250327Y-106290399D01*
X109347000Y-106057010D01*
X109347000Y-105644950D01*
X109188250Y-105486200D01*
X108458000Y-105486200D01*
X108204000Y-105486200D01*
X107188000Y-105486200D01*
X106934000Y-105486200D01*
X105918000Y-105486200D01*
X105664000Y-105486200D01*
X105644000Y-105486200D01*
X105644000Y-105232200D01*
X105664000Y-105232200D01*
X105664000Y-104311450D01*
X105918000Y-104311450D01*
X105918000Y-105232200D01*
X106934000Y-105232200D01*
X106934000Y-104311450D01*
X107188000Y-104311450D01*
X107188000Y-105232200D01*
X108204000Y-105232200D01*
X108204000Y-104311450D01*
X108458000Y-104311450D01*
X108458000Y-105232200D01*
X109188250Y-105232200D01*
X109347000Y-105073450D01*
X109347000Y-104661390D01*
X109250327Y-104428001D01*
X109071698Y-104249373D01*
X108838309Y-104152700D01*
X108616750Y-104152700D01*
X108458000Y-104311450D01*
X108204000Y-104311450D01*
X108045250Y-104152700D01*
X107823691Y-104152700D01*
X107696000Y-104205591D01*
X107568309Y-104152700D01*
X107346750Y-104152700D01*
X107188000Y-104311450D01*
X106934000Y-104311450D01*
X106775250Y-104152700D01*
X106553691Y-104152700D01*
X106426000Y-104205591D01*
X106298309Y-104152700D01*
X106076750Y-104152700D01*
X105918000Y-104311450D01*
X105664000Y-104311450D01*
X105505250Y-104152700D01*
X105283691Y-104152700D01*
X105167737Y-104200730D01*
X105153890Y-104191269D01*
X104902000Y-104140260D01*
X104140000Y-104140260D01*
X103904683Y-104184538D01*
X103888901Y-104194693D01*
X103883890Y-104191269D01*
X103632000Y-104140260D01*
X102870000Y-104140260D01*
X102634683Y-104184538D01*
X102618901Y-104194693D01*
X102613890Y-104191269D01*
X102362000Y-104140260D01*
X101600000Y-104140260D01*
X101446000Y-104169237D01*
X101446000Y-99949000D01*
X101394838Y-99691792D01*
X101390051Y-99667727D01*
X101230723Y-99429276D01*
X99732123Y-97930677D01*
X99493672Y-97771349D01*
X99212400Y-97715400D01*
X85229700Y-97715400D01*
X84948428Y-97771349D01*
X84709976Y-97930677D01*
X83919955Y-98720698D01*
X83950480Y-98567240D01*
X83950480Y-96225006D01*
X85790687Y-94384800D01*
X87955120Y-94384800D01*
X88236392Y-94328851D01*
X88474843Y-94169523D01*
X91094560Y-91549807D01*
X91106320Y-91561567D01*
X91106320Y-91561567D01*
G37*
X91106320Y-91561567D02*
X91106320Y-94722833D01*
X90988559Y-94798610D01*
X90843569Y-95010810D01*
X90792560Y-95262700D01*
X90792560Y-96405700D01*
X90836838Y-96641017D01*
X90975910Y-96857141D01*
X91188110Y-97002131D01*
X91440000Y-97053140D01*
X92202000Y-97053140D01*
X92437317Y-97008862D01*
X92453099Y-96998707D01*
X92458110Y-97002131D01*
X92710000Y-97053140D01*
X93472000Y-97053140D01*
X93707317Y-97008862D01*
X93723099Y-96998707D01*
X93728110Y-97002131D01*
X93980000Y-97053140D01*
X94742000Y-97053140D01*
X94977317Y-97008862D01*
X94993099Y-96998707D01*
X94998110Y-97002131D01*
X95250000Y-97053140D01*
X96012000Y-97053140D01*
X96247317Y-97008862D01*
X96263099Y-96998707D01*
X96268110Y-97002131D01*
X96520000Y-97053140D01*
X97282000Y-97053140D01*
X97517317Y-97008862D01*
X97533099Y-96998707D01*
X97538110Y-97002131D01*
X97790000Y-97053140D01*
X98552000Y-97053140D01*
X98787317Y-97008862D01*
X98803099Y-96998707D01*
X98808110Y-97002131D01*
X99060000Y-97053140D01*
X99822000Y-97053140D01*
X100057317Y-97008862D01*
X100073099Y-96998707D01*
X100078110Y-97002131D01*
X100330000Y-97053140D01*
X101092000Y-97053140D01*
X101246000Y-97024163D01*
X101246000Y-97251455D01*
X101163367Y-97375125D01*
X101096000Y-97713800D01*
X101096000Y-98402135D01*
X101095999Y-98402140D01*
X101152041Y-98683878D01*
X101163367Y-98740815D01*
X101335012Y-98997702D01*
X101355210Y-99027930D01*
X102033388Y-99706107D01*
X102033390Y-99706110D01*
X102312151Y-99892371D01*
X102320505Y-99897953D01*
X102659180Y-99965320D01*
X113704820Y-99965320D01*
X115010120Y-101270619D01*
X115010120Y-106089901D01*
X110733020Y-110367000D01*
X103377246Y-110367000D01*
X103348962Y-110216683D01*
X103209890Y-110000559D01*
X102997690Y-109855569D01*
X102970764Y-109850116D01*
X105146787Y-107674092D01*
X105146790Y-107674090D01*
X105338633Y-107386975D01*
X105406000Y-107048300D01*
X105406000Y-106565700D01*
X105505250Y-106565700D01*
X105664000Y-106406950D01*
X105664000Y-105486200D01*
X105918000Y-105486200D01*
X105918000Y-106406950D01*
X106076750Y-106565700D01*
X106298309Y-106565700D01*
X106426000Y-106512809D01*
X106553691Y-106565700D01*
X106775250Y-106565700D01*
X106934000Y-106406950D01*
X106934000Y-105486200D01*
X107188000Y-105486200D01*
X107188000Y-106406950D01*
X107346750Y-106565700D01*
X107568309Y-106565700D01*
X107696000Y-106512809D01*
X107823691Y-106565700D01*
X108045250Y-106565700D01*
X108204000Y-106406950D01*
X108204000Y-105486200D01*
X108458000Y-105486200D01*
X108458000Y-106406950D01*
X108616750Y-106565700D01*
X108838309Y-106565700D01*
X109071698Y-106469027D01*
X109250327Y-106290399D01*
X109347000Y-106057010D01*
X109347000Y-105644950D01*
X109188250Y-105486200D01*
X108458000Y-105486200D01*
X108204000Y-105486200D01*
X107188000Y-105486200D01*
X106934000Y-105486200D01*
X105918000Y-105486200D01*
X105664000Y-105486200D01*
X105644000Y-105486200D01*
X105644000Y-105232200D01*
X105664000Y-105232200D01*
X105664000Y-104311450D01*
X105918000Y-104311450D01*
X105918000Y-105232200D01*
X106934000Y-105232200D01*
X106934000Y-104311450D01*
X107188000Y-104311450D01*
X107188000Y-105232200D01*
X108204000Y-105232200D01*
X108204000Y-104311450D01*
X108458000Y-104311450D01*
X108458000Y-105232200D01*
X109188250Y-105232200D01*
X109347000Y-105073450D01*
X109347000Y-104661390D01*
X109250327Y-104428001D01*
X109071698Y-104249373D01*
X108838309Y-104152700D01*
X108616750Y-104152700D01*
X108458000Y-104311450D01*
X108204000Y-104311450D01*
X108045250Y-104152700D01*
X107823691Y-104152700D01*
X107696000Y-104205591D01*
X107568309Y-104152700D01*
X107346750Y-104152700D01*
X107188000Y-104311450D01*
X106934000Y-104311450D01*
X106775250Y-104152700D01*
X106553691Y-104152700D01*
X106426000Y-104205591D01*
X106298309Y-104152700D01*
X106076750Y-104152700D01*
X105918000Y-104311450D01*
X105664000Y-104311450D01*
X105505250Y-104152700D01*
X105283691Y-104152700D01*
X105167737Y-104200730D01*
X105153890Y-104191269D01*
X104902000Y-104140260D01*
X104140000Y-104140260D01*
X103904683Y-104184538D01*
X103888901Y-104194693D01*
X103883890Y-104191269D01*
X103632000Y-104140260D01*
X102870000Y-104140260D01*
X102634683Y-104184538D01*
X102618901Y-104194693D01*
X102613890Y-104191269D01*
X102362000Y-104140260D01*
X101600000Y-104140260D01*
X101446000Y-104169237D01*
X101446000Y-99949000D01*
X101394838Y-99691792D01*
X101390051Y-99667727D01*
X101230723Y-99429276D01*
X99732123Y-97930677D01*
X99493672Y-97771349D01*
X99212400Y-97715400D01*
X85229700Y-97715400D01*
X84948428Y-97771349D01*
X84709976Y-97930677D01*
X83919955Y-98720698D01*
X83950480Y-98567240D01*
X83950480Y-96225006D01*
X85790687Y-94384800D01*
X87955120Y-94384800D01*
X88236392Y-94328851D01*
X88474843Y-94169523D01*
X91094560Y-91549807D01*
X91106320Y-91561567D01*
G36*
X83237400Y-107441647D02*
X83237400Y-108051600D01*
X83282637Y-108279019D01*
X83293349Y-108332872D01*
X83327563Y-108384077D01*
X83061480Y-108117994D01*
X83061480Y-107265727D01*
X83237400Y-107441647D01*
X83237400Y-107441647D01*
G37*
X83237400Y-107441647D02*
X83237400Y-108051600D01*
X83282637Y-108279019D01*
X83293349Y-108332872D01*
X83327563Y-108384077D01*
X83061480Y-108117994D01*
X83061480Y-107265727D01*
X83237400Y-107441647D01*
G36*
X105111949Y-89799828D02*
X105056000Y-90081100D01*
X105056000Y-94646446D01*
X104902000Y-94615260D01*
X104140000Y-94615260D01*
X103904683Y-94659538D01*
X103877461Y-94677055D01*
X103758309Y-94627700D01*
X103536750Y-94627700D01*
X103378000Y-94786450D01*
X103378000Y-95707200D01*
X103398000Y-95707200D01*
X103398000Y-95961200D01*
X103378000Y-95961200D01*
X103378000Y-96881950D01*
X103536750Y-97040700D01*
X103758309Y-97040700D01*
X103874263Y-96992670D01*
X103888110Y-97002131D01*
X104140000Y-97053140D01*
X104902000Y-97053140D01*
X105137317Y-97008862D01*
X105153099Y-96998707D01*
X105158110Y-97002131D01*
X105410000Y-97053140D01*
X106172000Y-97053140D01*
X106407317Y-97008862D01*
X106423099Y-96998707D01*
X106428110Y-97002131D01*
X106680000Y-97053140D01*
X107442000Y-97053140D01*
X107677317Y-97008862D01*
X107693099Y-96998707D01*
X107698110Y-97002131D01*
X107950000Y-97053140D01*
X108712000Y-97053140D01*
X108947317Y-97008862D01*
X109163441Y-96869790D01*
X109308431Y-96657590D01*
X109359440Y-96405700D01*
X109359440Y-95262700D01*
X109315162Y-95027383D01*
X109176090Y-94811259D01*
X108963890Y-94666269D01*
X108712000Y-94615260D01*
X107950000Y-94615260D01*
X107796000Y-94644237D01*
X107796000Y-92823946D01*
X107903927Y-92716020D01*
X108719974Y-92716020D01*
X114231024Y-98227071D01*
X114071400Y-98195319D01*
X114071395Y-98195320D01*
X103025759Y-98195320D01*
X102866000Y-98035560D01*
X102866000Y-97713800D01*
X102798633Y-97375125D01*
X102716000Y-97251455D01*
X102716000Y-97029230D01*
X102743691Y-97040700D01*
X102965250Y-97040700D01*
X103124000Y-96881950D01*
X103124000Y-95961200D01*
X103104000Y-95961200D01*
X103104000Y-95707200D01*
X103124000Y-95707200D01*
X103124000Y-94786450D01*
X102965250Y-94627700D01*
X102743691Y-94627700D01*
X102627737Y-94675730D01*
X102613890Y-94666269D01*
X102362000Y-94615260D01*
X101600000Y-94615260D01*
X101486640Y-94636590D01*
X101486640Y-89762000D01*
X105137225Y-89762000D01*
X105111949Y-89799828D01*
X105111949Y-89799828D01*
G37*
X105111949Y-89799828D02*
X105056000Y-90081100D01*
X105056000Y-94646446D01*
X104902000Y-94615260D01*
X104140000Y-94615260D01*
X103904683Y-94659538D01*
X103877461Y-94677055D01*
X103758309Y-94627700D01*
X103536750Y-94627700D01*
X103378000Y-94786450D01*
X103378000Y-95707200D01*
X103398000Y-95707200D01*
X103398000Y-95961200D01*
X103378000Y-95961200D01*
X103378000Y-96881950D01*
X103536750Y-97040700D01*
X103758309Y-97040700D01*
X103874263Y-96992670D01*
X103888110Y-97002131D01*
X104140000Y-97053140D01*
X104902000Y-97053140D01*
X105137317Y-97008862D01*
X105153099Y-96998707D01*
X105158110Y-97002131D01*
X105410000Y-97053140D01*
X106172000Y-97053140D01*
X106407317Y-97008862D01*
X106423099Y-96998707D01*
X106428110Y-97002131D01*
X106680000Y-97053140D01*
X107442000Y-97053140D01*
X107677317Y-97008862D01*
X107693099Y-96998707D01*
X107698110Y-97002131D01*
X107950000Y-97053140D01*
X108712000Y-97053140D01*
X108947317Y-97008862D01*
X109163441Y-96869790D01*
X109308431Y-96657590D01*
X109359440Y-96405700D01*
X109359440Y-95262700D01*
X109315162Y-95027383D01*
X109176090Y-94811259D01*
X108963890Y-94666269D01*
X108712000Y-94615260D01*
X107950000Y-94615260D01*
X107796000Y-94644237D01*
X107796000Y-92823946D01*
X107903927Y-92716020D01*
X108719974Y-92716020D01*
X114231024Y-98227071D01*
X114071400Y-98195319D01*
X114071395Y-98195320D01*
X103025759Y-98195320D01*
X102866000Y-98035560D01*
X102866000Y-97713800D01*
X102798633Y-97375125D01*
X102716000Y-97251455D01*
X102716000Y-97029230D01*
X102743691Y-97040700D01*
X102965250Y-97040700D01*
X103124000Y-96881950D01*
X103124000Y-95961200D01*
X103104000Y-95961200D01*
X103104000Y-95707200D01*
X103124000Y-95707200D01*
X103124000Y-94786450D01*
X102965250Y-94627700D01*
X102743691Y-94627700D01*
X102627737Y-94675730D01*
X102613890Y-94666269D01*
X102362000Y-94615260D01*
X101600000Y-94615260D01*
X101486640Y-94636590D01*
X101486640Y-89762000D01*
X105137225Y-89762000D01*
X105111949Y-89799828D01*
M02*
