G04 #@! TF.FileFunction,Paste,Top*
%FSLAX46Y46*%
G04 Gerber Fmt 4.6, Leading zero omitted, Abs format (unit mm)*
G04 Created by KiCad (PCBNEW 4.0.7) date 06/01/18 13:29:30*
%MOMM*%
%LPD*%
G01*
G04 APERTURE LIST*
%ADD10C,0.100000*%
G04 APERTURE END LIST*
D10*
G36*
X112383360Y-114824701D02*
X112964795Y-116422179D01*
X111085410Y-117106219D01*
X110503975Y-115508741D01*
X112383360Y-114824701D01*
X112383360Y-114824701D01*
G37*
G36*
X108624590Y-116192781D02*
X109206025Y-117790259D01*
X107326640Y-118474299D01*
X106745205Y-116876821D01*
X108624590Y-116192781D01*
X108624590Y-116192781D01*
G37*
G36*
X88330205Y-116612679D02*
X88911640Y-115015201D01*
X90791025Y-115699241D01*
X90209590Y-117296719D01*
X88330205Y-116612679D01*
X88330205Y-116612679D01*
G37*
G36*
X92088975Y-117980759D02*
X92670410Y-116383281D01*
X94549795Y-117067321D01*
X93968360Y-118664799D01*
X92088975Y-117980759D01*
X92088975Y-117980759D01*
G37*
G36*
X80589638Y-110239720D02*
X81791720Y-109037638D01*
X83205934Y-110451852D01*
X82003852Y-111653934D01*
X80589638Y-110239720D01*
X80589638Y-110239720D01*
G37*
G36*
X83418066Y-113068148D02*
X84620148Y-111866066D01*
X86034362Y-113280280D01*
X84832280Y-114482362D01*
X83418066Y-113068148D01*
X83418066Y-113068148D01*
G37*
G36*
X77889969Y-100825177D02*
X79564142Y-100529975D01*
X79911439Y-102499591D01*
X78237266Y-102794793D01*
X77889969Y-100825177D01*
X77889969Y-100825177D01*
G37*
G36*
X78584561Y-104764409D02*
X80258734Y-104469207D01*
X80606031Y-106438823D01*
X78931858Y-106734025D01*
X78584561Y-104764409D01*
X78584561Y-104764409D01*
G37*
G36*
X81535878Y-92480924D02*
X83008122Y-93330924D01*
X82008122Y-95062974D01*
X80535878Y-94212974D01*
X81535878Y-92480924D01*
X81535878Y-92480924D01*
G37*
G36*
X79535878Y-95945026D02*
X81008122Y-96795026D01*
X80008122Y-98527076D01*
X78535878Y-97677076D01*
X79535878Y-95945026D01*
X79535878Y-95945026D01*
G37*
G36*
X89549076Y-87171878D02*
X90399076Y-88644122D01*
X88667026Y-89644122D01*
X87817026Y-88171878D01*
X89549076Y-87171878D01*
X89549076Y-87171878D01*
G37*
G36*
X86084974Y-89171878D02*
X86934974Y-90644122D01*
X85202924Y-91644122D01*
X84352924Y-90171878D01*
X86084974Y-89171878D01*
X86084974Y-89171878D01*
G37*
G36*
X107665851Y-87894506D02*
X108384302Y-86353783D01*
X110196917Y-87199020D01*
X109478466Y-88739743D01*
X107665851Y-87894506D01*
X107665851Y-87894506D01*
G37*
G36*
X111291083Y-89584980D02*
X112009534Y-88044257D01*
X113822149Y-88889494D01*
X113103698Y-90430217D01*
X111291083Y-89584980D01*
X111291083Y-89584980D01*
G37*
G36*
X116525213Y-92942932D02*
X117950953Y-92017045D01*
X119040231Y-93694386D01*
X117614491Y-94620273D01*
X116525213Y-92942932D01*
X116525213Y-92942932D01*
G37*
G36*
X118703769Y-96297614D02*
X120129509Y-95371727D01*
X121218787Y-97049068D01*
X119793047Y-97974955D01*
X118703769Y-96297614D01*
X118703769Y-96297614D01*
G37*
G36*
X120479791Y-100542899D02*
X122163247Y-100779493D01*
X121884901Y-102760029D01*
X120201445Y-102523435D01*
X120479791Y-100542899D01*
X120479791Y-100542899D01*
G37*
G36*
X119923099Y-104503971D02*
X121606555Y-104740565D01*
X121328209Y-106721101D01*
X119644753Y-106484507D01*
X119923099Y-104503971D01*
X119923099Y-104503971D01*
G37*
G36*
X118360280Y-109037638D02*
X119562362Y-110239720D01*
X118148148Y-111653934D01*
X116946066Y-110451852D01*
X118360280Y-109037638D01*
X118360280Y-109037638D01*
G37*
G36*
X115531852Y-111866066D02*
X116733934Y-113068148D01*
X115319720Y-114482362D01*
X114117638Y-113280280D01*
X115531852Y-111866066D01*
X115531852Y-111866066D01*
G37*
M02*
