G04 #@! TF.FileFunction,Copper,L2,Bot,Signal*
%FSLAX46Y46*%
G04 Gerber Fmt 4.6, Leading zero omitted, Abs format (unit mm)*
G04 Created by KiCad (PCBNEW 4.0.7) date 06/18/18 14:13:47*
%MOMM*%
%LPD*%
G01*
G04 APERTURE LIST*
%ADD10C,0.100000*%
%ADD11R,0.762000X1.143000*%
%ADD12C,1.700000*%
%ADD13O,1.700000X1.700000*%
%ADD14R,2.000000X1.600000*%
%ADD15C,0.600000*%
%ADD16C,0.200000*%
%ADD17C,0.500000*%
%ADD18C,0.250000*%
%ADD19C,0.254000*%
G04 APERTURE END LIST*
D10*
D11*
X91745000Y-95250200D03*
X93015000Y-95250200D03*
X94285000Y-95250200D03*
X95555000Y-95250200D03*
X96825000Y-95250200D03*
X98095000Y-95250200D03*
X99365000Y-95250200D03*
X100635000Y-95250200D03*
X101905000Y-95250200D03*
X103175000Y-95250200D03*
X105715000Y-95250200D03*
X104445000Y-95250200D03*
X106985000Y-95250200D03*
X108255000Y-95250200D03*
X108255000Y-104775200D03*
X106985000Y-104775200D03*
X105715000Y-104775200D03*
X104445000Y-104775200D03*
X103175000Y-104775200D03*
X101905000Y-104775200D03*
X100635000Y-104775200D03*
X99365000Y-104775200D03*
X98095000Y-104775200D03*
X96825000Y-104775200D03*
X95555000Y-104775200D03*
X94285000Y-104775200D03*
X93015000Y-104775200D03*
X91745000Y-104775200D03*
D12*
X101270000Y-115730000D03*
D13*
X101270000Y-118270000D03*
X98730000Y-115730000D03*
X98730000Y-118270000D03*
D10*
G36*
X118360280Y-109037638D02*
X119562362Y-110239720D01*
X118148148Y-111653934D01*
X116946066Y-110451852D01*
X118360280Y-109037638D01*
X118360280Y-109037638D01*
G37*
G36*
X115531852Y-111866066D02*
X116733934Y-113068148D01*
X115319720Y-114482362D01*
X114117638Y-113280280D01*
X115531852Y-111866066D01*
X115531852Y-111866066D01*
G37*
G36*
X112383360Y-114824701D02*
X112964795Y-116422179D01*
X111085410Y-117106219D01*
X110503975Y-115508741D01*
X112383360Y-114824701D01*
X112383360Y-114824701D01*
G37*
G36*
X108624590Y-116192781D02*
X109206025Y-117790259D01*
X107326640Y-118474299D01*
X106745205Y-116876821D01*
X108624590Y-116192781D01*
X108624590Y-116192781D01*
G37*
G36*
X120352791Y-101177899D02*
X122036247Y-101414493D01*
X121757901Y-103395029D01*
X120074445Y-103158435D01*
X120352791Y-101177899D01*
X120352791Y-101177899D01*
G37*
G36*
X119796099Y-105138971D02*
X121479555Y-105375565D01*
X121201209Y-107356101D01*
X119517753Y-107119507D01*
X119796099Y-105138971D01*
X119796099Y-105138971D01*
G37*
G36*
X117094080Y-93762208D02*
X118595091Y-92964107D01*
X119534034Y-94730002D01*
X118033023Y-95528103D01*
X117094080Y-93762208D01*
X117094080Y-93762208D01*
G37*
G36*
X118971966Y-97293998D02*
X120472977Y-96495897D01*
X121411920Y-98261792D01*
X119910909Y-99059893D01*
X118971966Y-97293998D01*
X118971966Y-97293998D01*
G37*
G36*
X110847004Y-89145550D02*
X111822084Y-87752991D01*
X113460388Y-88900144D01*
X112485308Y-90292703D01*
X110847004Y-89145550D01*
X110847004Y-89145550D01*
G37*
G36*
X114123612Y-91439856D02*
X115098692Y-90047297D01*
X116736996Y-91194450D01*
X115761916Y-92587009D01*
X114123612Y-91439856D01*
X114123612Y-91439856D01*
G37*
G36*
X89549076Y-87171878D02*
X90399076Y-88644122D01*
X88667026Y-89644122D01*
X87817026Y-88171878D01*
X89549076Y-87171878D01*
X89549076Y-87171878D01*
G37*
G36*
X86084974Y-89171878D02*
X86934974Y-90644122D01*
X85202924Y-91644122D01*
X84352924Y-90171878D01*
X86084974Y-89171878D01*
X86084974Y-89171878D01*
G37*
G36*
X81535878Y-92480924D02*
X83008122Y-93330924D01*
X82008122Y-95062974D01*
X80535878Y-94212974D01*
X81535878Y-92480924D01*
X81535878Y-92480924D01*
G37*
G36*
X79535878Y-95945026D02*
X81008122Y-96795026D01*
X80008122Y-98527076D01*
X78535878Y-97677076D01*
X79535878Y-95945026D01*
X79535878Y-95945026D01*
G37*
G36*
X77889969Y-100825177D02*
X79564142Y-100529975D01*
X79911439Y-102499591D01*
X78237266Y-102794793D01*
X77889969Y-100825177D01*
X77889969Y-100825177D01*
G37*
G36*
X78584561Y-104764409D02*
X80258734Y-104469207D01*
X80606031Y-106438823D01*
X78931858Y-106734025D01*
X78584561Y-104764409D01*
X78584561Y-104764409D01*
G37*
G36*
X80589638Y-110239720D02*
X81791720Y-109037638D01*
X83205934Y-110451852D01*
X82003852Y-111653934D01*
X80589638Y-110239720D01*
X80589638Y-110239720D01*
G37*
G36*
X83418066Y-113068148D02*
X84620148Y-111866066D01*
X86034362Y-113280280D01*
X84832280Y-114482362D01*
X83418066Y-113068148D01*
X83418066Y-113068148D01*
G37*
G36*
X88330205Y-116612679D02*
X88911640Y-115015201D01*
X90791025Y-115699241D01*
X90209590Y-117296719D01*
X88330205Y-116612679D01*
X88330205Y-116612679D01*
G37*
G36*
X92088975Y-117980759D02*
X92670410Y-116383281D01*
X94549795Y-117067321D01*
X93968360Y-118664799D01*
X92088975Y-117980759D01*
X92088975Y-117980759D01*
G37*
D14*
X101745800Y-111252000D03*
X97745800Y-111252000D03*
D15*
X94996000Y-109728000D03*
X104140000Y-109728000D03*
X94996000Y-112268000D03*
X104140000Y-112268000D03*
X91389200Y-116878100D03*
X83174840Y-111749840D03*
X79364840Y-103444040D03*
X80736440Y-95290640D03*
X87401400Y-89347040D03*
X113665000Y-90170000D03*
X118999000Y-96012000D03*
X120777000Y-104267000D03*
X116954300Y-111709200D03*
X110032800Y-116573300D03*
D16*
X101905000Y-95250200D02*
X101905000Y-97841000D01*
X101905000Y-97841000D02*
X101981000Y-97917000D01*
D17*
X101745800Y-111252000D02*
X101745800Y-109823500D01*
X104521000Y-107048300D02*
X104521000Y-104851200D01*
X101745800Y-109823500D02*
X104521000Y-107048300D01*
X101981000Y-97713800D02*
X101981000Y-97917000D01*
X101981000Y-97917000D02*
X101981000Y-98402140D01*
X111099600Y-111252000D02*
X101745800Y-111252000D01*
X115895120Y-106456480D02*
X111099600Y-111252000D01*
X115895120Y-100904040D02*
X115895120Y-106456480D01*
X114071400Y-99080320D02*
X115895120Y-100904040D01*
X102659180Y-99080320D02*
X114071400Y-99080320D01*
X101981000Y-98402140D02*
X102659180Y-99080320D01*
X98567240Y-115813840D02*
X98567240Y-114792760D01*
X98567240Y-114792760D02*
X99974400Y-113385600D01*
X99974400Y-113385600D02*
X101079300Y-113385600D01*
X101079300Y-113385600D02*
X101745800Y-112719100D01*
X101745800Y-112719100D02*
X101745800Y-111252000D01*
D16*
X101981000Y-97713800D02*
X101983540Y-97716340D01*
X105715000Y-104775200D02*
X106985000Y-104775200D01*
X106985000Y-104775200D02*
X108255000Y-104775200D01*
D18*
X103251000Y-95326200D02*
X103251000Y-97663000D01*
X103251000Y-97663000D02*
X103632000Y-98044000D01*
D16*
X105715000Y-104775200D02*
X105715000Y-108153000D01*
X96520000Y-111252000D02*
X97745800Y-111252000D01*
X94996000Y-109728000D02*
X96520000Y-111252000D01*
X105715000Y-108153000D02*
X104140000Y-109728000D01*
D18*
X96012000Y-111252000D02*
X97745800Y-111252000D01*
X94996000Y-112268000D02*
X96012000Y-111252000D01*
X111209756Y-112268000D02*
X104140000Y-112268000D01*
X116470122Y-107007634D02*
X111209756Y-112268000D01*
X116470122Y-100214122D02*
X116470122Y-107007634D01*
X114300000Y-98044000D02*
X116470122Y-100214122D01*
D16*
X98567240Y-118353840D02*
X98237040Y-118353840D01*
X98237040Y-118353840D02*
X96545400Y-116662200D01*
X97786440Y-113135160D02*
X97786440Y-111170720D01*
X96545400Y-114376200D02*
X97786440Y-113135160D01*
X96545400Y-116662200D02*
X96545400Y-114376200D01*
X98567240Y-118353840D02*
X98432620Y-118353840D01*
D18*
X103632000Y-98044000D02*
X114300000Y-98044000D01*
D16*
X93319385Y-117524040D02*
X92035140Y-117524040D01*
X92035140Y-117524040D02*
X91389200Y-116878100D01*
D18*
X84726214Y-113174214D02*
X84599214Y-113174214D01*
X84599214Y-113174214D02*
X83174840Y-111749840D01*
X79595296Y-105601616D02*
X79595296Y-103674496D01*
X79595296Y-103674496D02*
X79364840Y-103444040D01*
X79772000Y-97236051D02*
X79772000Y-96255080D01*
X79772000Y-96255080D02*
X80736440Y-95290640D01*
X85643949Y-90408000D02*
X86340440Y-90408000D01*
X86340440Y-90408000D02*
X87401400Y-89347040D01*
D16*
X115430304Y-91317153D02*
X114812153Y-91317153D01*
X114812153Y-91317153D02*
X113665000Y-90170000D01*
X118999000Y-96012000D02*
X120191943Y-97204943D01*
X120191943Y-97204943D02*
X120191943Y-97777895D01*
X120498654Y-106247536D02*
X120498654Y-104545346D01*
X120498654Y-104545346D02*
X120777000Y-104267000D01*
D18*
X115425786Y-113174214D02*
X115489286Y-113174214D01*
X115489286Y-113174214D02*
X116954300Y-111709200D01*
X115425786Y-113174214D02*
X115501986Y-113174214D01*
X109272560Y-117333540D02*
X110032800Y-116573300D01*
X107975615Y-117333540D02*
X109272560Y-117333540D01*
D16*
X91841320Y-95323660D02*
X91841320Y-91257120D01*
X91841320Y-91257120D02*
X91313000Y-90728800D01*
X91313000Y-90728800D02*
X90876120Y-90728800D01*
X90876120Y-90728800D02*
X87955120Y-93649800D01*
X87955120Y-93649800D02*
X85486240Y-93649800D01*
X85486240Y-93649800D02*
X83215480Y-95920560D01*
X83215480Y-95920560D02*
X83215480Y-98567240D01*
X83215480Y-98567240D02*
X81666080Y-100116640D01*
X81666080Y-100116640D02*
X81666080Y-106385360D01*
X81666080Y-106385360D02*
X82326480Y-107045760D01*
X82326480Y-107045760D02*
X82326480Y-108422440D01*
X82326480Y-108422440D02*
X86680040Y-112776000D01*
X86680040Y-112776000D02*
X86680040Y-113275385D01*
X86680040Y-113275385D02*
X89560615Y-116155960D01*
X93131640Y-95300800D02*
X93131640Y-90073480D01*
X93131640Y-90073480D02*
X92410280Y-89352120D01*
X92410280Y-89352120D02*
X91658440Y-89352120D01*
X91658440Y-89352120D02*
X87797640Y-93212920D01*
X87797640Y-93212920D02*
X85338920Y-93212920D01*
X85338920Y-93212920D02*
X82788760Y-95763080D01*
X82788760Y-95763080D02*
X82788760Y-98343720D01*
X82788760Y-98343720D02*
X81193640Y-99938840D01*
X81193640Y-99938840D02*
X81193640Y-106527600D01*
X81193640Y-106527600D02*
X81897786Y-107231746D01*
X81897786Y-107231746D02*
X81897786Y-110345786D01*
D18*
X82023654Y-110345786D02*
X81897786Y-110345786D01*
D16*
X94401640Y-95260160D02*
X94401640Y-89296240D01*
X94401640Y-89296240D02*
X94035880Y-88930480D01*
X94035880Y-88930480D02*
X91511120Y-88930480D01*
X91511120Y-88930480D02*
X87640160Y-92801440D01*
X87640160Y-92801440D02*
X85095080Y-92801440D01*
X85095080Y-92801440D02*
X82341720Y-95554800D01*
X82341720Y-95554800D02*
X82341720Y-98221368D01*
X82341720Y-98221368D02*
X78900704Y-101662384D01*
X95631000Y-95321120D02*
X95631000Y-89794080D01*
X95631000Y-89794080D02*
X94269560Y-88432640D01*
X94269560Y-88432640D02*
X91363800Y-88432640D01*
X91363800Y-88432640D02*
X87452200Y-92344240D01*
X87452200Y-92344240D02*
X83199709Y-92344240D01*
X83199709Y-92344240D02*
X81772000Y-93771949D01*
X96840040Y-95239840D02*
X96840040Y-90246200D01*
X96840040Y-90246200D02*
X94609920Y-88016080D01*
X94609920Y-88016080D02*
X89108051Y-88016080D01*
D18*
X89108051Y-88574651D02*
X89108051Y-88016080D01*
D16*
X98150680Y-95239840D02*
X98150680Y-90444320D01*
X111133543Y-90043000D02*
X112153696Y-89022847D01*
X110744000Y-90043000D02*
X111133543Y-90043000D01*
X108712000Y-88011000D02*
X110744000Y-90043000D01*
X100584000Y-88011000D02*
X108712000Y-88011000D01*
X98150680Y-90444320D02*
X100584000Y-88011000D01*
D18*
X112556616Y-89237237D02*
X111563837Y-89237237D01*
D16*
X99420680Y-95300800D02*
X99420680Y-89809320D01*
X116217105Y-94246105D02*
X118314057Y-94246105D01*
X114046000Y-92075000D02*
X116217105Y-94246105D01*
X112141000Y-92075000D02*
X114046000Y-92075000D01*
X108585000Y-88519000D02*
X112141000Y-92075000D01*
X100711000Y-88519000D02*
X108585000Y-88519000D01*
X99420680Y-89809320D02*
X100711000Y-88519000D01*
X100751640Y-95422720D02*
X100751640Y-89367360D01*
X119685464Y-102286464D02*
X121055346Y-102286464D01*
X118999000Y-101600000D02*
X119685464Y-102286464D01*
X118999000Y-99441000D02*
X118999000Y-101600000D01*
X116840000Y-97282000D02*
X118999000Y-99441000D01*
X116840000Y-95504000D02*
X116840000Y-97282000D01*
X113919000Y-92583000D02*
X116840000Y-95504000D01*
X112014000Y-92583000D02*
X113919000Y-92583000D01*
X108458000Y-89027000D02*
X112014000Y-92583000D01*
X101092000Y-89027000D02*
X108458000Y-89027000D01*
X100751640Y-89367360D02*
X101092000Y-89027000D01*
X100711000Y-104851200D02*
X100711000Y-99949000D01*
X118254214Y-112593686D02*
X118254214Y-110345786D01*
X111381540Y-119466360D02*
X118254214Y-112593686D01*
X103906320Y-119466360D02*
X111381540Y-119466360D01*
X103357680Y-120015000D02*
X103906320Y-119466360D01*
X96758760Y-120015000D02*
X103357680Y-120015000D01*
X95262700Y-118518940D02*
X96758760Y-120015000D01*
X95262700Y-116103400D02*
X95262700Y-118518940D01*
X94292420Y-115133120D02*
X95262700Y-116103400D01*
X91053920Y-115133120D02*
X94292420Y-115133120D01*
X83972400Y-108051600D02*
X91053920Y-115133120D01*
X83972400Y-108051600D02*
X83972400Y-108051600D01*
X82069940Y-106149140D02*
X83972400Y-108051600D01*
X82069940Y-100350320D02*
X82069940Y-106149140D01*
X83969860Y-98450400D02*
X82069940Y-100350320D01*
X99212400Y-98450400D02*
X83969860Y-98450400D01*
X100711000Y-99949000D02*
X99212400Y-98450400D01*
X105791000Y-95326200D02*
X105791000Y-90081100D01*
X104637840Y-118353840D02*
X101107240Y-118353840D01*
X108244640Y-114747040D02*
X104637840Y-118353840D01*
X111147860Y-114747040D02*
X108244640Y-114747040D01*
X118577360Y-107317540D02*
X111147860Y-114747040D01*
X118577360Y-99773740D02*
X118577360Y-107317540D01*
X108300520Y-89496900D02*
X118577360Y-99773740D01*
X106375200Y-89496900D02*
X108300520Y-89496900D01*
X105791000Y-90081100D02*
X106375200Y-89496900D01*
X107061000Y-95326200D02*
X107061000Y-92519500D01*
X104968040Y-115813840D02*
X101107240Y-115813840D01*
X107736640Y-113045240D02*
X104968040Y-115813840D01*
X111033560Y-113045240D02*
X107736640Y-113045240D01*
X117180360Y-106898440D02*
X111033560Y-113045240D01*
X117180360Y-100136960D02*
X117180360Y-106898440D01*
X109024420Y-91981020D02*
X117180360Y-100136960D01*
X107599480Y-91981020D02*
X109024420Y-91981020D01*
X107061000Y-92519500D02*
X107599480Y-91981020D01*
X99441000Y-104851200D02*
X99441000Y-100363020D01*
X111937585Y-118323575D02*
X111937585Y-115965460D01*
X111216440Y-119044720D02*
X111937585Y-118323575D01*
X103710740Y-119044720D02*
X111216440Y-119044720D01*
X103216662Y-119538798D02*
X103710740Y-119044720D01*
X96895920Y-119538798D02*
X103216662Y-119538798D01*
X95666560Y-118309438D02*
X96895920Y-119538798D01*
X95666560Y-115895120D02*
X95666560Y-118309438D01*
X94477840Y-114706400D02*
X95666560Y-115895120D01*
X91257120Y-114706400D02*
X94477840Y-114706400D01*
X85105240Y-108554520D02*
X91257120Y-114706400D01*
X85105240Y-108549440D02*
X85105240Y-108554520D01*
X82499200Y-105943400D02*
X85105240Y-108549440D01*
X82499200Y-100528120D02*
X82499200Y-105943400D01*
X84124800Y-98902520D02*
X82499200Y-100528120D01*
X97980500Y-98902520D02*
X84124800Y-98902520D01*
X99441000Y-100363020D02*
X97980500Y-98902520D01*
D19*
G36*
X98706000Y-100667467D02*
X98706000Y-103602836D01*
X98476000Y-103556260D01*
X97714000Y-103556260D01*
X97478683Y-103600538D01*
X97462901Y-103610693D01*
X97457890Y-103607269D01*
X97206000Y-103556260D01*
X96444000Y-103556260D01*
X96208683Y-103600538D01*
X96192901Y-103610693D01*
X96187890Y-103607269D01*
X95936000Y-103556260D01*
X95174000Y-103556260D01*
X94938683Y-103600538D01*
X94922901Y-103610693D01*
X94917890Y-103607269D01*
X94666000Y-103556260D01*
X93904000Y-103556260D01*
X93668683Y-103600538D01*
X93652901Y-103610693D01*
X93647890Y-103607269D01*
X93396000Y-103556260D01*
X92634000Y-103556260D01*
X92398683Y-103600538D01*
X92382901Y-103610693D01*
X92377890Y-103607269D01*
X92126000Y-103556260D01*
X91364000Y-103556260D01*
X91128683Y-103600538D01*
X90912559Y-103739610D01*
X90767569Y-103951810D01*
X90716560Y-104203700D01*
X90716560Y-105346700D01*
X90760838Y-105582017D01*
X90899910Y-105798141D01*
X91112110Y-105943131D01*
X91364000Y-105994140D01*
X92126000Y-105994140D01*
X92361317Y-105949862D01*
X92377099Y-105939707D01*
X92382110Y-105943131D01*
X92634000Y-105994140D01*
X93396000Y-105994140D01*
X93631317Y-105949862D01*
X93647099Y-105939707D01*
X93652110Y-105943131D01*
X93904000Y-105994140D01*
X94666000Y-105994140D01*
X94901317Y-105949862D01*
X94917099Y-105939707D01*
X94922110Y-105943131D01*
X95174000Y-105994140D01*
X95936000Y-105994140D01*
X96171317Y-105949862D01*
X96187099Y-105939707D01*
X96192110Y-105943131D01*
X96444000Y-105994140D01*
X97206000Y-105994140D01*
X97441317Y-105949862D01*
X97457099Y-105939707D01*
X97462110Y-105943131D01*
X97714000Y-105994140D01*
X98476000Y-105994140D01*
X98711317Y-105949862D01*
X98727099Y-105939707D01*
X98732110Y-105943131D01*
X98984000Y-105994140D01*
X99746000Y-105994140D01*
X99981317Y-105949862D01*
X99997099Y-105939707D01*
X100002110Y-105943131D01*
X100254000Y-105994140D01*
X101016000Y-105994140D01*
X101251317Y-105949862D01*
X101267099Y-105939707D01*
X101272110Y-105943131D01*
X101524000Y-105994140D01*
X102286000Y-105994140D01*
X102521317Y-105949862D01*
X102537099Y-105939707D01*
X102542110Y-105943131D01*
X102794000Y-105994140D01*
X103556000Y-105994140D01*
X103636000Y-105979087D01*
X103636000Y-106681721D01*
X101120010Y-109197710D01*
X100928167Y-109484825D01*
X100916990Y-109541016D01*
X100864566Y-109804560D01*
X100745800Y-109804560D01*
X100510483Y-109848838D01*
X100294359Y-109987910D01*
X100149369Y-110200110D01*
X100098360Y-110452000D01*
X100098360Y-112052000D01*
X100142638Y-112287317D01*
X100279882Y-112500600D01*
X99974405Y-112500600D01*
X99974400Y-112500599D01*
X99691916Y-112556790D01*
X99635725Y-112567967D01*
X99348610Y-112759810D01*
X99348608Y-112759813D01*
X97941450Y-114166970D01*
X97749607Y-114454085D01*
X97749607Y-114454086D01*
X97712930Y-114638467D01*
X97650853Y-114679946D01*
X97328946Y-115161715D01*
X97215907Y-115730000D01*
X97328946Y-116298285D01*
X97650853Y-116780054D01*
X97991553Y-117007702D01*
X97848642Y-117074817D01*
X97458355Y-117503076D01*
X97288524Y-117913110D01*
X97409845Y-118143000D01*
X98603000Y-118143000D01*
X98603000Y-118123000D01*
X98857000Y-118123000D01*
X98857000Y-118143000D01*
X98877000Y-118143000D01*
X98877000Y-118397000D01*
X98857000Y-118397000D01*
X98857000Y-118417000D01*
X98603000Y-118417000D01*
X98603000Y-118397000D01*
X97409845Y-118397000D01*
X97288524Y-118626890D01*
X97361797Y-118803798D01*
X97200367Y-118803798D01*
X96401560Y-118004992D01*
X96401560Y-115895120D01*
X96345611Y-115613848D01*
X96325451Y-115583676D01*
X96186284Y-115375397D01*
X94997563Y-114186677D01*
X94759112Y-114027349D01*
X94721251Y-114019818D01*
X94477840Y-113971400D01*
X91561567Y-113971400D01*
X89127917Y-111537750D01*
X96110800Y-111537750D01*
X96110800Y-112178310D01*
X96207473Y-112411699D01*
X96386102Y-112590327D01*
X96619491Y-112687000D01*
X97460050Y-112687000D01*
X97618800Y-112528250D01*
X97618800Y-111379000D01*
X97872800Y-111379000D01*
X97872800Y-112528250D01*
X98031550Y-112687000D01*
X98872109Y-112687000D01*
X99105498Y-112590327D01*
X99284127Y-112411699D01*
X99380800Y-112178310D01*
X99380800Y-111537750D01*
X99222050Y-111379000D01*
X97872800Y-111379000D01*
X97618800Y-111379000D01*
X96269550Y-111379000D01*
X96110800Y-111537750D01*
X89127917Y-111537750D01*
X87915857Y-110325690D01*
X96110800Y-110325690D01*
X96110800Y-110966250D01*
X96269550Y-111125000D01*
X97618800Y-111125000D01*
X97618800Y-109975750D01*
X97872800Y-109975750D01*
X97872800Y-111125000D01*
X99222050Y-111125000D01*
X99380800Y-110966250D01*
X99380800Y-110325690D01*
X99284127Y-110092301D01*
X99105498Y-109913673D01*
X98872109Y-109817000D01*
X98031550Y-109817000D01*
X97872800Y-109975750D01*
X97618800Y-109975750D01*
X97460050Y-109817000D01*
X96619491Y-109817000D01*
X96386102Y-109913673D01*
X96207473Y-110092301D01*
X96110800Y-110325690D01*
X87915857Y-110325690D01*
X85635194Y-108045028D01*
X85624963Y-108029716D01*
X83234200Y-105638954D01*
X83234200Y-100832566D01*
X84429247Y-99637520D01*
X97676054Y-99637520D01*
X98706000Y-100667467D01*
X98706000Y-100667467D01*
G37*
X98706000Y-100667467D02*
X98706000Y-103602836D01*
X98476000Y-103556260D01*
X97714000Y-103556260D01*
X97478683Y-103600538D01*
X97462901Y-103610693D01*
X97457890Y-103607269D01*
X97206000Y-103556260D01*
X96444000Y-103556260D01*
X96208683Y-103600538D01*
X96192901Y-103610693D01*
X96187890Y-103607269D01*
X95936000Y-103556260D01*
X95174000Y-103556260D01*
X94938683Y-103600538D01*
X94922901Y-103610693D01*
X94917890Y-103607269D01*
X94666000Y-103556260D01*
X93904000Y-103556260D01*
X93668683Y-103600538D01*
X93652901Y-103610693D01*
X93647890Y-103607269D01*
X93396000Y-103556260D01*
X92634000Y-103556260D01*
X92398683Y-103600538D01*
X92382901Y-103610693D01*
X92377890Y-103607269D01*
X92126000Y-103556260D01*
X91364000Y-103556260D01*
X91128683Y-103600538D01*
X90912559Y-103739610D01*
X90767569Y-103951810D01*
X90716560Y-104203700D01*
X90716560Y-105346700D01*
X90760838Y-105582017D01*
X90899910Y-105798141D01*
X91112110Y-105943131D01*
X91364000Y-105994140D01*
X92126000Y-105994140D01*
X92361317Y-105949862D01*
X92377099Y-105939707D01*
X92382110Y-105943131D01*
X92634000Y-105994140D01*
X93396000Y-105994140D01*
X93631317Y-105949862D01*
X93647099Y-105939707D01*
X93652110Y-105943131D01*
X93904000Y-105994140D01*
X94666000Y-105994140D01*
X94901317Y-105949862D01*
X94917099Y-105939707D01*
X94922110Y-105943131D01*
X95174000Y-105994140D01*
X95936000Y-105994140D01*
X96171317Y-105949862D01*
X96187099Y-105939707D01*
X96192110Y-105943131D01*
X96444000Y-105994140D01*
X97206000Y-105994140D01*
X97441317Y-105949862D01*
X97457099Y-105939707D01*
X97462110Y-105943131D01*
X97714000Y-105994140D01*
X98476000Y-105994140D01*
X98711317Y-105949862D01*
X98727099Y-105939707D01*
X98732110Y-105943131D01*
X98984000Y-105994140D01*
X99746000Y-105994140D01*
X99981317Y-105949862D01*
X99997099Y-105939707D01*
X100002110Y-105943131D01*
X100254000Y-105994140D01*
X101016000Y-105994140D01*
X101251317Y-105949862D01*
X101267099Y-105939707D01*
X101272110Y-105943131D01*
X101524000Y-105994140D01*
X102286000Y-105994140D01*
X102521317Y-105949862D01*
X102537099Y-105939707D01*
X102542110Y-105943131D01*
X102794000Y-105994140D01*
X103556000Y-105994140D01*
X103636000Y-105979087D01*
X103636000Y-106681721D01*
X101120010Y-109197710D01*
X100928167Y-109484825D01*
X100916990Y-109541016D01*
X100864566Y-109804560D01*
X100745800Y-109804560D01*
X100510483Y-109848838D01*
X100294359Y-109987910D01*
X100149369Y-110200110D01*
X100098360Y-110452000D01*
X100098360Y-112052000D01*
X100142638Y-112287317D01*
X100279882Y-112500600D01*
X99974405Y-112500600D01*
X99974400Y-112500599D01*
X99691916Y-112556790D01*
X99635725Y-112567967D01*
X99348610Y-112759810D01*
X99348608Y-112759813D01*
X97941450Y-114166970D01*
X97749607Y-114454085D01*
X97749607Y-114454086D01*
X97712930Y-114638467D01*
X97650853Y-114679946D01*
X97328946Y-115161715D01*
X97215907Y-115730000D01*
X97328946Y-116298285D01*
X97650853Y-116780054D01*
X97991553Y-117007702D01*
X97848642Y-117074817D01*
X97458355Y-117503076D01*
X97288524Y-117913110D01*
X97409845Y-118143000D01*
X98603000Y-118143000D01*
X98603000Y-118123000D01*
X98857000Y-118123000D01*
X98857000Y-118143000D01*
X98877000Y-118143000D01*
X98877000Y-118397000D01*
X98857000Y-118397000D01*
X98857000Y-118417000D01*
X98603000Y-118417000D01*
X98603000Y-118397000D01*
X97409845Y-118397000D01*
X97288524Y-118626890D01*
X97361797Y-118803798D01*
X97200367Y-118803798D01*
X96401560Y-118004992D01*
X96401560Y-115895120D01*
X96345611Y-115613848D01*
X96325451Y-115583676D01*
X96186284Y-115375397D01*
X94997563Y-114186677D01*
X94759112Y-114027349D01*
X94721251Y-114019818D01*
X94477840Y-113971400D01*
X91561567Y-113971400D01*
X89127917Y-111537750D01*
X96110800Y-111537750D01*
X96110800Y-112178310D01*
X96207473Y-112411699D01*
X96386102Y-112590327D01*
X96619491Y-112687000D01*
X97460050Y-112687000D01*
X97618800Y-112528250D01*
X97618800Y-111379000D01*
X97872800Y-111379000D01*
X97872800Y-112528250D01*
X98031550Y-112687000D01*
X98872109Y-112687000D01*
X99105498Y-112590327D01*
X99284127Y-112411699D01*
X99380800Y-112178310D01*
X99380800Y-111537750D01*
X99222050Y-111379000D01*
X97872800Y-111379000D01*
X97618800Y-111379000D01*
X96269550Y-111379000D01*
X96110800Y-111537750D01*
X89127917Y-111537750D01*
X87915857Y-110325690D01*
X96110800Y-110325690D01*
X96110800Y-110966250D01*
X96269550Y-111125000D01*
X97618800Y-111125000D01*
X97618800Y-109975750D01*
X97872800Y-109975750D01*
X97872800Y-111125000D01*
X99222050Y-111125000D01*
X99380800Y-110966250D01*
X99380800Y-110325690D01*
X99284127Y-110092301D01*
X99105498Y-109913673D01*
X98872109Y-109817000D01*
X98031550Y-109817000D01*
X97872800Y-109975750D01*
X97618800Y-109975750D01*
X97460050Y-109817000D01*
X96619491Y-109817000D01*
X96386102Y-109913673D01*
X96207473Y-110092301D01*
X96110800Y-110325690D01*
X87915857Y-110325690D01*
X85635194Y-108045028D01*
X85624963Y-108029716D01*
X83234200Y-105638954D01*
X83234200Y-100832566D01*
X84429247Y-99637520D01*
X97676054Y-99637520D01*
X98706000Y-100667467D01*
G36*
X110729114Y-112310240D02*
X107736640Y-112310240D01*
X107455368Y-112366189D01*
X107216917Y-112525516D01*
X104663594Y-115078840D01*
X102607719Y-115078840D01*
X102529656Y-114889914D01*
X102112283Y-114471812D01*
X101566681Y-114245258D01*
X101208276Y-114244946D01*
X101361784Y-114214410D01*
X101417975Y-114203233D01*
X101705090Y-114011390D01*
X101705091Y-114011389D01*
X102371587Y-113344892D01*
X102371590Y-113344890D01*
X102563433Y-113057775D01*
X102630800Y-112719100D01*
X102630800Y-112699440D01*
X102745800Y-112699440D01*
X102981117Y-112655162D01*
X103197241Y-112516090D01*
X103342231Y-112303890D01*
X103376027Y-112137000D01*
X110902354Y-112137000D01*
X110729114Y-112310240D01*
X110729114Y-112310240D01*
G37*
X110729114Y-112310240D02*
X107736640Y-112310240D01*
X107455368Y-112366189D01*
X107216917Y-112525516D01*
X104663594Y-115078840D01*
X102607719Y-115078840D01*
X102529656Y-114889914D01*
X102112283Y-114471812D01*
X101566681Y-114245258D01*
X101208276Y-114244946D01*
X101361784Y-114214410D01*
X101417975Y-114203233D01*
X101705090Y-114011390D01*
X101705091Y-114011389D01*
X102371587Y-113344892D01*
X102371590Y-113344890D01*
X102563433Y-113057775D01*
X102630800Y-112719100D01*
X102630800Y-112699440D01*
X102745800Y-112699440D01*
X102981117Y-112655162D01*
X103197241Y-112516090D01*
X103342231Y-112303890D01*
X103376027Y-112137000D01*
X110902354Y-112137000D01*
X110729114Y-112310240D01*
G36*
X91106320Y-91561567D02*
X91106320Y-94089928D01*
X90912559Y-94214610D01*
X90767569Y-94426810D01*
X90716560Y-94678700D01*
X90716560Y-95821700D01*
X90760838Y-96057017D01*
X90899910Y-96273141D01*
X91112110Y-96418131D01*
X91364000Y-96469140D01*
X92126000Y-96469140D01*
X92361317Y-96424862D01*
X92377099Y-96414707D01*
X92382110Y-96418131D01*
X92634000Y-96469140D01*
X93396000Y-96469140D01*
X93631317Y-96424862D01*
X93647099Y-96414707D01*
X93652110Y-96418131D01*
X93904000Y-96469140D01*
X94666000Y-96469140D01*
X94901317Y-96424862D01*
X94917099Y-96414707D01*
X94922110Y-96418131D01*
X95174000Y-96469140D01*
X95936000Y-96469140D01*
X96171317Y-96424862D01*
X96187099Y-96414707D01*
X96192110Y-96418131D01*
X96444000Y-96469140D01*
X97206000Y-96469140D01*
X97441317Y-96424862D01*
X97457099Y-96414707D01*
X97462110Y-96418131D01*
X97714000Y-96469140D01*
X98476000Y-96469140D01*
X98711317Y-96424862D01*
X98727099Y-96414707D01*
X98732110Y-96418131D01*
X98984000Y-96469140D01*
X99746000Y-96469140D01*
X99981317Y-96424862D01*
X99997099Y-96414707D01*
X100002110Y-96418131D01*
X100254000Y-96469140D01*
X101016000Y-96469140D01*
X101170000Y-96440163D01*
X101170000Y-97365198D01*
X101163367Y-97375125D01*
X101096000Y-97713800D01*
X101096000Y-98402135D01*
X101095999Y-98402140D01*
X101152041Y-98683878D01*
X101163367Y-98740815D01*
X101283947Y-98921277D01*
X101355210Y-99027930D01*
X102033388Y-99706107D01*
X102033390Y-99706110D01*
X102320505Y-99897953D01*
X102659180Y-99965320D01*
X113704820Y-99965320D01*
X115010120Y-101270619D01*
X115010120Y-106089901D01*
X110733020Y-110367000D01*
X103377246Y-110367000D01*
X103348962Y-110216683D01*
X103209890Y-110000559D01*
X102997690Y-109855569D01*
X102970764Y-109850116D01*
X105146787Y-107674092D01*
X105146790Y-107674090D01*
X105338633Y-107386975D01*
X105406000Y-107048300D01*
X105406000Y-105981700D01*
X105429250Y-105981700D01*
X105588000Y-105822950D01*
X105588000Y-104902200D01*
X105842000Y-104902200D01*
X105842000Y-105822950D01*
X106000750Y-105981700D01*
X106222309Y-105981700D01*
X106350000Y-105928809D01*
X106477691Y-105981700D01*
X106699250Y-105981700D01*
X106858000Y-105822950D01*
X106858000Y-104902200D01*
X107112000Y-104902200D01*
X107112000Y-105822950D01*
X107270750Y-105981700D01*
X107492309Y-105981700D01*
X107620000Y-105928809D01*
X107747691Y-105981700D01*
X107969250Y-105981700D01*
X108128000Y-105822950D01*
X108128000Y-104902200D01*
X108382000Y-104902200D01*
X108382000Y-105822950D01*
X108540750Y-105981700D01*
X108762309Y-105981700D01*
X108995698Y-105885027D01*
X109174327Y-105706399D01*
X109271000Y-105473010D01*
X109271000Y-105060950D01*
X109112250Y-104902200D01*
X108382000Y-104902200D01*
X108128000Y-104902200D01*
X107112000Y-104902200D01*
X106858000Y-104902200D01*
X105842000Y-104902200D01*
X105588000Y-104902200D01*
X105568000Y-104902200D01*
X105568000Y-104648200D01*
X105588000Y-104648200D01*
X105588000Y-103727450D01*
X105842000Y-103727450D01*
X105842000Y-104648200D01*
X106858000Y-104648200D01*
X106858000Y-103727450D01*
X107112000Y-103727450D01*
X107112000Y-104648200D01*
X108128000Y-104648200D01*
X108128000Y-103727450D01*
X108382000Y-103727450D01*
X108382000Y-104648200D01*
X109112250Y-104648200D01*
X109271000Y-104489450D01*
X109271000Y-104077390D01*
X109174327Y-103844001D01*
X108995698Y-103665373D01*
X108762309Y-103568700D01*
X108540750Y-103568700D01*
X108382000Y-103727450D01*
X108128000Y-103727450D01*
X107969250Y-103568700D01*
X107747691Y-103568700D01*
X107620000Y-103621591D01*
X107492309Y-103568700D01*
X107270750Y-103568700D01*
X107112000Y-103727450D01*
X106858000Y-103727450D01*
X106699250Y-103568700D01*
X106477691Y-103568700D01*
X106350000Y-103621591D01*
X106222309Y-103568700D01*
X106000750Y-103568700D01*
X105842000Y-103727450D01*
X105588000Y-103727450D01*
X105429250Y-103568700D01*
X105207691Y-103568700D01*
X105091737Y-103616730D01*
X105077890Y-103607269D01*
X104826000Y-103556260D01*
X104064000Y-103556260D01*
X103828683Y-103600538D01*
X103812901Y-103610693D01*
X103807890Y-103607269D01*
X103556000Y-103556260D01*
X102794000Y-103556260D01*
X102558683Y-103600538D01*
X102542901Y-103610693D01*
X102537890Y-103607269D01*
X102286000Y-103556260D01*
X101524000Y-103556260D01*
X101446000Y-103570937D01*
X101446000Y-99949000D01*
X101397333Y-99704337D01*
X101390051Y-99667727D01*
X101230723Y-99429276D01*
X99732123Y-97930677D01*
X99493672Y-97771349D01*
X99212400Y-97715400D01*
X83969860Y-97715400D01*
X83950480Y-97719255D01*
X83950480Y-96225006D01*
X85790687Y-94384800D01*
X87955120Y-94384800D01*
X88236392Y-94328851D01*
X88474843Y-94169523D01*
X91094560Y-91549807D01*
X91106320Y-91561567D01*
X91106320Y-91561567D01*
G37*
X91106320Y-91561567D02*
X91106320Y-94089928D01*
X90912559Y-94214610D01*
X90767569Y-94426810D01*
X90716560Y-94678700D01*
X90716560Y-95821700D01*
X90760838Y-96057017D01*
X90899910Y-96273141D01*
X91112110Y-96418131D01*
X91364000Y-96469140D01*
X92126000Y-96469140D01*
X92361317Y-96424862D01*
X92377099Y-96414707D01*
X92382110Y-96418131D01*
X92634000Y-96469140D01*
X93396000Y-96469140D01*
X93631317Y-96424862D01*
X93647099Y-96414707D01*
X93652110Y-96418131D01*
X93904000Y-96469140D01*
X94666000Y-96469140D01*
X94901317Y-96424862D01*
X94917099Y-96414707D01*
X94922110Y-96418131D01*
X95174000Y-96469140D01*
X95936000Y-96469140D01*
X96171317Y-96424862D01*
X96187099Y-96414707D01*
X96192110Y-96418131D01*
X96444000Y-96469140D01*
X97206000Y-96469140D01*
X97441317Y-96424862D01*
X97457099Y-96414707D01*
X97462110Y-96418131D01*
X97714000Y-96469140D01*
X98476000Y-96469140D01*
X98711317Y-96424862D01*
X98727099Y-96414707D01*
X98732110Y-96418131D01*
X98984000Y-96469140D01*
X99746000Y-96469140D01*
X99981317Y-96424862D01*
X99997099Y-96414707D01*
X100002110Y-96418131D01*
X100254000Y-96469140D01*
X101016000Y-96469140D01*
X101170000Y-96440163D01*
X101170000Y-97365198D01*
X101163367Y-97375125D01*
X101096000Y-97713800D01*
X101096000Y-98402135D01*
X101095999Y-98402140D01*
X101152041Y-98683878D01*
X101163367Y-98740815D01*
X101283947Y-98921277D01*
X101355210Y-99027930D01*
X102033388Y-99706107D01*
X102033390Y-99706110D01*
X102320505Y-99897953D01*
X102659180Y-99965320D01*
X113704820Y-99965320D01*
X115010120Y-101270619D01*
X115010120Y-106089901D01*
X110733020Y-110367000D01*
X103377246Y-110367000D01*
X103348962Y-110216683D01*
X103209890Y-110000559D01*
X102997690Y-109855569D01*
X102970764Y-109850116D01*
X105146787Y-107674092D01*
X105146790Y-107674090D01*
X105338633Y-107386975D01*
X105406000Y-107048300D01*
X105406000Y-105981700D01*
X105429250Y-105981700D01*
X105588000Y-105822950D01*
X105588000Y-104902200D01*
X105842000Y-104902200D01*
X105842000Y-105822950D01*
X106000750Y-105981700D01*
X106222309Y-105981700D01*
X106350000Y-105928809D01*
X106477691Y-105981700D01*
X106699250Y-105981700D01*
X106858000Y-105822950D01*
X106858000Y-104902200D01*
X107112000Y-104902200D01*
X107112000Y-105822950D01*
X107270750Y-105981700D01*
X107492309Y-105981700D01*
X107620000Y-105928809D01*
X107747691Y-105981700D01*
X107969250Y-105981700D01*
X108128000Y-105822950D01*
X108128000Y-104902200D01*
X108382000Y-104902200D01*
X108382000Y-105822950D01*
X108540750Y-105981700D01*
X108762309Y-105981700D01*
X108995698Y-105885027D01*
X109174327Y-105706399D01*
X109271000Y-105473010D01*
X109271000Y-105060950D01*
X109112250Y-104902200D01*
X108382000Y-104902200D01*
X108128000Y-104902200D01*
X107112000Y-104902200D01*
X106858000Y-104902200D01*
X105842000Y-104902200D01*
X105588000Y-104902200D01*
X105568000Y-104902200D01*
X105568000Y-104648200D01*
X105588000Y-104648200D01*
X105588000Y-103727450D01*
X105842000Y-103727450D01*
X105842000Y-104648200D01*
X106858000Y-104648200D01*
X106858000Y-103727450D01*
X107112000Y-103727450D01*
X107112000Y-104648200D01*
X108128000Y-104648200D01*
X108128000Y-103727450D01*
X108382000Y-103727450D01*
X108382000Y-104648200D01*
X109112250Y-104648200D01*
X109271000Y-104489450D01*
X109271000Y-104077390D01*
X109174327Y-103844001D01*
X108995698Y-103665373D01*
X108762309Y-103568700D01*
X108540750Y-103568700D01*
X108382000Y-103727450D01*
X108128000Y-103727450D01*
X107969250Y-103568700D01*
X107747691Y-103568700D01*
X107620000Y-103621591D01*
X107492309Y-103568700D01*
X107270750Y-103568700D01*
X107112000Y-103727450D01*
X106858000Y-103727450D01*
X106699250Y-103568700D01*
X106477691Y-103568700D01*
X106350000Y-103621591D01*
X106222309Y-103568700D01*
X106000750Y-103568700D01*
X105842000Y-103727450D01*
X105588000Y-103727450D01*
X105429250Y-103568700D01*
X105207691Y-103568700D01*
X105091737Y-103616730D01*
X105077890Y-103607269D01*
X104826000Y-103556260D01*
X104064000Y-103556260D01*
X103828683Y-103600538D01*
X103812901Y-103610693D01*
X103807890Y-103607269D01*
X103556000Y-103556260D01*
X102794000Y-103556260D01*
X102558683Y-103600538D01*
X102542901Y-103610693D01*
X102537890Y-103607269D01*
X102286000Y-103556260D01*
X101524000Y-103556260D01*
X101446000Y-103570937D01*
X101446000Y-99949000D01*
X101397333Y-99704337D01*
X101390051Y-99667727D01*
X101230723Y-99429276D01*
X99732123Y-97930677D01*
X99493672Y-97771349D01*
X99212400Y-97715400D01*
X83969860Y-97715400D01*
X83950480Y-97719255D01*
X83950480Y-96225006D01*
X85790687Y-94384800D01*
X87955120Y-94384800D01*
X88236392Y-94328851D01*
X88474843Y-94169523D01*
X91094560Y-91549807D01*
X91106320Y-91561567D01*
G36*
X105111949Y-89799828D02*
X105056000Y-90081100D01*
X105056000Y-94077836D01*
X104826000Y-94031260D01*
X104064000Y-94031260D01*
X103828683Y-94075538D01*
X103801461Y-94093055D01*
X103682309Y-94043700D01*
X103460750Y-94043700D01*
X103302000Y-94202450D01*
X103302000Y-95123200D01*
X103322000Y-95123200D01*
X103322000Y-95377200D01*
X103302000Y-95377200D01*
X103302000Y-96297950D01*
X103460750Y-96456700D01*
X103682309Y-96456700D01*
X103798263Y-96408670D01*
X103812110Y-96418131D01*
X104064000Y-96469140D01*
X104826000Y-96469140D01*
X105061317Y-96424862D01*
X105077099Y-96414707D01*
X105082110Y-96418131D01*
X105334000Y-96469140D01*
X106096000Y-96469140D01*
X106331317Y-96424862D01*
X106347099Y-96414707D01*
X106352110Y-96418131D01*
X106604000Y-96469140D01*
X107366000Y-96469140D01*
X107601317Y-96424862D01*
X107617099Y-96414707D01*
X107622110Y-96418131D01*
X107874000Y-96469140D01*
X108636000Y-96469140D01*
X108871317Y-96424862D01*
X109087441Y-96285790D01*
X109232431Y-96073590D01*
X109283440Y-95821700D01*
X109283440Y-94678700D01*
X109239162Y-94443383D01*
X109100090Y-94227259D01*
X108887890Y-94082269D01*
X108636000Y-94031260D01*
X107874000Y-94031260D01*
X107796000Y-94045937D01*
X107796000Y-92823946D01*
X107903927Y-92716020D01*
X108719974Y-92716020D01*
X114231024Y-98227071D01*
X114071400Y-98195319D01*
X114071395Y-98195320D01*
X103025759Y-98195320D01*
X102866000Y-98035560D01*
X102866000Y-97713800D01*
X102798633Y-97375125D01*
X102640000Y-97137713D01*
X102640000Y-96445230D01*
X102667691Y-96456700D01*
X102889250Y-96456700D01*
X103048000Y-96297950D01*
X103048000Y-95377200D01*
X103028000Y-95377200D01*
X103028000Y-95123200D01*
X103048000Y-95123200D01*
X103048000Y-94202450D01*
X102889250Y-94043700D01*
X102667691Y-94043700D01*
X102551737Y-94091730D01*
X102537890Y-94082269D01*
X102286000Y-94031260D01*
X101524000Y-94031260D01*
X101486640Y-94038290D01*
X101486640Y-89762000D01*
X105137225Y-89762000D01*
X105111949Y-89799828D01*
X105111949Y-89799828D01*
G37*
X105111949Y-89799828D02*
X105056000Y-90081100D01*
X105056000Y-94077836D01*
X104826000Y-94031260D01*
X104064000Y-94031260D01*
X103828683Y-94075538D01*
X103801461Y-94093055D01*
X103682309Y-94043700D01*
X103460750Y-94043700D01*
X103302000Y-94202450D01*
X103302000Y-95123200D01*
X103322000Y-95123200D01*
X103322000Y-95377200D01*
X103302000Y-95377200D01*
X103302000Y-96297950D01*
X103460750Y-96456700D01*
X103682309Y-96456700D01*
X103798263Y-96408670D01*
X103812110Y-96418131D01*
X104064000Y-96469140D01*
X104826000Y-96469140D01*
X105061317Y-96424862D01*
X105077099Y-96414707D01*
X105082110Y-96418131D01*
X105334000Y-96469140D01*
X106096000Y-96469140D01*
X106331317Y-96424862D01*
X106347099Y-96414707D01*
X106352110Y-96418131D01*
X106604000Y-96469140D01*
X107366000Y-96469140D01*
X107601317Y-96424862D01*
X107617099Y-96414707D01*
X107622110Y-96418131D01*
X107874000Y-96469140D01*
X108636000Y-96469140D01*
X108871317Y-96424862D01*
X109087441Y-96285790D01*
X109232431Y-96073590D01*
X109283440Y-95821700D01*
X109283440Y-94678700D01*
X109239162Y-94443383D01*
X109100090Y-94227259D01*
X108887890Y-94082269D01*
X108636000Y-94031260D01*
X107874000Y-94031260D01*
X107796000Y-94045937D01*
X107796000Y-92823946D01*
X107903927Y-92716020D01*
X108719974Y-92716020D01*
X114231024Y-98227071D01*
X114071400Y-98195319D01*
X114071395Y-98195320D01*
X103025759Y-98195320D01*
X102866000Y-98035560D01*
X102866000Y-97713800D01*
X102798633Y-97375125D01*
X102640000Y-97137713D01*
X102640000Y-96445230D01*
X102667691Y-96456700D01*
X102889250Y-96456700D01*
X103048000Y-96297950D01*
X103048000Y-95377200D01*
X103028000Y-95377200D01*
X103028000Y-95123200D01*
X103048000Y-95123200D01*
X103048000Y-94202450D01*
X102889250Y-94043700D01*
X102667691Y-94043700D01*
X102551737Y-94091730D01*
X102537890Y-94082269D01*
X102286000Y-94031260D01*
X101524000Y-94031260D01*
X101486640Y-94038290D01*
X101486640Y-89762000D01*
X105137225Y-89762000D01*
X105111949Y-89799828D01*
M02*
