G04 #@! TF.FileFunction,Soldermask,Top*
%FSLAX46Y46*%
G04 Gerber Fmt 4.6, Leading zero omitted, Abs format (unit mm)*
G04 Created by KiCad (PCBNEW 4.0.7) date 06/01/18 22:37:28*
%MOMM*%
%LPD*%
G01*
G04 APERTURE LIST*
%ADD10C,0.100000*%
%ADD11C,0.010000*%
%ADD12C,2.100000*%
%ADD13O,2.100000X2.100000*%
G04 APERTURE END LIST*
D10*
D11*
G36*
X113555675Y-96437947D02*
X114127316Y-96563412D01*
X114683165Y-96762362D01*
X115215558Y-97035058D01*
X115716835Y-97381761D01*
X115729591Y-97391931D01*
X116166457Y-97794288D01*
X116541751Y-98248582D01*
X116853285Y-98746405D01*
X117098875Y-99279349D01*
X117276334Y-99839005D01*
X117383479Y-100416967D01*
X117418123Y-101004825D01*
X117378080Y-101594172D01*
X117261166Y-102176599D01*
X117099216Y-102661192D01*
X116829641Y-103224220D01*
X116493949Y-103737424D01*
X116097247Y-104196304D01*
X115644639Y-104596356D01*
X115141231Y-104933081D01*
X114592130Y-105201975D01*
X114002440Y-105398538D01*
X113991167Y-105401468D01*
X113704883Y-105459443D01*
X113368918Y-105501982D01*
X113011541Y-105527527D01*
X112661017Y-105534520D01*
X112345614Y-105521402D01*
X112174421Y-105501606D01*
X111588338Y-105368876D01*
X111023788Y-105161107D01*
X110490554Y-104884392D01*
X109998422Y-104544823D01*
X109557175Y-104148490D01*
X109176597Y-103701487D01*
X109091958Y-103582357D01*
X108789070Y-103066581D01*
X108560893Y-102520990D01*
X108406511Y-101953835D01*
X108325009Y-101373370D01*
X108320733Y-101110775D01*
X112543332Y-101110775D01*
X112580407Y-101190579D01*
X112670082Y-101290882D01*
X112816426Y-101404502D01*
X112951759Y-101436195D01*
X113084717Y-101386388D01*
X113168923Y-101315589D01*
X113269178Y-101174573D01*
X113292667Y-101058333D01*
X113257897Y-100925766D01*
X113169582Y-100800992D01*
X113051711Y-100709692D01*
X112936758Y-100677333D01*
X112819964Y-100712344D01*
X112697767Y-100801101D01*
X112597309Y-100919186D01*
X112548827Y-101026298D01*
X112543332Y-101110775D01*
X108320733Y-101110775D01*
X108315473Y-100787848D01*
X108376988Y-100205522D01*
X108508639Y-99634646D01*
X108709511Y-99083472D01*
X108978689Y-98560253D01*
X109315258Y-98073243D01*
X109718303Y-97630695D01*
X109755634Y-97595360D01*
X110223277Y-97213734D01*
X110728764Y-96903768D01*
X111264433Y-96665721D01*
X111822621Y-96499854D01*
X112395665Y-96406429D01*
X112975904Y-96385706D01*
X113555675Y-96437947D01*
X113555675Y-96437947D01*
G37*
X113555675Y-96437947D02*
X114127316Y-96563412D01*
X114683165Y-96762362D01*
X115215558Y-97035058D01*
X115716835Y-97381761D01*
X115729591Y-97391931D01*
X116166457Y-97794288D01*
X116541751Y-98248582D01*
X116853285Y-98746405D01*
X117098875Y-99279349D01*
X117276334Y-99839005D01*
X117383479Y-100416967D01*
X117418123Y-101004825D01*
X117378080Y-101594172D01*
X117261166Y-102176599D01*
X117099216Y-102661192D01*
X116829641Y-103224220D01*
X116493949Y-103737424D01*
X116097247Y-104196304D01*
X115644639Y-104596356D01*
X115141231Y-104933081D01*
X114592130Y-105201975D01*
X114002440Y-105398538D01*
X113991167Y-105401468D01*
X113704883Y-105459443D01*
X113368918Y-105501982D01*
X113011541Y-105527527D01*
X112661017Y-105534520D01*
X112345614Y-105521402D01*
X112174421Y-105501606D01*
X111588338Y-105368876D01*
X111023788Y-105161107D01*
X110490554Y-104884392D01*
X109998422Y-104544823D01*
X109557175Y-104148490D01*
X109176597Y-103701487D01*
X109091958Y-103582357D01*
X108789070Y-103066581D01*
X108560893Y-102520990D01*
X108406511Y-101953835D01*
X108325009Y-101373370D01*
X108320733Y-101110775D01*
X112543332Y-101110775D01*
X112580407Y-101190579D01*
X112670082Y-101290882D01*
X112816426Y-101404502D01*
X112951759Y-101436195D01*
X113084717Y-101386388D01*
X113168923Y-101315589D01*
X113269178Y-101174573D01*
X113292667Y-101058333D01*
X113257897Y-100925766D01*
X113169582Y-100800992D01*
X113051711Y-100709692D01*
X112936758Y-100677333D01*
X112819964Y-100712344D01*
X112697767Y-100801101D01*
X112597309Y-100919186D01*
X112548827Y-101026298D01*
X112543332Y-101110775D01*
X108320733Y-101110775D01*
X108315473Y-100787848D01*
X108376988Y-100205522D01*
X108508639Y-99634646D01*
X108709511Y-99083472D01*
X108978689Y-98560253D01*
X109315258Y-98073243D01*
X109718303Y-97630695D01*
X109755634Y-97595360D01*
X110223277Y-97213734D01*
X110728764Y-96903768D01*
X111264433Y-96665721D01*
X111822621Y-96499854D01*
X112395665Y-96406429D01*
X112975904Y-96385706D01*
X113555675Y-96437947D01*
G36*
X87694546Y-96146674D02*
X87973203Y-96171757D01*
X88062000Y-96185766D01*
X88661716Y-96337903D01*
X89233064Y-96566933D01*
X89767319Y-96868396D01*
X90255752Y-97237835D01*
X90425792Y-97393445D01*
X90819364Y-97815942D01*
X91139470Y-98258560D01*
X91397275Y-98738959D01*
X91591866Y-99238000D01*
X91748680Y-99839336D01*
X91823980Y-100443484D01*
X91820109Y-101043511D01*
X91739410Y-101632484D01*
X91584225Y-102203470D01*
X91356898Y-102749534D01*
X91059771Y-103263745D01*
X90695189Y-103739168D01*
X90265493Y-104168871D01*
X89805495Y-104524099D01*
X89339187Y-104795601D01*
X88821180Y-105016665D01*
X88273806Y-105177935D01*
X88210826Y-105192043D01*
X88002237Y-105225641D01*
X87738369Y-105251183D01*
X87445446Y-105267764D01*
X87149691Y-105274479D01*
X86877329Y-105270423D01*
X86654584Y-105254691D01*
X86601500Y-105247582D01*
X86016892Y-105116333D01*
X85451251Y-104910087D01*
X84916995Y-104635251D01*
X84426542Y-104298230D01*
X83992311Y-103905431D01*
X83985042Y-103897843D01*
X83616275Y-103466999D01*
X83313654Y-103011121D01*
X83067222Y-102512962D01*
X82870986Y-101968267D01*
X82830328Y-101830801D01*
X82800338Y-101711061D01*
X82779363Y-101592216D01*
X82765750Y-101457434D01*
X82757846Y-101289884D01*
X82753996Y-101072734D01*
X82753336Y-100943534D01*
X87003667Y-100943534D01*
X87037118Y-101065402D01*
X87120878Y-101192189D01*
X87230057Y-101289910D01*
X87274097Y-101312782D01*
X87410900Y-101331680D01*
X87546385Y-101273490D01*
X87649250Y-101181354D01*
X87725619Y-101073209D01*
X87764397Y-100966015D01*
X87765667Y-100948575D01*
X87728446Y-100824739D01*
X87633905Y-100708182D01*
X87507724Y-100622894D01*
X87384667Y-100592666D01*
X87254708Y-100626749D01*
X87130648Y-100713114D01*
X87038359Y-100827934D01*
X87003667Y-100943534D01*
X82753336Y-100943534D01*
X82752547Y-100789154D01*
X82752483Y-100762000D01*
X82752835Y-100464088D01*
X82756317Y-100233925D01*
X82764282Y-100054608D01*
X82778086Y-99909237D01*
X82799084Y-99780911D01*
X82828630Y-99652730D01*
X82846928Y-99583794D01*
X83051801Y-98984539D01*
X83324714Y-98429324D01*
X83660766Y-97922756D01*
X84055056Y-97469441D01*
X84502683Y-97073988D01*
X84998745Y-96741003D01*
X85538341Y-96475093D01*
X86116571Y-96280867D01*
X86437568Y-96208462D01*
X86715479Y-96169503D01*
X87036841Y-96145949D01*
X87372811Y-96138205D01*
X87694546Y-96146674D01*
X87694546Y-96146674D01*
G37*
X87694546Y-96146674D02*
X87973203Y-96171757D01*
X88062000Y-96185766D01*
X88661716Y-96337903D01*
X89233064Y-96566933D01*
X89767319Y-96868396D01*
X90255752Y-97237835D01*
X90425792Y-97393445D01*
X90819364Y-97815942D01*
X91139470Y-98258560D01*
X91397275Y-98738959D01*
X91591866Y-99238000D01*
X91748680Y-99839336D01*
X91823980Y-100443484D01*
X91820109Y-101043511D01*
X91739410Y-101632484D01*
X91584225Y-102203470D01*
X91356898Y-102749534D01*
X91059771Y-103263745D01*
X90695189Y-103739168D01*
X90265493Y-104168871D01*
X89805495Y-104524099D01*
X89339187Y-104795601D01*
X88821180Y-105016665D01*
X88273806Y-105177935D01*
X88210826Y-105192043D01*
X88002237Y-105225641D01*
X87738369Y-105251183D01*
X87445446Y-105267764D01*
X87149691Y-105274479D01*
X86877329Y-105270423D01*
X86654584Y-105254691D01*
X86601500Y-105247582D01*
X86016892Y-105116333D01*
X85451251Y-104910087D01*
X84916995Y-104635251D01*
X84426542Y-104298230D01*
X83992311Y-103905431D01*
X83985042Y-103897843D01*
X83616275Y-103466999D01*
X83313654Y-103011121D01*
X83067222Y-102512962D01*
X82870986Y-101968267D01*
X82830328Y-101830801D01*
X82800338Y-101711061D01*
X82779363Y-101592216D01*
X82765750Y-101457434D01*
X82757846Y-101289884D01*
X82753996Y-101072734D01*
X82753336Y-100943534D01*
X87003667Y-100943534D01*
X87037118Y-101065402D01*
X87120878Y-101192189D01*
X87230057Y-101289910D01*
X87274097Y-101312782D01*
X87410900Y-101331680D01*
X87546385Y-101273490D01*
X87649250Y-101181354D01*
X87725619Y-101073209D01*
X87764397Y-100966015D01*
X87765667Y-100948575D01*
X87728446Y-100824739D01*
X87633905Y-100708182D01*
X87507724Y-100622894D01*
X87384667Y-100592666D01*
X87254708Y-100626749D01*
X87130648Y-100713114D01*
X87038359Y-100827934D01*
X87003667Y-100943534D01*
X82753336Y-100943534D01*
X82752547Y-100789154D01*
X82752483Y-100762000D01*
X82752835Y-100464088D01*
X82756317Y-100233925D01*
X82764282Y-100054608D01*
X82778086Y-99909237D01*
X82799084Y-99780911D01*
X82828630Y-99652730D01*
X82846928Y-99583794D01*
X83051801Y-98984539D01*
X83324714Y-98429324D01*
X83660766Y-97922756D01*
X84055056Y-97469441D01*
X84502683Y-97073988D01*
X84998745Y-96741003D01*
X85538341Y-96475093D01*
X86116571Y-96280867D01*
X86437568Y-96208462D01*
X86715479Y-96169503D01*
X87036841Y-96145949D01*
X87372811Y-96138205D01*
X87694546Y-96146674D01*
G36*
X101446334Y-84979949D02*
X101960854Y-84988901D01*
X102406777Y-85007113D01*
X102789353Y-85035223D01*
X103113831Y-85073870D01*
X103385462Y-85123695D01*
X103609496Y-85185334D01*
X103791183Y-85259428D01*
X103935773Y-85346616D01*
X104048516Y-85447536D01*
X104057862Y-85457976D01*
X104161877Y-85632253D01*
X104190478Y-85820555D01*
X104148978Y-86011374D01*
X104042688Y-86193200D01*
X103876919Y-86354525D01*
X103656982Y-86483840D01*
X103567955Y-86519492D01*
X103460223Y-86549057D01*
X103327679Y-86567267D01*
X103160688Y-86573852D01*
X102949617Y-86568543D01*
X102684831Y-86551071D01*
X102356696Y-86521169D01*
X101955579Y-86478567D01*
X101907226Y-86473165D01*
X100823343Y-86368947D01*
X99783081Y-86305982D01*
X98773656Y-86285352D01*
X97782282Y-86308137D01*
X96796176Y-86375418D01*
X95802551Y-86488277D01*
X94788624Y-86647796D01*
X93741610Y-86855054D01*
X92648723Y-87111134D01*
X91829667Y-87325424D01*
X91499964Y-87414766D01*
X91242050Y-87483315D01*
X91046093Y-87532779D01*
X90902261Y-87564863D01*
X90800719Y-87581274D01*
X90731637Y-87583719D01*
X90685180Y-87573905D01*
X90651516Y-87553538D01*
X90630022Y-87533640D01*
X90580181Y-87476527D01*
X90564588Y-87425373D01*
X90590757Y-87367071D01*
X90666199Y-87288518D01*
X90798427Y-87176608D01*
X90866122Y-87121809D01*
X91171717Y-86906788D01*
X91553024Y-86690323D01*
X92001202Y-86475333D01*
X92507407Y-86264732D01*
X93062798Y-86061437D01*
X93658534Y-85868365D01*
X94285770Y-85688432D01*
X94935666Y-85524555D01*
X95599380Y-85379650D01*
X96268069Y-85256634D01*
X96740334Y-85184274D01*
X97033572Y-85145363D01*
X97319904Y-85112250D01*
X97610491Y-85084298D01*
X97916496Y-85060869D01*
X98249080Y-85041327D01*
X98619405Y-85025034D01*
X99038632Y-85011353D01*
X99517923Y-84999646D01*
X100068441Y-84989275D01*
X100190500Y-84987266D01*
X100857966Y-84979617D01*
X101446334Y-84979949D01*
X101446334Y-84979949D01*
G37*
X101446334Y-84979949D02*
X101960854Y-84988901D01*
X102406777Y-85007113D01*
X102789353Y-85035223D01*
X103113831Y-85073870D01*
X103385462Y-85123695D01*
X103609496Y-85185334D01*
X103791183Y-85259428D01*
X103935773Y-85346616D01*
X104048516Y-85447536D01*
X104057862Y-85457976D01*
X104161877Y-85632253D01*
X104190478Y-85820555D01*
X104148978Y-86011374D01*
X104042688Y-86193200D01*
X103876919Y-86354525D01*
X103656982Y-86483840D01*
X103567955Y-86519492D01*
X103460223Y-86549057D01*
X103327679Y-86567267D01*
X103160688Y-86573852D01*
X102949617Y-86568543D01*
X102684831Y-86551071D01*
X102356696Y-86521169D01*
X101955579Y-86478567D01*
X101907226Y-86473165D01*
X100823343Y-86368947D01*
X99783081Y-86305982D01*
X98773656Y-86285352D01*
X97782282Y-86308137D01*
X96796176Y-86375418D01*
X95802551Y-86488277D01*
X94788624Y-86647796D01*
X93741610Y-86855054D01*
X92648723Y-87111134D01*
X91829667Y-87325424D01*
X91499964Y-87414766D01*
X91242050Y-87483315D01*
X91046093Y-87532779D01*
X90902261Y-87564863D01*
X90800719Y-87581274D01*
X90731637Y-87583719D01*
X90685180Y-87573905D01*
X90651516Y-87553538D01*
X90630022Y-87533640D01*
X90580181Y-87476527D01*
X90564588Y-87425373D01*
X90590757Y-87367071D01*
X90666199Y-87288518D01*
X90798427Y-87176608D01*
X90866122Y-87121809D01*
X91171717Y-86906788D01*
X91553024Y-86690323D01*
X92001202Y-86475333D01*
X92507407Y-86264732D01*
X93062798Y-86061437D01*
X93658534Y-85868365D01*
X94285770Y-85688432D01*
X94935666Y-85524555D01*
X95599380Y-85379650D01*
X96268069Y-85256634D01*
X96740334Y-85184274D01*
X97033572Y-85145363D01*
X97319904Y-85112250D01*
X97610491Y-85084298D01*
X97916496Y-85060869D01*
X98249080Y-85041327D01*
X98619405Y-85025034D01*
X99038632Y-85011353D01*
X99517923Y-84999646D01*
X100068441Y-84989275D01*
X100190500Y-84987266D01*
X100857966Y-84979617D01*
X101446334Y-84979949D01*
G36*
X106446713Y-85584309D02*
X106673822Y-85639419D01*
X106855035Y-85722435D01*
X106914306Y-85766531D01*
X107065343Y-85944910D01*
X107164199Y-86152448D01*
X107196667Y-86345185D01*
X107183159Y-86486477D01*
X107130937Y-86600799D01*
X107059447Y-86691339D01*
X106855495Y-86866381D01*
X106614025Y-86967985D01*
X106332129Y-86996938D01*
X106053667Y-86964033D01*
X105796150Y-86873875D01*
X105582733Y-86721385D01*
X105428282Y-86517307D01*
X105423957Y-86509033D01*
X105396710Y-86414361D01*
X105379475Y-86274174D01*
X105376334Y-86185875D01*
X105381518Y-86046218D01*
X105408117Y-85953637D01*
X105472702Y-85870878D01*
X105547880Y-85800203D01*
X105695696Y-85680004D01*
X105832041Y-85608239D01*
X105988447Y-85573488D01*
X106196450Y-85564334D01*
X106199267Y-85564333D01*
X106446713Y-85584309D01*
X106446713Y-85584309D01*
G37*
X106446713Y-85584309D02*
X106673822Y-85639419D01*
X106855035Y-85722435D01*
X106914306Y-85766531D01*
X107065343Y-85944910D01*
X107164199Y-86152448D01*
X107196667Y-86345185D01*
X107183159Y-86486477D01*
X107130937Y-86600799D01*
X107059447Y-86691339D01*
X106855495Y-86866381D01*
X106614025Y-86967985D01*
X106332129Y-86996938D01*
X106053667Y-86964033D01*
X105796150Y-86873875D01*
X105582733Y-86721385D01*
X105428282Y-86517307D01*
X105423957Y-86509033D01*
X105396710Y-86414361D01*
X105379475Y-86274174D01*
X105376334Y-86185875D01*
X105381518Y-86046218D01*
X105408117Y-85953637D01*
X105472702Y-85870878D01*
X105547880Y-85800203D01*
X105695696Y-85680004D01*
X105832041Y-85608239D01*
X105988447Y-85573488D01*
X106196450Y-85564334D01*
X106199267Y-85564333D01*
X106446713Y-85584309D01*
D12*
X101107240Y-115813840D03*
D13*
X101107240Y-118353840D03*
X98567240Y-115813840D03*
X98567240Y-118353840D03*
D10*
G36*
X112502895Y-114568359D02*
X113221137Y-116541713D01*
X110965875Y-117362561D01*
X110247633Y-115389207D01*
X112502895Y-114568359D01*
X112502895Y-114568359D01*
G37*
G36*
X108744125Y-115936439D02*
X109462367Y-117909793D01*
X107207105Y-118730641D01*
X106488863Y-116757287D01*
X108744125Y-115936439D01*
X108744125Y-115936439D01*
G37*
G36*
X88073863Y-116732213D02*
X88792105Y-114758859D01*
X91047367Y-115579707D01*
X90329125Y-117553061D01*
X88073863Y-116732213D01*
X88073863Y-116732213D01*
G37*
G36*
X91832633Y-118100293D02*
X92550875Y-116126939D01*
X94806137Y-116947787D01*
X94087895Y-118921141D01*
X91832633Y-118100293D01*
X91832633Y-118100293D01*
G37*
G36*
X80306796Y-110239720D02*
X81791720Y-108754796D01*
X83488776Y-110451852D01*
X82003852Y-111936776D01*
X80306796Y-110239720D01*
X80306796Y-110239720D01*
G37*
G36*
X83135224Y-113068148D02*
X84620148Y-111583224D01*
X86317204Y-113280280D01*
X84832280Y-114765204D01*
X83135224Y-113068148D01*
X83135224Y-113068148D01*
G37*
G36*
X77658278Y-100662945D02*
X79726374Y-100298284D01*
X80143130Y-102661823D01*
X78075034Y-103026484D01*
X77658278Y-100662945D01*
X77658278Y-100662945D01*
G37*
G36*
X78352870Y-104602177D02*
X80420966Y-104237516D01*
X80837722Y-106601055D01*
X78769626Y-106965716D01*
X78352870Y-104602177D01*
X78352870Y-104602177D01*
G37*
G36*
X81462673Y-92207719D02*
X83281327Y-93257719D01*
X82081327Y-95336179D01*
X80262673Y-94286179D01*
X81462673Y-92207719D01*
X81462673Y-92207719D01*
G37*
G36*
X79462673Y-95671821D02*
X81281327Y-96721821D01*
X80081327Y-98800281D01*
X78262673Y-97750281D01*
X79462673Y-95671821D01*
X79462673Y-95671821D01*
G37*
G36*
X89622281Y-86898673D02*
X90672281Y-88717327D01*
X88593821Y-89917327D01*
X87543821Y-88098673D01*
X89622281Y-86898673D01*
X89622281Y-86898673D01*
G37*
G36*
X86158179Y-88898673D02*
X87208179Y-90717327D01*
X85129719Y-91917327D01*
X84079719Y-90098673D01*
X86158179Y-88898673D01*
X86158179Y-88898673D01*
G37*
G36*
X110568458Y-89194665D02*
X111772969Y-87474446D01*
X113738934Y-88851029D01*
X112534423Y-90571248D01*
X110568458Y-89194665D01*
X110568458Y-89194665D01*
G37*
G36*
X113845066Y-91488971D02*
X115049577Y-89768752D01*
X117015542Y-91145335D01*
X115811031Y-92865554D01*
X113845066Y-91488971D01*
X113845066Y-91488971D01*
G37*
G36*
X116823596Y-93679513D02*
X118677786Y-92693623D01*
X119804518Y-94812697D01*
X117950328Y-95798587D01*
X116823596Y-93679513D01*
X116823596Y-93679513D01*
G37*
G36*
X118701482Y-97211303D02*
X120555672Y-96225413D01*
X121682404Y-98344487D01*
X119828214Y-99330377D01*
X118701482Y-97211303D01*
X118701482Y-97211303D01*
G37*
G36*
X120182572Y-100952011D02*
X122262135Y-101244274D01*
X121928120Y-103620917D01*
X119848557Y-103328654D01*
X120182572Y-100952011D01*
X120182572Y-100952011D01*
G37*
G36*
X119625880Y-104913083D02*
X121705443Y-105205346D01*
X121371428Y-107581989D01*
X119291865Y-107289726D01*
X119625880Y-104913083D01*
X119625880Y-104913083D01*
G37*
G36*
X118360280Y-108754796D02*
X119845204Y-110239720D01*
X118148148Y-111936776D01*
X116663224Y-110451852D01*
X118360280Y-108754796D01*
X118360280Y-108754796D01*
G37*
G36*
X115531852Y-111583224D02*
X117016776Y-113068148D01*
X115319720Y-114765204D01*
X113834796Y-113280280D01*
X115531852Y-111583224D01*
X115531852Y-111583224D01*
G37*
M02*
